M48
; DRILL file KiCad 10.0.4 date 2026-07-30T16:55:57
; FORMAT={-:-/ absolute / metric / decimal}
; #@! TF.CreationDate,2026-07-30T16:55:57-07:00
; #@! TF.GenerationSoftware,Kicad,Pcbnew,10.0.4
; #@! TF.FileFunction,Plated,1,2,PTH
FMAT,2
METRIC
; #@! TA.AperFunction,Plated,PTH,ViaDrill
T1C0.300
; #@! TA.AperFunction,Plated,PTH,ComponentDrill
T2C0.711
; #@! TA.AperFunction,Plated,PTH,ComponentDrill
T3C0.750
; #@! TA.AperFunction,Plated,PTH,ComponentDrill
T4C0.800
; #@! TA.AperFunction,Plated,PTH,ComponentDrill
T5C0.890
; #@! TA.AperFunction,Plated,PTH,ComponentDrill
T6C0.900
; #@! TA.AperFunction,Plated,PTH,ComponentDrill
T7C1.000
; #@! TA.AperFunction,Plated,PTH,ComponentDrill
T8C1.100
%
G90
G05
T1
X104.174Y-65.826
X106.55Y-99.0
X108.0Y-73.0
X108.079Y-68.366
X111.0Y-72.125
X112.0Y-118.5
X112.0Y-132.5
X112.5Y-66.0
X113.0Y-99.0
X115.5Y-71.5
X118.5Y-132.5
X120.0Y-67.741
X120.0Y-121.5
X121.0Y-131.0
X125.5Y-115.975
X138.5Y-110.0
X140.5Y-128.75
X140.5Y-143.75
X154.85Y-116.5
X157.5Y-131.2
X157.5Y-145.7
X163.396Y-103.25
X163.5Y-100.25
X168.0Y-105.0
X171.0Y-123.25
X171.0Y-133.0
X171.0Y-142.75
X174.5Y-108.25
X175.5Y-118.5
X176.5Y-115.5
T2
X120.03Y-108.0
X121.5Y-108.0
X122.93Y-108.0
T3
X106.0Y-83.5
X106.5Y-104.5
X108.0Y-83.5
X108.5Y-104.5
X110.0Y-83.5
X110.5Y-104.5
X116.0Y-83.5
X118.0Y-83.5
X120.0Y-83.5
X124.5Y-64.5
X124.5Y-66.5
X124.5Y-68.5
X124.5Y-74.5
X124.5Y-76.5
X124.5Y-78.5
X140.5Y-83.73
X140.5Y-85.0
X140.5Y-86.27
X155.45Y-83.0
X155.45Y-85.0
X155.45Y-87.0
X170.5Y-100.0
X172.5Y-100.0
X174.5Y-100.0
T4
X119.5Y-119.92
X119.5Y-127.54
X124.0Y-128.0
X124.0Y-147.5
X128.0Y-133.0
X128.0Y-137.5
X128.0Y-142.0
X132.0Y-128.0
X132.0Y-147.5
T5
X107.055Y-69.39
X108.325Y-66.85
X109.595Y-69.39
X110.865Y-66.85
X112.135Y-69.39
X113.405Y-66.85
X114.675Y-69.39
X115.945Y-66.85
X154.85Y-103.805
X154.85Y-106.345
X154.85Y-108.885
X154.85Y-111.425
X157.39Y-105.075
X157.39Y-107.615
X157.39Y-110.155
X157.39Y-112.695
T6
X164.725Y-123.16
X164.725Y-132.88
X164.725Y-142.6
X167.265Y-123.16
X167.265Y-132.88
X167.265Y-142.6
T7
X103.235Y-117.5
X103.34Y-121.42
X103.34Y-126.5
X105.775Y-117.5
X110.96Y-121.42
X110.96Y-126.5
X113.5Y-121.42
X113.5Y-126.5
T8
X106.0Y-139.5
X106.0Y-144.5
X111.0Y-139.5
X111.0Y-144.5
X146.5Y-123.75
X146.5Y-128.75
X146.5Y-138.75
X146.5Y-143.75
X151.5Y-123.75
X151.5Y-128.75
X151.5Y-138.75
X151.5Y-143.75
M30
