M48
; DRILL file KiCad 10.0.4 date 2026-07-30T16:55:57
; FORMAT={-:-/ absolute / metric / decimal}
; #@! TF.CreationDate,2026-07-30T16:55:57-07:00
; #@! TF.GenerationSoftware,Kicad,Pcbnew,10.0.4
; #@! TF.FileFunction,NonPlated,1,2,NPTH
FMAT,2
METRIC
; #@! TA.AperFunction,NonPlated,NPTH,ComponentDrill
T1C0.500
; #@! TA.AperFunction,NonPlated,NPTH,ComponentDrill
T2C3.200
; #@! TA.AperFunction,NonPlated,NPTH,ComponentDrill
T3C3.250
%
G90
G05
T1
X106.9Y-91.75
X106.95Y-94.25
X107.75Y-91.75
X107.8Y-94.25
X108.6Y-91.75
X108.65Y-94.25
X109.45Y-91.75
X109.5Y-94.25
X110.3Y-91.75
X110.35Y-94.25
X111.15Y-91.75
X111.2Y-94.25
X112.0Y-91.75
X112.05Y-94.25
X120.9Y-91.75
X120.95Y-94.25
X121.75Y-91.75
X121.8Y-94.25
X122.6Y-91.75
X122.65Y-94.25
X123.45Y-91.75
X123.5Y-94.25
X124.3Y-91.75
X124.35Y-94.25
X125.15Y-91.75
X125.2Y-94.25
X126.0Y-91.75
X126.05Y-94.25
X134.75Y-82.5
X134.75Y-83.35
X134.75Y-84.2
X134.75Y-85.05
X134.75Y-85.9
X134.75Y-86.75
X134.75Y-87.6
X134.75Y-102.0
X134.75Y-102.85
X134.75Y-103.7
X134.75Y-104.55
X134.75Y-105.4
X134.75Y-106.25
X134.75Y-107.1
X134.75Y-117.5
X134.75Y-118.35
X134.75Y-119.2
X134.75Y-120.05
X134.75Y-120.9
X134.75Y-121.75
X134.75Y-122.6
X134.75Y-134.0
X134.75Y-134.85
X134.75Y-135.7
X134.75Y-136.55
X134.75Y-137.4
X134.75Y-138.25
X134.75Y-139.1
X137.25Y-82.45
X137.25Y-83.3
X137.25Y-84.15
X137.25Y-85.0
X137.25Y-85.85
X137.25Y-86.7
X137.25Y-87.55
X137.25Y-101.95
X137.25Y-102.8
X137.25Y-103.65
X137.25Y-104.5
X137.25Y-105.35
X137.25Y-106.2
X137.25Y-107.05
X137.25Y-117.45
X137.25Y-118.3
X137.25Y-119.15
X137.25Y-120.0
X137.25Y-120.85
X137.25Y-121.7
X137.25Y-122.55
X137.25Y-133.95
X137.25Y-134.8
X137.25Y-135.65
X137.25Y-136.5
X137.25Y-137.35
X137.25Y-138.2
X137.25Y-139.05
X142.9Y-91.75
X142.95Y-94.25
X143.75Y-91.75
X143.8Y-94.25
X144.6Y-91.75
X144.65Y-94.25
X145.45Y-91.75
X145.5Y-94.25
X146.3Y-91.75
X146.35Y-94.25
X147.15Y-91.75
X147.2Y-94.25
X148.0Y-91.75
X148.05Y-94.25
X151.9Y-91.75
X151.95Y-94.25
X152.75Y-91.75
X152.8Y-94.25
X153.6Y-91.75
X153.65Y-94.25
X154.45Y-91.75
X154.5Y-94.25
X155.3Y-91.75
X155.35Y-94.25
X156.15Y-91.75
X156.2Y-94.25
X157.0Y-91.75
X157.05Y-94.25
T2
X112.0Y-76.5
X119.0Y-141.5
X126.0Y-56.0
X129.5Y-102.0
X148.5Y-82.5
X159.25Y-139.0
X165.0Y-110.5
T3
X105.785Y-60.5
X117.215Y-60.5
X148.5Y-102.535
X148.5Y-113.965
M30
