M48
; DRILL file KiCad 10.0.4 date 2026-07-30T17:06:26
; FORMAT={-:-/ absolute / metric / decimal}
; #@! TF.CreationDate,2026-07-30T17:06:26-07:00
; #@! TF.GenerationSoftware,Kicad,Pcbnew,10.0.4
; #@! TF.FileFunction,Plated,1,2,PTH
FMAT,2
METRIC
; #@! TA.AperFunction,Plated,PTH,ViaDrill
T1C0.300
; #@! TA.AperFunction,Plated,PTH,ComponentDrill
T2C0.711
; #@! TA.AperFunction,Plated,PTH,ComponentDrill
T3C0.762
; #@! TA.AperFunction,Plated,PTH,ComponentDrill
T4C0.800
; #@! TA.AperFunction,Plated,PTH,ComponentDrill
T5C0.890
; #@! TA.AperFunction,Plated,PTH,ComponentDrill
T6C0.991
; #@! TA.AperFunction,Plated,PTH,ComponentDrill
T7C1.000
; #@! TA.AperFunction,Plated,PTH,ComponentDrill
T8C1.020
; #@! TA.AperFunction,Plated,PTH,ComponentDrill
T9C1.060
; #@! TA.AperFunction,Plated,PTH,ComponentDrill
T10C1.100
; #@! TA.AperFunction,Plated,PTH,ComponentDrill
T11C1.200
; #@! TA.AperFunction,Plated,PTH,ComponentDrill
T12C1.280
%
G90
G05
T1
X94.75Y-46.75
X96.75Y-80.8
X96.75Y-87.75
X97.71Y-66.25
X101.217Y-122.107
X105.25Y-87.75
X105.5Y-47.5
X106.5Y-120.0
X107.75Y-121.95
X107.75Y-122.75
X114.25Y-81.75
X114.25Y-87.45
X116.0Y-122.0
X117.5Y-86.75
X117.716Y-95.604
X119.0Y-89.5
X119.062Y-123.312
X119.4Y-107.5
X119.75Y-71.5
X120.25Y-98.0
X121.9Y-47.75
X123.25Y-93.75
X125.0Y-88.0
X125.75Y-83.75
X128.75Y-129.75
X128.75Y-130.55
X129.494Y-129.125
X130.25Y-128.5
X131.0Y-128.0
X131.487Y-118.049
X131.968Y-98.224
X132.75Y-80.0
X133.0Y-131.125
X133.25Y-73.75
X133.55Y-80.0
X133.75Y-130.75
X134.0Y-118.0
X135.159Y-80.131
X135.25Y-85.69
X135.5Y-97.5
X136.145Y-135.734
X138.25Y-124.0
X138.873Y-82.373
X139.0Y-107.5
X139.25Y-60.25
X139.3Y-47.75
X139.313Y-64.937
X139.75Y-72.0
X139.75Y-79.5
X140.0Y-129.75
X140.25Y-88.75
X140.5Y-130.5
X141.009Y-131.125
X145.875Y-82.125
X146.335Y-79.585
X146.938Y-120.375
X146.946Y-59.75
X147.0Y-86.5
X147.25Y-91.75
X148.0Y-90.5
X148.25Y-71.25
X148.383Y-56.233
X149.0Y-64.95
X149.124Y-71.374
X149.25Y-115.5
X149.625Y-91.183
X149.625Y-94.0
X150.0Y-125.125
X150.075Y-69.25
X150.183Y-87.433
X150.799Y-125.165
X151.25Y-92.625
X151.643Y-111.762
X151.805Y-72.155
X152.0Y-65.054
X152.318Y-97.5
X152.5Y-116.0
X153.0Y-87.5
X153.0Y-90.5
X153.625Y-66.491
X153.75Y-64.5
X153.75Y-93.0
X153.948Y-82.802
X154.25Y-67.0
X154.25Y-122.0
X155.0Y-124.0
X155.116Y-61.709
X155.125Y-63.972
X155.5Y-66.75
X156.0Y-130.325
X156.0Y-131.125
X156.135Y-62.75
X156.46Y-54.79
X157.25Y-63.25
X157.5Y-101.5
X157.75Y-122.75
X158.75Y-63.096
X159.023Y-135.75
X159.75Y-54.05
X159.75Y-59.95
X160.0Y-49.75
X160.0Y-76.5
X160.75Y-96.25
X160.75Y-102.75
X161.0Y-82.75
X161.5Y-106.25
X162.75Y-104.25
X163.75Y-106.25
X164.25Y-102.525
X165.25Y-50.75
X165.271Y-91.75
X165.5Y-106.25
X165.5Y-110.5
X165.75Y-108.0
X165.753Y-107.009
X166.0Y-104.0
X166.003Y-108.759
X166.75Y-74.25
X167.0Y-68.5
X167.2Y-60.0
X167.25Y-79.0
X167.75Y-102.525
X167.824Y-110.668
X168.125Y-93.125
X168.75Y-88.75
X169.625Y-71.375
X169.818Y-114.432
X170.0Y-64.5
X170.75Y-83.75
X171.25Y-102.525
X172.258Y-90.142
X172.3Y-95.0
X173.0Y-104.25
X173.0Y-123.25
X173.074Y-97.926
X173.25Y-130.75
X173.253Y-122.491
X173.699Y-95.0
X174.0Y-106.25
X174.25Y-114.0
X174.4Y-131.7
X174.5Y-107.0
X174.75Y-96.25
X174.75Y-102.525
X174.75Y-108.0
X174.75Y-121.75
X174.8Y-130.0
X175.25Y-108.75
X175.3Y-129.375
X176.75Y-104.0
X177.75Y-109.0
X178.4Y-129.375
X178.625Y-75.625
X179.0Y-65.75
X179.25Y-73.5
X179.25Y-102.5
X179.25Y-123.25
X179.5Y-82.75
X179.743Y-129.95
X180.5Y-107.25
X180.7Y-73.2
X180.7Y-86.6
X180.7Y-92.6
X180.75Y-67.5
X180.75Y-96.0
X180.775Y-114.0
X181.375Y-98.317
X181.5Y-104.75
X182.5Y-130.8
X182.75Y-102.525
X183.098Y-131.675
X183.5Y-59.0
X183.75Y-65.25
X183.84Y-120.055
X184.0Y-50.7
X184.431Y-59.163
X186.25Y-102.525
X188.125Y-94.625
X188.9Y-53.6
X189.5Y-85.75
X189.75Y-84.5
X189.8Y-102.5
X190.5Y-76.0
X191.15Y-53.8
T2
X95.25Y-116.55
X95.25Y-117.98
X95.25Y-119.425
X153.575Y-47.75
X155.02Y-47.75
X156.45Y-47.75
T3
X103.25Y-80.75
X103.25Y-82.75
X120.25Y-53.75
X122.25Y-53.75
X146.75Y-47.75
X148.75Y-47.75
T4
X115.75Y-111.63
X115.75Y-119.25
X118.29Y-111.63
X118.29Y-119.25
X120.83Y-111.63
X120.83Y-119.25
X123.37Y-111.63
X123.37Y-119.25
X125.91Y-111.63
X125.91Y-119.25
X128.45Y-111.63
X128.45Y-119.25
X130.0Y-54.0
X130.0Y-65.75
X130.99Y-111.63
X130.99Y-119.25
X133.53Y-111.63
X133.53Y-119.25
X136.07Y-111.63
X136.07Y-119.25
X138.61Y-111.63
X138.61Y-119.25
X141.15Y-111.63
X141.15Y-119.25
X143.69Y-111.63
X143.69Y-119.25
X146.23Y-111.63
X146.23Y-119.25
X148.77Y-111.63
X148.77Y-119.25
X154.25Y-111.63
X154.25Y-119.25
X156.79Y-111.63
X156.79Y-119.25
X159.33Y-111.63
X159.33Y-119.25
X161.87Y-111.63
X161.87Y-119.25
X164.41Y-111.63
X164.41Y-119.25
X166.95Y-111.63
X166.95Y-119.25
X169.49Y-111.63
X169.49Y-119.25
X172.03Y-111.63
X172.03Y-119.25
X174.57Y-111.63
X174.57Y-119.25
X177.11Y-111.63
X177.11Y-119.25
X179.65Y-111.63
X179.65Y-119.25
X182.19Y-111.63
X182.19Y-119.25
X184.73Y-111.63
X184.73Y-119.25
X187.27Y-111.63
X187.27Y-119.25
T5
X96.805Y-127.4
X98.075Y-124.86
X99.345Y-127.4
X100.615Y-124.86
X101.885Y-127.4
X103.155Y-124.86
X104.425Y-127.4
X105.695Y-124.86
X117.305Y-127.4
X118.575Y-124.86
X119.845Y-127.4
X121.115Y-124.86
X122.385Y-127.4
X123.655Y-124.86
X124.925Y-127.4
X126.195Y-124.86
X138.305Y-127.4
X139.575Y-124.86
X140.845Y-127.4
X142.115Y-124.86
X143.385Y-127.4
X144.655Y-124.86
X145.925Y-127.4
X147.195Y-124.86
X158.305Y-127.4
X159.575Y-124.86
X160.845Y-127.4
X162.115Y-124.86
X163.385Y-127.4
X164.655Y-124.86
X165.925Y-127.4
X167.195Y-124.86
X177.805Y-127.54
X179.075Y-125.0
X180.345Y-127.54
X181.615Y-125.0
X182.885Y-127.54
X184.155Y-125.0
X185.425Y-127.54
X186.695Y-125.0
T6
X116.25Y-76.75
X116.25Y-79.29
X116.25Y-81.83
X116.25Y-84.37
X116.25Y-86.91
X116.25Y-89.45
X116.25Y-91.99
X116.25Y-94.53
X116.25Y-97.07
X131.49Y-76.75
X131.49Y-79.29
X131.49Y-81.83
X131.49Y-84.37
X131.49Y-86.91
X131.49Y-89.45
X131.49Y-91.99
X131.49Y-94.53
X131.49Y-97.07
T7
X103.75Y-100.25
X103.75Y-110.25
X111.25Y-54.75
X111.25Y-59.85
X119.765Y-60.215
X119.765Y-62.755
X119.765Y-65.295
X137.75Y-68.25
X137.75Y-70.79
X137.75Y-73.33
X137.75Y-75.87
X137.75Y-78.41
X137.75Y-80.95
X137.75Y-83.49
X137.75Y-86.03
X137.75Y-88.57
X137.75Y-91.11
X137.75Y-93.65
X137.75Y-96.19
X137.75Y-98.73
X137.75Y-101.27
X155.5Y-68.23
X155.5Y-70.77
X155.5Y-73.31
X155.5Y-75.85
X155.5Y-78.39
X155.5Y-80.93
X155.5Y-83.47
X155.5Y-86.01
X155.5Y-88.55
X155.5Y-91.09
X155.5Y-93.63
X155.5Y-96.17
X155.5Y-98.71
X155.5Y-101.25
X162.75Y-46.75
X162.75Y-49.29
X162.75Y-51.83
X162.75Y-54.37
X162.75Y-56.91
X162.75Y-59.45
X162.75Y-61.99
X162.75Y-64.53
X162.75Y-67.07
X162.75Y-69.61
X162.75Y-72.15
X162.75Y-74.69
X162.75Y-77.23
X162.75Y-79.77
X162.75Y-82.31
X162.75Y-84.85
X162.75Y-87.39
X162.75Y-89.93
X162.75Y-92.47
X185.75Y-46.75
X185.75Y-49.29
X185.75Y-51.83
X185.75Y-54.37
X185.75Y-56.91
X185.75Y-59.45
X185.75Y-61.99
X185.75Y-64.53
X185.75Y-67.07
X185.75Y-69.61
X185.75Y-72.15
X185.75Y-74.69
X185.75Y-77.23
X185.75Y-79.77
X185.75Y-82.31
X185.75Y-84.85
X185.75Y-87.39
X185.75Y-89.93
X185.75Y-92.47
T8
X154.25Y-52.25
X154.25Y-54.79
X154.25Y-57.33
X154.25Y-59.87
T9
X97.57Y-70.75
X107.93Y-70.75
T10
X125.59Y-47.75
X135.75Y-47.75
X141.25Y-47.75
X141.25Y-57.91
T11
X96.9Y-75.25
X109.6Y-75.25
T12
X105.17Y-66.6
X107.71Y-66.6
X110.25Y-66.6
T7
G00X99.75Y-55.75
M15
G01X99.75Y-53.75
M16
G05
G00X103.75Y-59.45
M15
G01X101.75Y-59.45
M16
G05
G00X105.75Y-56.0
M15
G01X105.75Y-53.5
M16
G05
M30
