%TF.GenerationSoftware,KiCad,Pcbnew,10.0.4*%
%TF.CreationDate,2026-07-30T17:06:17-07:00*%
%TF.ProjectId,FluxCapacitor,466c7578-4361-4706-9163-69746f722e6b,rev?*%
%TF.SameCoordinates,Original*%
%TF.FileFunction,Legend,Top*%
%TF.FilePolarity,Positive*%
%FSLAX46Y46*%
G04 Gerber Fmt 4.6, Leading zero omitted, Abs format (unit mm)*
G04 Created by KiCad (PCBNEW 10.0.4) date 2026-07-30 17:06:17*
%MOMM*%
%LPD*%
G01*
G04 APERTURE LIST*
%ADD10C,0.100000*%
%ADD11C,0.150000*%
%ADD12C,0.254000*%
%ADD13C,0.120000*%
%ADD14C,0.127000*%
%ADD15C,0.200000*%
%ADD16C,0.152400*%
%ADD17C,0.400000*%
G04 APERTURE END LIST*
D10*
X158200000Y-94600000D02*
X158200000Y-110800000D01*
X158200000Y-110800000D02*
X172700000Y-110800000D01*
X172700000Y-108200000D02*
X191200000Y-108200000D01*
X172700000Y-110800000D02*
X172700000Y-108200000D01*
X191200000Y-94600000D02*
X158200000Y-94600000D01*
X191200000Y-94600000D02*
X191200000Y-108200000D01*
X182303884Y-109572419D02*
X182303884Y-108572419D01*
X182303884Y-108572419D02*
X182541979Y-108572419D01*
X182541979Y-108572419D02*
X182684836Y-108620038D01*
X182684836Y-108620038D02*
X182780074Y-108715276D01*
X182780074Y-108715276D02*
X182827693Y-108810514D01*
X182827693Y-108810514D02*
X182875312Y-109000990D01*
X182875312Y-109000990D02*
X182875312Y-109143847D01*
X182875312Y-109143847D02*
X182827693Y-109334323D01*
X182827693Y-109334323D02*
X182780074Y-109429561D01*
X182780074Y-109429561D02*
X182684836Y-109524800D01*
X182684836Y-109524800D02*
X182541979Y-109572419D01*
X182541979Y-109572419D02*
X182303884Y-109572419D01*
X183303884Y-109048609D02*
X183637217Y-109048609D01*
X183780074Y-109572419D02*
X183303884Y-109572419D01*
X183303884Y-109572419D02*
X183303884Y-108572419D01*
X183303884Y-108572419D02*
X183780074Y-108572419D01*
X184541979Y-109048609D02*
X184684836Y-109096228D01*
X184684836Y-109096228D02*
X184732455Y-109143847D01*
X184732455Y-109143847D02*
X184780074Y-109239085D01*
X184780074Y-109239085D02*
X184780074Y-109381942D01*
X184780074Y-109381942D02*
X184732455Y-109477180D01*
X184732455Y-109477180D02*
X184684836Y-109524800D01*
X184684836Y-109524800D02*
X184589598Y-109572419D01*
X184589598Y-109572419D02*
X184208646Y-109572419D01*
X184208646Y-109572419D02*
X184208646Y-108572419D01*
X184208646Y-108572419D02*
X184541979Y-108572419D01*
X184541979Y-108572419D02*
X184637217Y-108620038D01*
X184637217Y-108620038D02*
X184684836Y-108667657D01*
X184684836Y-108667657D02*
X184732455Y-108762895D01*
X184732455Y-108762895D02*
X184732455Y-108858133D01*
X184732455Y-108858133D02*
X184684836Y-108953371D01*
X184684836Y-108953371D02*
X184637217Y-109000990D01*
X184637217Y-109000990D02*
X184541979Y-109048609D01*
X184541979Y-109048609D02*
X184208646Y-109048609D01*
X185208646Y-108572419D02*
X185208646Y-109381942D01*
X185208646Y-109381942D02*
X185256265Y-109477180D01*
X185256265Y-109477180D02*
X185303884Y-109524800D01*
X185303884Y-109524800D02*
X185399122Y-109572419D01*
X185399122Y-109572419D02*
X185589598Y-109572419D01*
X185589598Y-109572419D02*
X185684836Y-109524800D01*
X185684836Y-109524800D02*
X185732455Y-109477180D01*
X185732455Y-109477180D02*
X185780074Y-109381942D01*
X185780074Y-109381942D02*
X185780074Y-108572419D01*
X186780074Y-108620038D02*
X186684836Y-108572419D01*
X186684836Y-108572419D02*
X186541979Y-108572419D01*
X186541979Y-108572419D02*
X186399122Y-108620038D01*
X186399122Y-108620038D02*
X186303884Y-108715276D01*
X186303884Y-108715276D02*
X186256265Y-108810514D01*
X186256265Y-108810514D02*
X186208646Y-109000990D01*
X186208646Y-109000990D02*
X186208646Y-109143847D01*
X186208646Y-109143847D02*
X186256265Y-109334323D01*
X186256265Y-109334323D02*
X186303884Y-109429561D01*
X186303884Y-109429561D02*
X186399122Y-109524800D01*
X186399122Y-109524800D02*
X186541979Y-109572419D01*
X186541979Y-109572419D02*
X186637217Y-109572419D01*
X186637217Y-109572419D02*
X186780074Y-109524800D01*
X186780074Y-109524800D02*
X186827693Y-109477180D01*
X186827693Y-109477180D02*
X186827693Y-109143847D01*
X186827693Y-109143847D02*
X186637217Y-109143847D01*
X188494360Y-109572419D02*
X188018170Y-109572419D01*
X188018170Y-109572419D02*
X188018170Y-108572419D01*
X188827694Y-109048609D02*
X189161027Y-109048609D01*
X189303884Y-109572419D02*
X188827694Y-109572419D01*
X188827694Y-109572419D02*
X188827694Y-108572419D01*
X188827694Y-108572419D02*
X189303884Y-108572419D01*
X189732456Y-109572419D02*
X189732456Y-108572419D01*
X189732456Y-108572419D02*
X189970551Y-108572419D01*
X189970551Y-108572419D02*
X190113408Y-108620038D01*
X190113408Y-108620038D02*
X190208646Y-108715276D01*
X190208646Y-108715276D02*
X190256265Y-108810514D01*
X190256265Y-108810514D02*
X190303884Y-109000990D01*
X190303884Y-109000990D02*
X190303884Y-109143847D01*
X190303884Y-109143847D02*
X190256265Y-109334323D01*
X190256265Y-109334323D02*
X190208646Y-109429561D01*
X190208646Y-109429561D02*
X190113408Y-109524800D01*
X190113408Y-109524800D02*
X189970551Y-109572419D01*
X189970551Y-109572419D02*
X189732456Y-109572419D01*
X190684837Y-109524800D02*
X190827694Y-109572419D01*
X190827694Y-109572419D02*
X191065789Y-109572419D01*
X191065789Y-109572419D02*
X191161027Y-109524800D01*
X191161027Y-109524800D02*
X191208646Y-109477180D01*
X191208646Y-109477180D02*
X191256265Y-109381942D01*
X191256265Y-109381942D02*
X191256265Y-109286704D01*
X191256265Y-109286704D02*
X191208646Y-109191466D01*
X191208646Y-109191466D02*
X191161027Y-109143847D01*
X191161027Y-109143847D02*
X191065789Y-109096228D01*
X191065789Y-109096228D02*
X190875313Y-109048609D01*
X190875313Y-109048609D02*
X190780075Y-109000990D01*
X190780075Y-109000990D02*
X190732456Y-108953371D01*
X190732456Y-108953371D02*
X190684837Y-108858133D01*
X190684837Y-108858133D02*
X190684837Y-108762895D01*
X190684837Y-108762895D02*
X190732456Y-108667657D01*
X190732456Y-108667657D02*
X190780075Y-108620038D01*
X190780075Y-108620038D02*
X190875313Y-108572419D01*
X190875313Y-108572419D02*
X191113408Y-108572419D01*
X191113408Y-108572419D02*
X191256265Y-108620038D01*
X161172419Y-109307306D02*
X161172419Y-109878734D01*
X161172419Y-109593020D02*
X160172419Y-109593020D01*
X160172419Y-109593020D02*
X160315276Y-109688258D01*
X160315276Y-109688258D02*
X160410514Y-109783496D01*
X160410514Y-109783496D02*
X160458133Y-109878734D01*
X160267657Y-108926353D02*
X160220038Y-108878734D01*
X160220038Y-108878734D02*
X160172419Y-108783496D01*
X160172419Y-108783496D02*
X160172419Y-108545401D01*
X160172419Y-108545401D02*
X160220038Y-108450163D01*
X160220038Y-108450163D02*
X160267657Y-108402544D01*
X160267657Y-108402544D02*
X160362895Y-108354925D01*
X160362895Y-108354925D02*
X160458133Y-108354925D01*
X160458133Y-108354925D02*
X160600990Y-108402544D01*
X160600990Y-108402544D02*
X161172419Y-108973972D01*
X161172419Y-108973972D02*
X161172419Y-108354925D01*
X160172419Y-108069210D02*
X161172419Y-107735877D01*
X161172419Y-107735877D02*
X160172419Y-107402544D01*
X161267657Y-107307306D02*
X161267657Y-106545401D01*
X161172419Y-105735877D02*
X160696228Y-106069210D01*
X161172419Y-106307305D02*
X160172419Y-106307305D01*
X160172419Y-106307305D02*
X160172419Y-105926353D01*
X160172419Y-105926353D02*
X160220038Y-105831115D01*
X160220038Y-105831115D02*
X160267657Y-105783496D01*
X160267657Y-105783496D02*
X160362895Y-105735877D01*
X160362895Y-105735877D02*
X160505752Y-105735877D01*
X160505752Y-105735877D02*
X160600990Y-105783496D01*
X160600990Y-105783496D02*
X160648609Y-105831115D01*
X160648609Y-105831115D02*
X160696228Y-105926353D01*
X160696228Y-105926353D02*
X160696228Y-106307305D01*
X160886704Y-105354924D02*
X160886704Y-104878734D01*
X161172419Y-105450162D02*
X160172419Y-105116829D01*
X160172419Y-105116829D02*
X161172419Y-104783496D01*
X160172419Y-104545400D02*
X161172419Y-104307305D01*
X161172419Y-104307305D02*
X160458133Y-104116829D01*
X160458133Y-104116829D02*
X161172419Y-103926353D01*
X161172419Y-103926353D02*
X160172419Y-103688258D01*
X164672419Y-109207306D02*
X164672419Y-109778734D01*
X164672419Y-109493020D02*
X163672419Y-109493020D01*
X163672419Y-109493020D02*
X163815276Y-109588258D01*
X163815276Y-109588258D02*
X163910514Y-109683496D01*
X163910514Y-109683496D02*
X163958133Y-109778734D01*
X163767657Y-108826353D02*
X163720038Y-108778734D01*
X163720038Y-108778734D02*
X163672419Y-108683496D01*
X163672419Y-108683496D02*
X163672419Y-108445401D01*
X163672419Y-108445401D02*
X163720038Y-108350163D01*
X163720038Y-108350163D02*
X163767657Y-108302544D01*
X163767657Y-108302544D02*
X163862895Y-108254925D01*
X163862895Y-108254925D02*
X163958133Y-108254925D01*
X163958133Y-108254925D02*
X164100990Y-108302544D01*
X164100990Y-108302544D02*
X164672419Y-108873972D01*
X164672419Y-108873972D02*
X164672419Y-108254925D01*
X163672419Y-107969210D02*
X164672419Y-107635877D01*
X164672419Y-107635877D02*
X163672419Y-107302544D01*
X164767657Y-107207306D02*
X164767657Y-106445401D01*
X164672419Y-106207305D02*
X163672419Y-106207305D01*
X163672419Y-106207305D02*
X163672419Y-105826353D01*
X163672419Y-105826353D02*
X163720038Y-105731115D01*
X163720038Y-105731115D02*
X163767657Y-105683496D01*
X163767657Y-105683496D02*
X163862895Y-105635877D01*
X163862895Y-105635877D02*
X164005752Y-105635877D01*
X164005752Y-105635877D02*
X164100990Y-105683496D01*
X164100990Y-105683496D02*
X164148609Y-105731115D01*
X164148609Y-105731115D02*
X164196228Y-105826353D01*
X164196228Y-105826353D02*
X164196228Y-106207305D01*
X164672419Y-104635877D02*
X164196228Y-104969210D01*
X164672419Y-105207305D02*
X163672419Y-105207305D01*
X163672419Y-105207305D02*
X163672419Y-104826353D01*
X163672419Y-104826353D02*
X163720038Y-104731115D01*
X163720038Y-104731115D02*
X163767657Y-104683496D01*
X163767657Y-104683496D02*
X163862895Y-104635877D01*
X163862895Y-104635877D02*
X164005752Y-104635877D01*
X164005752Y-104635877D02*
X164100990Y-104683496D01*
X164100990Y-104683496D02*
X164148609Y-104731115D01*
X164148609Y-104731115D02*
X164196228Y-104826353D01*
X164196228Y-104826353D02*
X164196228Y-105207305D01*
X163672419Y-104016829D02*
X163672419Y-103826353D01*
X163672419Y-103826353D02*
X163720038Y-103731115D01*
X163720038Y-103731115D02*
X163815276Y-103635877D01*
X163815276Y-103635877D02*
X164005752Y-103588258D01*
X164005752Y-103588258D02*
X164339085Y-103588258D01*
X164339085Y-103588258D02*
X164529561Y-103635877D01*
X164529561Y-103635877D02*
X164624800Y-103731115D01*
X164624800Y-103731115D02*
X164672419Y-103826353D01*
X164672419Y-103826353D02*
X164672419Y-104016829D01*
X164672419Y-104016829D02*
X164624800Y-104112067D01*
X164624800Y-104112067D02*
X164529561Y-104207305D01*
X164529561Y-104207305D02*
X164339085Y-104254924D01*
X164339085Y-104254924D02*
X164005752Y-104254924D01*
X164005752Y-104254924D02*
X163815276Y-104207305D01*
X163815276Y-104207305D02*
X163720038Y-104112067D01*
X163720038Y-104112067D02*
X163672419Y-104016829D01*
X167172419Y-108654925D02*
X167172419Y-109131115D01*
X167172419Y-109131115D02*
X167648609Y-109178734D01*
X167648609Y-109178734D02*
X167600990Y-109131115D01*
X167600990Y-109131115D02*
X167553371Y-109035877D01*
X167553371Y-109035877D02*
X167553371Y-108797782D01*
X167553371Y-108797782D02*
X167600990Y-108702544D01*
X167600990Y-108702544D02*
X167648609Y-108654925D01*
X167648609Y-108654925D02*
X167743847Y-108607306D01*
X167743847Y-108607306D02*
X167981942Y-108607306D01*
X167981942Y-108607306D02*
X168077180Y-108654925D01*
X168077180Y-108654925D02*
X168124800Y-108702544D01*
X168124800Y-108702544D02*
X168172419Y-108797782D01*
X168172419Y-108797782D02*
X168172419Y-109035877D01*
X168172419Y-109035877D02*
X168124800Y-109131115D01*
X168124800Y-109131115D02*
X168077180Y-109178734D01*
X167172419Y-108321591D02*
X168172419Y-107988258D01*
X168172419Y-107988258D02*
X167172419Y-107654925D01*
X168267657Y-107559687D02*
X168267657Y-106797782D01*
X168172419Y-105988258D02*
X167696228Y-106321591D01*
X168172419Y-106559686D02*
X167172419Y-106559686D01*
X167172419Y-106559686D02*
X167172419Y-106178734D01*
X167172419Y-106178734D02*
X167220038Y-106083496D01*
X167220038Y-106083496D02*
X167267657Y-106035877D01*
X167267657Y-106035877D02*
X167362895Y-105988258D01*
X167362895Y-105988258D02*
X167505752Y-105988258D01*
X167505752Y-105988258D02*
X167600990Y-106035877D01*
X167600990Y-106035877D02*
X167648609Y-106083496D01*
X167648609Y-106083496D02*
X167696228Y-106178734D01*
X167696228Y-106178734D02*
X167696228Y-106559686D01*
X167886704Y-105607305D02*
X167886704Y-105131115D01*
X168172419Y-105702543D02*
X167172419Y-105369210D01*
X167172419Y-105369210D02*
X168172419Y-105035877D01*
X167172419Y-104797781D02*
X168172419Y-104559686D01*
X168172419Y-104559686D02*
X167458133Y-104369210D01*
X167458133Y-104369210D02*
X168172419Y-104178734D01*
X168172419Y-104178734D02*
X167172419Y-103940639D01*
X170872419Y-108654925D02*
X170872419Y-109131115D01*
X170872419Y-109131115D02*
X171348609Y-109178734D01*
X171348609Y-109178734D02*
X171300990Y-109131115D01*
X171300990Y-109131115D02*
X171253371Y-109035877D01*
X171253371Y-109035877D02*
X171253371Y-108797782D01*
X171253371Y-108797782D02*
X171300990Y-108702544D01*
X171300990Y-108702544D02*
X171348609Y-108654925D01*
X171348609Y-108654925D02*
X171443847Y-108607306D01*
X171443847Y-108607306D02*
X171681942Y-108607306D01*
X171681942Y-108607306D02*
X171777180Y-108654925D01*
X171777180Y-108654925D02*
X171824800Y-108702544D01*
X171824800Y-108702544D02*
X171872419Y-108797782D01*
X171872419Y-108797782D02*
X171872419Y-109035877D01*
X171872419Y-109035877D02*
X171824800Y-109131115D01*
X171824800Y-109131115D02*
X171777180Y-109178734D01*
X170872419Y-108321591D02*
X171872419Y-107988258D01*
X171872419Y-107988258D02*
X170872419Y-107654925D01*
X171967657Y-107559687D02*
X171967657Y-106797782D01*
X171824800Y-106607305D02*
X171872419Y-106464448D01*
X171872419Y-106464448D02*
X171872419Y-106226353D01*
X171872419Y-106226353D02*
X171824800Y-106131115D01*
X171824800Y-106131115D02*
X171777180Y-106083496D01*
X171777180Y-106083496D02*
X171681942Y-106035877D01*
X171681942Y-106035877D02*
X171586704Y-106035877D01*
X171586704Y-106035877D02*
X171491466Y-106083496D01*
X171491466Y-106083496D02*
X171443847Y-106131115D01*
X171443847Y-106131115D02*
X171396228Y-106226353D01*
X171396228Y-106226353D02*
X171348609Y-106416829D01*
X171348609Y-106416829D02*
X171300990Y-106512067D01*
X171300990Y-106512067D02*
X171253371Y-106559686D01*
X171253371Y-106559686D02*
X171158133Y-106607305D01*
X171158133Y-106607305D02*
X171062895Y-106607305D01*
X171062895Y-106607305D02*
X170967657Y-106559686D01*
X170967657Y-106559686D02*
X170920038Y-106512067D01*
X170920038Y-106512067D02*
X170872419Y-106416829D01*
X170872419Y-106416829D02*
X170872419Y-106178734D01*
X170872419Y-106178734D02*
X170920038Y-106035877D01*
X171396228Y-105416829D02*
X171872419Y-105416829D01*
X170872419Y-105750162D02*
X171396228Y-105416829D01*
X171396228Y-105416829D02*
X170872419Y-105083496D01*
X171824800Y-104797781D02*
X171872419Y-104654924D01*
X171872419Y-104654924D02*
X171872419Y-104416829D01*
X171872419Y-104416829D02*
X171824800Y-104321591D01*
X171824800Y-104321591D02*
X171777180Y-104273972D01*
X171777180Y-104273972D02*
X171681942Y-104226353D01*
X171681942Y-104226353D02*
X171586704Y-104226353D01*
X171586704Y-104226353D02*
X171491466Y-104273972D01*
X171491466Y-104273972D02*
X171443847Y-104321591D01*
X171443847Y-104321591D02*
X171396228Y-104416829D01*
X171396228Y-104416829D02*
X171348609Y-104607305D01*
X171348609Y-104607305D02*
X171300990Y-104702543D01*
X171300990Y-104702543D02*
X171253371Y-104750162D01*
X171253371Y-104750162D02*
X171158133Y-104797781D01*
X171158133Y-104797781D02*
X171062895Y-104797781D01*
X171062895Y-104797781D02*
X170967657Y-104750162D01*
X170967657Y-104750162D02*
X170920038Y-104702543D01*
X170920038Y-104702543D02*
X170872419Y-104607305D01*
X170872419Y-104607305D02*
X170872419Y-104369210D01*
X170872419Y-104369210D02*
X170920038Y-104226353D01*
X174172419Y-106526353D02*
X174172419Y-105907306D01*
X174172419Y-105907306D02*
X174553371Y-106240639D01*
X174553371Y-106240639D02*
X174553371Y-106097782D01*
X174553371Y-106097782D02*
X174600990Y-106002544D01*
X174600990Y-106002544D02*
X174648609Y-105954925D01*
X174648609Y-105954925D02*
X174743847Y-105907306D01*
X174743847Y-105907306D02*
X174981942Y-105907306D01*
X174981942Y-105907306D02*
X175077180Y-105954925D01*
X175077180Y-105954925D02*
X175124800Y-106002544D01*
X175124800Y-106002544D02*
X175172419Y-106097782D01*
X175172419Y-106097782D02*
X175172419Y-106383496D01*
X175172419Y-106383496D02*
X175124800Y-106478734D01*
X175124800Y-106478734D02*
X175077180Y-106526353D01*
X174172419Y-105621591D02*
X175172419Y-105288258D01*
X175172419Y-105288258D02*
X174172419Y-104954925D01*
X174172419Y-104716829D02*
X174172419Y-104097782D01*
X174172419Y-104097782D02*
X174553371Y-104431115D01*
X174553371Y-104431115D02*
X174553371Y-104288258D01*
X174553371Y-104288258D02*
X174600990Y-104193020D01*
X174600990Y-104193020D02*
X174648609Y-104145401D01*
X174648609Y-104145401D02*
X174743847Y-104097782D01*
X174743847Y-104097782D02*
X174981942Y-104097782D01*
X174981942Y-104097782D02*
X175077180Y-104145401D01*
X175077180Y-104145401D02*
X175124800Y-104193020D01*
X175124800Y-104193020D02*
X175172419Y-104288258D01*
X175172419Y-104288258D02*
X175172419Y-104573972D01*
X175172419Y-104573972D02*
X175124800Y-104669210D01*
X175124800Y-104669210D02*
X175077180Y-104716829D01*
X179772419Y-107296115D02*
X178772419Y-107296115D01*
X178772419Y-107296115D02*
X178772419Y-107058020D01*
X178772419Y-107058020D02*
X178820038Y-106915163D01*
X178820038Y-106915163D02*
X178915276Y-106819925D01*
X178915276Y-106819925D02*
X179010514Y-106772306D01*
X179010514Y-106772306D02*
X179200990Y-106724687D01*
X179200990Y-106724687D02*
X179343847Y-106724687D01*
X179343847Y-106724687D02*
X179534323Y-106772306D01*
X179534323Y-106772306D02*
X179629561Y-106819925D01*
X179629561Y-106819925D02*
X179724800Y-106915163D01*
X179724800Y-106915163D02*
X179772419Y-107058020D01*
X179772419Y-107058020D02*
X179772419Y-107296115D01*
X179248609Y-105962782D02*
X179296228Y-105819925D01*
X179296228Y-105819925D02*
X179343847Y-105772306D01*
X179343847Y-105772306D02*
X179439085Y-105724687D01*
X179439085Y-105724687D02*
X179581942Y-105724687D01*
X179581942Y-105724687D02*
X179677180Y-105772306D01*
X179677180Y-105772306D02*
X179724800Y-105819925D01*
X179724800Y-105819925D02*
X179772419Y-105915163D01*
X179772419Y-105915163D02*
X179772419Y-106296115D01*
X179772419Y-106296115D02*
X178772419Y-106296115D01*
X178772419Y-106296115D02*
X178772419Y-105962782D01*
X178772419Y-105962782D02*
X178820038Y-105867544D01*
X178820038Y-105867544D02*
X178867657Y-105819925D01*
X178867657Y-105819925D02*
X178962895Y-105772306D01*
X178962895Y-105772306D02*
X179058133Y-105772306D01*
X179058133Y-105772306D02*
X179153371Y-105819925D01*
X179153371Y-105819925D02*
X179200990Y-105867544D01*
X179200990Y-105867544D02*
X179248609Y-105962782D01*
X179248609Y-105962782D02*
X179248609Y-106296115D01*
X178820038Y-104772306D02*
X178772419Y-104867544D01*
X178772419Y-104867544D02*
X178772419Y-105010401D01*
X178772419Y-105010401D02*
X178820038Y-105153258D01*
X178820038Y-105153258D02*
X178915276Y-105248496D01*
X178915276Y-105248496D02*
X179010514Y-105296115D01*
X179010514Y-105296115D02*
X179200990Y-105343734D01*
X179200990Y-105343734D02*
X179343847Y-105343734D01*
X179343847Y-105343734D02*
X179534323Y-105296115D01*
X179534323Y-105296115D02*
X179629561Y-105248496D01*
X179629561Y-105248496D02*
X179724800Y-105153258D01*
X179724800Y-105153258D02*
X179772419Y-105010401D01*
X179772419Y-105010401D02*
X179772419Y-104915163D01*
X179772419Y-104915163D02*
X179724800Y-104772306D01*
X179724800Y-104772306D02*
X179677180Y-104724687D01*
X179677180Y-104724687D02*
X179343847Y-104724687D01*
X179343847Y-104724687D02*
X179343847Y-104915163D01*
X179105752Y-103867544D02*
X179772419Y-103867544D01*
X178724800Y-104105639D02*
X179439085Y-104343734D01*
X179439085Y-104343734D02*
X179439085Y-103724687D01*
X183272419Y-107296115D02*
X182272419Y-107296115D01*
X182272419Y-107296115D02*
X182272419Y-107058020D01*
X182272419Y-107058020D02*
X182320038Y-106915163D01*
X182320038Y-106915163D02*
X182415276Y-106819925D01*
X182415276Y-106819925D02*
X182510514Y-106772306D01*
X182510514Y-106772306D02*
X182700990Y-106724687D01*
X182700990Y-106724687D02*
X182843847Y-106724687D01*
X182843847Y-106724687D02*
X183034323Y-106772306D01*
X183034323Y-106772306D02*
X183129561Y-106819925D01*
X183129561Y-106819925D02*
X183224800Y-106915163D01*
X183224800Y-106915163D02*
X183272419Y-107058020D01*
X183272419Y-107058020D02*
X183272419Y-107296115D01*
X182748609Y-105962782D02*
X182796228Y-105819925D01*
X182796228Y-105819925D02*
X182843847Y-105772306D01*
X182843847Y-105772306D02*
X182939085Y-105724687D01*
X182939085Y-105724687D02*
X183081942Y-105724687D01*
X183081942Y-105724687D02*
X183177180Y-105772306D01*
X183177180Y-105772306D02*
X183224800Y-105819925D01*
X183224800Y-105819925D02*
X183272419Y-105915163D01*
X183272419Y-105915163D02*
X183272419Y-106296115D01*
X183272419Y-106296115D02*
X182272419Y-106296115D01*
X182272419Y-106296115D02*
X182272419Y-105962782D01*
X182272419Y-105962782D02*
X182320038Y-105867544D01*
X182320038Y-105867544D02*
X182367657Y-105819925D01*
X182367657Y-105819925D02*
X182462895Y-105772306D01*
X182462895Y-105772306D02*
X182558133Y-105772306D01*
X182558133Y-105772306D02*
X182653371Y-105819925D01*
X182653371Y-105819925D02*
X182700990Y-105867544D01*
X182700990Y-105867544D02*
X182748609Y-105962782D01*
X182748609Y-105962782D02*
X182748609Y-106296115D01*
X182320038Y-104772306D02*
X182272419Y-104867544D01*
X182272419Y-104867544D02*
X182272419Y-105010401D01*
X182272419Y-105010401D02*
X182320038Y-105153258D01*
X182320038Y-105153258D02*
X182415276Y-105248496D01*
X182415276Y-105248496D02*
X182510514Y-105296115D01*
X182510514Y-105296115D02*
X182700990Y-105343734D01*
X182700990Y-105343734D02*
X182843847Y-105343734D01*
X182843847Y-105343734D02*
X183034323Y-105296115D01*
X183034323Y-105296115D02*
X183129561Y-105248496D01*
X183129561Y-105248496D02*
X183224800Y-105153258D01*
X183224800Y-105153258D02*
X183272419Y-105010401D01*
X183272419Y-105010401D02*
X183272419Y-104915163D01*
X183272419Y-104915163D02*
X183224800Y-104772306D01*
X183224800Y-104772306D02*
X183177180Y-104724687D01*
X183177180Y-104724687D02*
X182843847Y-104724687D01*
X182843847Y-104724687D02*
X182843847Y-104915163D01*
X182272419Y-104391353D02*
X182272419Y-103772306D01*
X182272419Y-103772306D02*
X182653371Y-104105639D01*
X182653371Y-104105639D02*
X182653371Y-103962782D01*
X182653371Y-103962782D02*
X182700990Y-103867544D01*
X182700990Y-103867544D02*
X182748609Y-103819925D01*
X182748609Y-103819925D02*
X182843847Y-103772306D01*
X182843847Y-103772306D02*
X183081942Y-103772306D01*
X183081942Y-103772306D02*
X183177180Y-103819925D01*
X183177180Y-103819925D02*
X183224800Y-103867544D01*
X183224800Y-103867544D02*
X183272419Y-103962782D01*
X183272419Y-103962782D02*
X183272419Y-104248496D01*
X183272419Y-104248496D02*
X183224800Y-104343734D01*
X183224800Y-104343734D02*
X183177180Y-104391353D01*
X186672419Y-107296115D02*
X185672419Y-107296115D01*
X185672419Y-107296115D02*
X185672419Y-107058020D01*
X185672419Y-107058020D02*
X185720038Y-106915163D01*
X185720038Y-106915163D02*
X185815276Y-106819925D01*
X185815276Y-106819925D02*
X185910514Y-106772306D01*
X185910514Y-106772306D02*
X186100990Y-106724687D01*
X186100990Y-106724687D02*
X186243847Y-106724687D01*
X186243847Y-106724687D02*
X186434323Y-106772306D01*
X186434323Y-106772306D02*
X186529561Y-106819925D01*
X186529561Y-106819925D02*
X186624800Y-106915163D01*
X186624800Y-106915163D02*
X186672419Y-107058020D01*
X186672419Y-107058020D02*
X186672419Y-107296115D01*
X186148609Y-105962782D02*
X186196228Y-105819925D01*
X186196228Y-105819925D02*
X186243847Y-105772306D01*
X186243847Y-105772306D02*
X186339085Y-105724687D01*
X186339085Y-105724687D02*
X186481942Y-105724687D01*
X186481942Y-105724687D02*
X186577180Y-105772306D01*
X186577180Y-105772306D02*
X186624800Y-105819925D01*
X186624800Y-105819925D02*
X186672419Y-105915163D01*
X186672419Y-105915163D02*
X186672419Y-106296115D01*
X186672419Y-106296115D02*
X185672419Y-106296115D01*
X185672419Y-106296115D02*
X185672419Y-105962782D01*
X185672419Y-105962782D02*
X185720038Y-105867544D01*
X185720038Y-105867544D02*
X185767657Y-105819925D01*
X185767657Y-105819925D02*
X185862895Y-105772306D01*
X185862895Y-105772306D02*
X185958133Y-105772306D01*
X185958133Y-105772306D02*
X186053371Y-105819925D01*
X186053371Y-105819925D02*
X186100990Y-105867544D01*
X186100990Y-105867544D02*
X186148609Y-105962782D01*
X186148609Y-105962782D02*
X186148609Y-106296115D01*
X185720038Y-104772306D02*
X185672419Y-104867544D01*
X185672419Y-104867544D02*
X185672419Y-105010401D01*
X185672419Y-105010401D02*
X185720038Y-105153258D01*
X185720038Y-105153258D02*
X185815276Y-105248496D01*
X185815276Y-105248496D02*
X185910514Y-105296115D01*
X185910514Y-105296115D02*
X186100990Y-105343734D01*
X186100990Y-105343734D02*
X186243847Y-105343734D01*
X186243847Y-105343734D02*
X186434323Y-105296115D01*
X186434323Y-105296115D02*
X186529561Y-105248496D01*
X186529561Y-105248496D02*
X186624800Y-105153258D01*
X186624800Y-105153258D02*
X186672419Y-105010401D01*
X186672419Y-105010401D02*
X186672419Y-104915163D01*
X186672419Y-104915163D02*
X186624800Y-104772306D01*
X186624800Y-104772306D02*
X186577180Y-104724687D01*
X186577180Y-104724687D02*
X186243847Y-104724687D01*
X186243847Y-104724687D02*
X186243847Y-104915163D01*
X185767657Y-104343734D02*
X185720038Y-104296115D01*
X185720038Y-104296115D02*
X185672419Y-104200877D01*
X185672419Y-104200877D02*
X185672419Y-103962782D01*
X185672419Y-103962782D02*
X185720038Y-103867544D01*
X185720038Y-103867544D02*
X185767657Y-103819925D01*
X185767657Y-103819925D02*
X185862895Y-103772306D01*
X185862895Y-103772306D02*
X185958133Y-103772306D01*
X185958133Y-103772306D02*
X186100990Y-103819925D01*
X186100990Y-103819925D02*
X186672419Y-104391353D01*
X186672419Y-104391353D02*
X186672419Y-103772306D01*
X190272419Y-107296115D02*
X189272419Y-107296115D01*
X189272419Y-107296115D02*
X189272419Y-107058020D01*
X189272419Y-107058020D02*
X189320038Y-106915163D01*
X189320038Y-106915163D02*
X189415276Y-106819925D01*
X189415276Y-106819925D02*
X189510514Y-106772306D01*
X189510514Y-106772306D02*
X189700990Y-106724687D01*
X189700990Y-106724687D02*
X189843847Y-106724687D01*
X189843847Y-106724687D02*
X190034323Y-106772306D01*
X190034323Y-106772306D02*
X190129561Y-106819925D01*
X190129561Y-106819925D02*
X190224800Y-106915163D01*
X190224800Y-106915163D02*
X190272419Y-107058020D01*
X190272419Y-107058020D02*
X190272419Y-107296115D01*
X189748609Y-105962782D02*
X189796228Y-105819925D01*
X189796228Y-105819925D02*
X189843847Y-105772306D01*
X189843847Y-105772306D02*
X189939085Y-105724687D01*
X189939085Y-105724687D02*
X190081942Y-105724687D01*
X190081942Y-105724687D02*
X190177180Y-105772306D01*
X190177180Y-105772306D02*
X190224800Y-105819925D01*
X190224800Y-105819925D02*
X190272419Y-105915163D01*
X190272419Y-105915163D02*
X190272419Y-106296115D01*
X190272419Y-106296115D02*
X189272419Y-106296115D01*
X189272419Y-106296115D02*
X189272419Y-105962782D01*
X189272419Y-105962782D02*
X189320038Y-105867544D01*
X189320038Y-105867544D02*
X189367657Y-105819925D01*
X189367657Y-105819925D02*
X189462895Y-105772306D01*
X189462895Y-105772306D02*
X189558133Y-105772306D01*
X189558133Y-105772306D02*
X189653371Y-105819925D01*
X189653371Y-105819925D02*
X189700990Y-105867544D01*
X189700990Y-105867544D02*
X189748609Y-105962782D01*
X189748609Y-105962782D02*
X189748609Y-106296115D01*
X189320038Y-104772306D02*
X189272419Y-104867544D01*
X189272419Y-104867544D02*
X189272419Y-105010401D01*
X189272419Y-105010401D02*
X189320038Y-105153258D01*
X189320038Y-105153258D02*
X189415276Y-105248496D01*
X189415276Y-105248496D02*
X189510514Y-105296115D01*
X189510514Y-105296115D02*
X189700990Y-105343734D01*
X189700990Y-105343734D02*
X189843847Y-105343734D01*
X189843847Y-105343734D02*
X190034323Y-105296115D01*
X190034323Y-105296115D02*
X190129561Y-105248496D01*
X190129561Y-105248496D02*
X190224800Y-105153258D01*
X190224800Y-105153258D02*
X190272419Y-105010401D01*
X190272419Y-105010401D02*
X190272419Y-104915163D01*
X190272419Y-104915163D02*
X190224800Y-104772306D01*
X190224800Y-104772306D02*
X190177180Y-104724687D01*
X190177180Y-104724687D02*
X189843847Y-104724687D01*
X189843847Y-104724687D02*
X189843847Y-104915163D01*
X190272419Y-103772306D02*
X190272419Y-104343734D01*
X190272419Y-104058020D02*
X189272419Y-104058020D01*
X189272419Y-104058020D02*
X189415276Y-104153258D01*
X189415276Y-104153258D02*
X189510514Y-104248496D01*
X189510514Y-104248496D02*
X189558133Y-104343734D01*
D11*
X158954819Y-47392857D02*
X158478628Y-47726190D01*
X158954819Y-47964285D02*
X157954819Y-47964285D01*
X157954819Y-47964285D02*
X157954819Y-47583333D01*
X157954819Y-47583333D02*
X158002438Y-47488095D01*
X158002438Y-47488095D02*
X158050057Y-47440476D01*
X158050057Y-47440476D02*
X158145295Y-47392857D01*
X158145295Y-47392857D02*
X158288152Y-47392857D01*
X158288152Y-47392857D02*
X158383390Y-47440476D01*
X158383390Y-47440476D02*
X158431009Y-47488095D01*
X158431009Y-47488095D02*
X158478628Y-47583333D01*
X158478628Y-47583333D02*
X158478628Y-47964285D01*
X157954819Y-47059523D02*
X157954819Y-46440476D01*
X157954819Y-46440476D02*
X158335771Y-46773809D01*
X158335771Y-46773809D02*
X158335771Y-46630952D01*
X158335771Y-46630952D02*
X158383390Y-46535714D01*
X158383390Y-46535714D02*
X158431009Y-46488095D01*
X158431009Y-46488095D02*
X158526247Y-46440476D01*
X158526247Y-46440476D02*
X158764342Y-46440476D01*
X158764342Y-46440476D02*
X158859580Y-46488095D01*
X158859580Y-46488095D02*
X158907200Y-46535714D01*
X158907200Y-46535714D02*
X158954819Y-46630952D01*
X158954819Y-46630952D02*
X158954819Y-46916666D01*
X158954819Y-46916666D02*
X158907200Y-47011904D01*
X158907200Y-47011904D02*
X158859580Y-47059523D01*
X158050057Y-46059523D02*
X158002438Y-46011904D01*
X158002438Y-46011904D02*
X157954819Y-45916666D01*
X157954819Y-45916666D02*
X157954819Y-45678571D01*
X157954819Y-45678571D02*
X158002438Y-45583333D01*
X158002438Y-45583333D02*
X158050057Y-45535714D01*
X158050057Y-45535714D02*
X158145295Y-45488095D01*
X158145295Y-45488095D02*
X158240533Y-45488095D01*
X158240533Y-45488095D02*
X158383390Y-45535714D01*
X158383390Y-45535714D02*
X158954819Y-46107142D01*
X158954819Y-46107142D02*
X158954819Y-45488095D01*
X129931905Y-50504819D02*
X129931905Y-49504819D01*
X129931905Y-49504819D02*
X130170000Y-49504819D01*
X130170000Y-49504819D02*
X130312857Y-49552438D01*
X130312857Y-49552438D02*
X130408095Y-49647676D01*
X130408095Y-49647676D02*
X130455714Y-49742914D01*
X130455714Y-49742914D02*
X130503333Y-49933390D01*
X130503333Y-49933390D02*
X130503333Y-50076247D01*
X130503333Y-50076247D02*
X130455714Y-50266723D01*
X130455714Y-50266723D02*
X130408095Y-50361961D01*
X130408095Y-50361961D02*
X130312857Y-50457200D01*
X130312857Y-50457200D02*
X130170000Y-50504819D01*
X130170000Y-50504819D02*
X129931905Y-50504819D01*
X130884286Y-49600057D02*
X130931905Y-49552438D01*
X130931905Y-49552438D02*
X131027143Y-49504819D01*
X131027143Y-49504819D02*
X131265238Y-49504819D01*
X131265238Y-49504819D02*
X131360476Y-49552438D01*
X131360476Y-49552438D02*
X131408095Y-49600057D01*
X131408095Y-49600057D02*
X131455714Y-49695295D01*
X131455714Y-49695295D02*
X131455714Y-49790533D01*
X131455714Y-49790533D02*
X131408095Y-49933390D01*
X131408095Y-49933390D02*
X130836667Y-50504819D01*
X130836667Y-50504819D02*
X131455714Y-50504819D01*
X135488095Y-50304819D02*
X135488095Y-49304819D01*
X136059523Y-50304819D02*
X135630952Y-49733390D01*
X136059523Y-49304819D02*
X135488095Y-49876247D01*
X94411905Y-71204819D02*
X94411905Y-70204819D01*
X94411905Y-70204819D02*
X94650000Y-70204819D01*
X94650000Y-70204819D02*
X94792857Y-70252438D01*
X94792857Y-70252438D02*
X94888095Y-70347676D01*
X94888095Y-70347676D02*
X94935714Y-70442914D01*
X94935714Y-70442914D02*
X94983333Y-70633390D01*
X94983333Y-70633390D02*
X94983333Y-70776247D01*
X94983333Y-70776247D02*
X94935714Y-70966723D01*
X94935714Y-70966723D02*
X94888095Y-71061961D01*
X94888095Y-71061961D02*
X94792857Y-71157200D01*
X94792857Y-71157200D02*
X94650000Y-71204819D01*
X94650000Y-71204819D02*
X94411905Y-71204819D01*
X95935714Y-71204819D02*
X95364286Y-71204819D01*
X95650000Y-71204819D02*
X95650000Y-70204819D01*
X95650000Y-70204819D02*
X95554762Y-70347676D01*
X95554762Y-70347676D02*
X95459524Y-70442914D01*
X95459524Y-70442914D02*
X95364286Y-70490533D01*
X102057142Y-121454819D02*
X101723809Y-120978628D01*
X101485714Y-121454819D02*
X101485714Y-120454819D01*
X101485714Y-120454819D02*
X101866666Y-120454819D01*
X101866666Y-120454819D02*
X101961904Y-120502438D01*
X101961904Y-120502438D02*
X102009523Y-120550057D01*
X102009523Y-120550057D02*
X102057142Y-120645295D01*
X102057142Y-120645295D02*
X102057142Y-120788152D01*
X102057142Y-120788152D02*
X102009523Y-120883390D01*
X102009523Y-120883390D02*
X101961904Y-120931009D01*
X101961904Y-120931009D02*
X101866666Y-120978628D01*
X101866666Y-120978628D02*
X101485714Y-120978628D01*
X102390476Y-120454819D02*
X103009523Y-120454819D01*
X103009523Y-120454819D02*
X102676190Y-120835771D01*
X102676190Y-120835771D02*
X102819047Y-120835771D01*
X102819047Y-120835771D02*
X102914285Y-120883390D01*
X102914285Y-120883390D02*
X102961904Y-120931009D01*
X102961904Y-120931009D02*
X103009523Y-121026247D01*
X103009523Y-121026247D02*
X103009523Y-121264342D01*
X103009523Y-121264342D02*
X102961904Y-121359580D01*
X102961904Y-121359580D02*
X102914285Y-121407200D01*
X102914285Y-121407200D02*
X102819047Y-121454819D01*
X102819047Y-121454819D02*
X102533333Y-121454819D01*
X102533333Y-121454819D02*
X102438095Y-121407200D01*
X102438095Y-121407200D02*
X102390476Y-121359580D01*
X103628571Y-120454819D02*
X103723809Y-120454819D01*
X103723809Y-120454819D02*
X103819047Y-120502438D01*
X103819047Y-120502438D02*
X103866666Y-120550057D01*
X103866666Y-120550057D02*
X103914285Y-120645295D01*
X103914285Y-120645295D02*
X103961904Y-120835771D01*
X103961904Y-120835771D02*
X103961904Y-121073866D01*
X103961904Y-121073866D02*
X103914285Y-121264342D01*
X103914285Y-121264342D02*
X103866666Y-121359580D01*
X103866666Y-121359580D02*
X103819047Y-121407200D01*
X103819047Y-121407200D02*
X103723809Y-121454819D01*
X103723809Y-121454819D02*
X103628571Y-121454819D01*
X103628571Y-121454819D02*
X103533333Y-121407200D01*
X103533333Y-121407200D02*
X103485714Y-121359580D01*
X103485714Y-121359580D02*
X103438095Y-121264342D01*
X103438095Y-121264342D02*
X103390476Y-121073866D01*
X103390476Y-121073866D02*
X103390476Y-120835771D01*
X103390476Y-120835771D02*
X103438095Y-120645295D01*
X103438095Y-120645295D02*
X103485714Y-120550057D01*
X103485714Y-120550057D02*
X103533333Y-120502438D01*
X103533333Y-120502438D02*
X103628571Y-120454819D01*
X101807142Y-118454819D02*
X101473809Y-117978628D01*
X101235714Y-118454819D02*
X101235714Y-117454819D01*
X101235714Y-117454819D02*
X101616666Y-117454819D01*
X101616666Y-117454819D02*
X101711904Y-117502438D01*
X101711904Y-117502438D02*
X101759523Y-117550057D01*
X101759523Y-117550057D02*
X101807142Y-117645295D01*
X101807142Y-117645295D02*
X101807142Y-117788152D01*
X101807142Y-117788152D02*
X101759523Y-117883390D01*
X101759523Y-117883390D02*
X101711904Y-117931009D01*
X101711904Y-117931009D02*
X101616666Y-117978628D01*
X101616666Y-117978628D02*
X101235714Y-117978628D01*
X102188095Y-117550057D02*
X102235714Y-117502438D01*
X102235714Y-117502438D02*
X102330952Y-117454819D01*
X102330952Y-117454819D02*
X102569047Y-117454819D01*
X102569047Y-117454819D02*
X102664285Y-117502438D01*
X102664285Y-117502438D02*
X102711904Y-117550057D01*
X102711904Y-117550057D02*
X102759523Y-117645295D01*
X102759523Y-117645295D02*
X102759523Y-117740533D01*
X102759523Y-117740533D02*
X102711904Y-117883390D01*
X102711904Y-117883390D02*
X102140476Y-118454819D01*
X102140476Y-118454819D02*
X102759523Y-118454819D01*
X103235714Y-118454819D02*
X103426190Y-118454819D01*
X103426190Y-118454819D02*
X103521428Y-118407200D01*
X103521428Y-118407200D02*
X103569047Y-118359580D01*
X103569047Y-118359580D02*
X103664285Y-118216723D01*
X103664285Y-118216723D02*
X103711904Y-118026247D01*
X103711904Y-118026247D02*
X103711904Y-117645295D01*
X103711904Y-117645295D02*
X103664285Y-117550057D01*
X103664285Y-117550057D02*
X103616666Y-117502438D01*
X103616666Y-117502438D02*
X103521428Y-117454819D01*
X103521428Y-117454819D02*
X103330952Y-117454819D01*
X103330952Y-117454819D02*
X103235714Y-117502438D01*
X103235714Y-117502438D02*
X103188095Y-117550057D01*
X103188095Y-117550057D02*
X103140476Y-117645295D01*
X103140476Y-117645295D02*
X103140476Y-117883390D01*
X103140476Y-117883390D02*
X103188095Y-117978628D01*
X103188095Y-117978628D02*
X103235714Y-118026247D01*
X103235714Y-118026247D02*
X103330952Y-118073866D01*
X103330952Y-118073866D02*
X103521428Y-118073866D01*
X103521428Y-118073866D02*
X103616666Y-118026247D01*
X103616666Y-118026247D02*
X103664285Y-117978628D01*
X103664285Y-117978628D02*
X103711904Y-117883390D01*
X175586647Y-123506900D02*
X175548551Y-123544996D01*
X175548551Y-123544996D02*
X175434266Y-123583091D01*
X175434266Y-123583091D02*
X175358075Y-123583091D01*
X175358075Y-123583091D02*
X175243789Y-123544996D01*
X175243789Y-123544996D02*
X175167599Y-123468805D01*
X175167599Y-123468805D02*
X175129504Y-123392615D01*
X175129504Y-123392615D02*
X175091408Y-123240234D01*
X175091408Y-123240234D02*
X175091408Y-123125948D01*
X175091408Y-123125948D02*
X175129504Y-122973567D01*
X175129504Y-122973567D02*
X175167599Y-122897376D01*
X175167599Y-122897376D02*
X175243789Y-122821186D01*
X175243789Y-122821186D02*
X175358075Y-122783091D01*
X175358075Y-122783091D02*
X175434266Y-122783091D01*
X175434266Y-122783091D02*
X175548551Y-122821186D01*
X175548551Y-122821186D02*
X175586647Y-122859281D01*
X175853313Y-122783091D02*
X176386647Y-122783091D01*
X176386647Y-122783091D02*
X176043789Y-123583091D01*
X158565308Y-59484265D02*
X158603404Y-59522361D01*
X158603404Y-59522361D02*
X158641499Y-59636646D01*
X158641499Y-59636646D02*
X158641499Y-59712837D01*
X158641499Y-59712837D02*
X158603404Y-59827123D01*
X158603404Y-59827123D02*
X158527213Y-59903313D01*
X158527213Y-59903313D02*
X158451023Y-59941408D01*
X158451023Y-59941408D02*
X158298642Y-59979504D01*
X158298642Y-59979504D02*
X158184356Y-59979504D01*
X158184356Y-59979504D02*
X158031975Y-59941408D01*
X158031975Y-59941408D02*
X157955784Y-59903313D01*
X157955784Y-59903313D02*
X157879594Y-59827123D01*
X157879594Y-59827123D02*
X157841499Y-59712837D01*
X157841499Y-59712837D02*
X157841499Y-59636646D01*
X157841499Y-59636646D02*
X157879594Y-59522361D01*
X157879594Y-59522361D02*
X157917689Y-59484265D01*
X157917689Y-59179504D02*
X157879594Y-59141408D01*
X157879594Y-59141408D02*
X157841499Y-59065218D01*
X157841499Y-59065218D02*
X157841499Y-58874742D01*
X157841499Y-58874742D02*
X157879594Y-58798551D01*
X157879594Y-58798551D02*
X157917689Y-58760456D01*
X157917689Y-58760456D02*
X157993880Y-58722361D01*
X157993880Y-58722361D02*
X158070070Y-58722361D01*
X158070070Y-58722361D02*
X158184356Y-58760456D01*
X158184356Y-58760456D02*
X158641499Y-59217599D01*
X158641499Y-59217599D02*
X158641499Y-58722361D01*
X158641499Y-57960456D02*
X158641499Y-58417599D01*
X158641499Y-58189027D02*
X157841499Y-58189027D01*
X157841499Y-58189027D02*
X157955784Y-58265218D01*
X157955784Y-58265218D02*
X158031975Y-58341408D01*
X158031975Y-58341408D02*
X158070070Y-58417599D01*
X145636104Y-52764285D02*
X145674200Y-52802381D01*
X145674200Y-52802381D02*
X145712295Y-52916666D01*
X145712295Y-52916666D02*
X145712295Y-52992857D01*
X145712295Y-52992857D02*
X145674200Y-53107143D01*
X145674200Y-53107143D02*
X145598009Y-53183333D01*
X145598009Y-53183333D02*
X145521819Y-53221428D01*
X145521819Y-53221428D02*
X145369438Y-53259524D01*
X145369438Y-53259524D02*
X145255152Y-53259524D01*
X145255152Y-53259524D02*
X145102771Y-53221428D01*
X145102771Y-53221428D02*
X145026580Y-53183333D01*
X145026580Y-53183333D02*
X144950390Y-53107143D01*
X144950390Y-53107143D02*
X144912295Y-52992857D01*
X144912295Y-52992857D02*
X144912295Y-52916666D01*
X144912295Y-52916666D02*
X144950390Y-52802381D01*
X144950390Y-52802381D02*
X144988485Y-52764285D01*
X145712295Y-52002381D02*
X145712295Y-52459524D01*
X145712295Y-52230952D02*
X144912295Y-52230952D01*
X144912295Y-52230952D02*
X145026580Y-52307143D01*
X145026580Y-52307143D02*
X145102771Y-52383333D01*
X145102771Y-52383333D02*
X145140866Y-52459524D01*
X144912295Y-51507142D02*
X144912295Y-51430952D01*
X144912295Y-51430952D02*
X144950390Y-51354761D01*
X144950390Y-51354761D02*
X144988485Y-51316666D01*
X144988485Y-51316666D02*
X145064676Y-51278571D01*
X145064676Y-51278571D02*
X145217057Y-51240476D01*
X145217057Y-51240476D02*
X145407533Y-51240476D01*
X145407533Y-51240476D02*
X145559914Y-51278571D01*
X145559914Y-51278571D02*
X145636104Y-51316666D01*
X145636104Y-51316666D02*
X145674200Y-51354761D01*
X145674200Y-51354761D02*
X145712295Y-51430952D01*
X145712295Y-51430952D02*
X145712295Y-51507142D01*
X145712295Y-51507142D02*
X145674200Y-51583333D01*
X145674200Y-51583333D02*
X145636104Y-51621428D01*
X145636104Y-51621428D02*
X145559914Y-51659523D01*
X145559914Y-51659523D02*
X145407533Y-51697619D01*
X145407533Y-51697619D02*
X145217057Y-51697619D01*
X145217057Y-51697619D02*
X145064676Y-51659523D01*
X145064676Y-51659523D02*
X144988485Y-51621428D01*
X144988485Y-51621428D02*
X144950390Y-51583333D01*
X144950390Y-51583333D02*
X144912295Y-51507142D01*
X158436104Y-55133332D02*
X158474200Y-55171428D01*
X158474200Y-55171428D02*
X158512295Y-55285713D01*
X158512295Y-55285713D02*
X158512295Y-55361904D01*
X158512295Y-55361904D02*
X158474200Y-55476190D01*
X158474200Y-55476190D02*
X158398009Y-55552380D01*
X158398009Y-55552380D02*
X158321819Y-55590475D01*
X158321819Y-55590475D02*
X158169438Y-55628571D01*
X158169438Y-55628571D02*
X158055152Y-55628571D01*
X158055152Y-55628571D02*
X157902771Y-55590475D01*
X157902771Y-55590475D02*
X157826580Y-55552380D01*
X157826580Y-55552380D02*
X157750390Y-55476190D01*
X157750390Y-55476190D02*
X157712295Y-55361904D01*
X157712295Y-55361904D02*
X157712295Y-55285713D01*
X157712295Y-55285713D02*
X157750390Y-55171428D01*
X157750390Y-55171428D02*
X157788485Y-55133332D01*
X157712295Y-54409523D02*
X157712295Y-54790475D01*
X157712295Y-54790475D02*
X158093247Y-54828571D01*
X158093247Y-54828571D02*
X158055152Y-54790475D01*
X158055152Y-54790475D02*
X158017057Y-54714285D01*
X158017057Y-54714285D02*
X158017057Y-54523809D01*
X158017057Y-54523809D02*
X158055152Y-54447618D01*
X158055152Y-54447618D02*
X158093247Y-54409523D01*
X158093247Y-54409523D02*
X158169438Y-54371428D01*
X158169438Y-54371428D02*
X158359914Y-54371428D01*
X158359914Y-54371428D02*
X158436104Y-54409523D01*
X158436104Y-54409523D02*
X158474200Y-54447618D01*
X158474200Y-54447618D02*
X158512295Y-54523809D01*
X158512295Y-54523809D02*
X158512295Y-54714285D01*
X158512295Y-54714285D02*
X158474200Y-54790475D01*
X158474200Y-54790475D02*
X158436104Y-54828571D01*
X116506900Y-53413352D02*
X116544996Y-53451448D01*
X116544996Y-53451448D02*
X116583091Y-53565733D01*
X116583091Y-53565733D02*
X116583091Y-53641924D01*
X116583091Y-53641924D02*
X116544996Y-53756210D01*
X116544996Y-53756210D02*
X116468805Y-53832400D01*
X116468805Y-53832400D02*
X116392615Y-53870495D01*
X116392615Y-53870495D02*
X116240234Y-53908591D01*
X116240234Y-53908591D02*
X116125948Y-53908591D01*
X116125948Y-53908591D02*
X115973567Y-53870495D01*
X115973567Y-53870495D02*
X115897376Y-53832400D01*
X115897376Y-53832400D02*
X115821186Y-53756210D01*
X115821186Y-53756210D02*
X115783091Y-53641924D01*
X115783091Y-53641924D02*
X115783091Y-53565733D01*
X115783091Y-53565733D02*
X115821186Y-53451448D01*
X115821186Y-53451448D02*
X115859281Y-53413352D01*
X116049757Y-52727638D02*
X116583091Y-52727638D01*
X115744996Y-52918114D02*
X116316424Y-53108591D01*
X116316424Y-53108591D02*
X116316424Y-52613352D01*
X95756900Y-94544305D02*
X95794996Y-94582401D01*
X95794996Y-94582401D02*
X95833091Y-94696686D01*
X95833091Y-94696686D02*
X95833091Y-94772877D01*
X95833091Y-94772877D02*
X95794996Y-94887163D01*
X95794996Y-94887163D02*
X95718805Y-94963353D01*
X95718805Y-94963353D02*
X95642615Y-95001448D01*
X95642615Y-95001448D02*
X95490234Y-95039544D01*
X95490234Y-95039544D02*
X95375948Y-95039544D01*
X95375948Y-95039544D02*
X95223567Y-95001448D01*
X95223567Y-95001448D02*
X95147376Y-94963353D01*
X95147376Y-94963353D02*
X95071186Y-94887163D01*
X95071186Y-94887163D02*
X95033091Y-94772877D01*
X95033091Y-94772877D02*
X95033091Y-94696686D01*
X95033091Y-94696686D02*
X95071186Y-94582401D01*
X95071186Y-94582401D02*
X95109281Y-94544305D01*
X95833091Y-93782401D02*
X95833091Y-94239544D01*
X95833091Y-94010972D02*
X95033091Y-94010972D01*
X95033091Y-94010972D02*
X95147376Y-94087163D01*
X95147376Y-94087163D02*
X95223567Y-94163353D01*
X95223567Y-94163353D02*
X95261662Y-94239544D01*
X95833091Y-93401448D02*
X95833091Y-93249067D01*
X95833091Y-93249067D02*
X95794996Y-93172877D01*
X95794996Y-93172877D02*
X95756900Y-93134781D01*
X95756900Y-93134781D02*
X95642615Y-93058591D01*
X95642615Y-93058591D02*
X95490234Y-93020496D01*
X95490234Y-93020496D02*
X95185472Y-93020496D01*
X95185472Y-93020496D02*
X95109281Y-93058591D01*
X95109281Y-93058591D02*
X95071186Y-93096686D01*
X95071186Y-93096686D02*
X95033091Y-93172877D01*
X95033091Y-93172877D02*
X95033091Y-93325258D01*
X95033091Y-93325258D02*
X95071186Y-93401448D01*
X95071186Y-93401448D02*
X95109281Y-93439543D01*
X95109281Y-93439543D02*
X95185472Y-93477639D01*
X95185472Y-93477639D02*
X95375948Y-93477639D01*
X95375948Y-93477639D02*
X95452138Y-93439543D01*
X95452138Y-93439543D02*
X95490234Y-93401448D01*
X95490234Y-93401448D02*
X95528329Y-93325258D01*
X95528329Y-93325258D02*
X95528329Y-93172877D01*
X95528329Y-93172877D02*
X95490234Y-93096686D01*
X95490234Y-93096686D02*
X95452138Y-93058591D01*
X95452138Y-93058591D02*
X95375948Y-93020496D01*
X147586104Y-64544305D02*
X147624200Y-64582401D01*
X147624200Y-64582401D02*
X147662295Y-64696686D01*
X147662295Y-64696686D02*
X147662295Y-64772877D01*
X147662295Y-64772877D02*
X147624200Y-64887163D01*
X147624200Y-64887163D02*
X147548009Y-64963353D01*
X147548009Y-64963353D02*
X147471819Y-65001448D01*
X147471819Y-65001448D02*
X147319438Y-65039544D01*
X147319438Y-65039544D02*
X147205152Y-65039544D01*
X147205152Y-65039544D02*
X147052771Y-65001448D01*
X147052771Y-65001448D02*
X146976580Y-64963353D01*
X146976580Y-64963353D02*
X146900390Y-64887163D01*
X146900390Y-64887163D02*
X146862295Y-64772877D01*
X146862295Y-64772877D02*
X146862295Y-64696686D01*
X146862295Y-64696686D02*
X146900390Y-64582401D01*
X146900390Y-64582401D02*
X146938485Y-64544305D01*
X147662295Y-63782401D02*
X147662295Y-64239544D01*
X147662295Y-64010972D02*
X146862295Y-64010972D01*
X146862295Y-64010972D02*
X146976580Y-64087163D01*
X146976580Y-64087163D02*
X147052771Y-64163353D01*
X147052771Y-64163353D02*
X147090866Y-64239544D01*
X147128961Y-63096686D02*
X147662295Y-63096686D01*
X146824200Y-63287162D02*
X147395628Y-63477639D01*
X147395628Y-63477639D02*
X147395628Y-62982400D01*
X146036647Y-109256900D02*
X145998551Y-109294996D01*
X145998551Y-109294996D02*
X145884266Y-109333091D01*
X145884266Y-109333091D02*
X145808075Y-109333091D01*
X145808075Y-109333091D02*
X145693789Y-109294996D01*
X145693789Y-109294996D02*
X145617599Y-109218805D01*
X145617599Y-109218805D02*
X145579504Y-109142615D01*
X145579504Y-109142615D02*
X145541408Y-108990234D01*
X145541408Y-108990234D02*
X145541408Y-108875948D01*
X145541408Y-108875948D02*
X145579504Y-108723567D01*
X145579504Y-108723567D02*
X145617599Y-108647376D01*
X145617599Y-108647376D02*
X145693789Y-108571186D01*
X145693789Y-108571186D02*
X145808075Y-108533091D01*
X145808075Y-108533091D02*
X145884266Y-108533091D01*
X145884266Y-108533091D02*
X145998551Y-108571186D01*
X145998551Y-108571186D02*
X146036647Y-108609281D01*
X146722361Y-108533091D02*
X146569980Y-108533091D01*
X146569980Y-108533091D02*
X146493789Y-108571186D01*
X146493789Y-108571186D02*
X146455694Y-108609281D01*
X146455694Y-108609281D02*
X146379504Y-108723567D01*
X146379504Y-108723567D02*
X146341408Y-108875948D01*
X146341408Y-108875948D02*
X146341408Y-109180710D01*
X146341408Y-109180710D02*
X146379504Y-109256900D01*
X146379504Y-109256900D02*
X146417599Y-109294996D01*
X146417599Y-109294996D02*
X146493789Y-109333091D01*
X146493789Y-109333091D02*
X146646170Y-109333091D01*
X146646170Y-109333091D02*
X146722361Y-109294996D01*
X146722361Y-109294996D02*
X146760456Y-109256900D01*
X146760456Y-109256900D02*
X146798551Y-109180710D01*
X146798551Y-109180710D02*
X146798551Y-108990234D01*
X146798551Y-108990234D02*
X146760456Y-108914043D01*
X146760456Y-108914043D02*
X146722361Y-108875948D01*
X146722361Y-108875948D02*
X146646170Y-108837853D01*
X146646170Y-108837853D02*
X146493789Y-108837853D01*
X146493789Y-108837853D02*
X146417599Y-108875948D01*
X146417599Y-108875948D02*
X146379504Y-108914043D01*
X146379504Y-108914043D02*
X146341408Y-108990234D01*
X98506900Y-81913352D02*
X98544996Y-81951448D01*
X98544996Y-81951448D02*
X98583091Y-82065733D01*
X98583091Y-82065733D02*
X98583091Y-82141924D01*
X98583091Y-82141924D02*
X98544996Y-82256210D01*
X98544996Y-82256210D02*
X98468805Y-82332400D01*
X98468805Y-82332400D02*
X98392615Y-82370495D01*
X98392615Y-82370495D02*
X98240234Y-82408591D01*
X98240234Y-82408591D02*
X98125948Y-82408591D01*
X98125948Y-82408591D02*
X97973567Y-82370495D01*
X97973567Y-82370495D02*
X97897376Y-82332400D01*
X97897376Y-82332400D02*
X97821186Y-82256210D01*
X97821186Y-82256210D02*
X97783091Y-82141924D01*
X97783091Y-82141924D02*
X97783091Y-82065733D01*
X97783091Y-82065733D02*
X97821186Y-81951448D01*
X97821186Y-81951448D02*
X97859281Y-81913352D01*
X97859281Y-81608591D02*
X97821186Y-81570495D01*
X97821186Y-81570495D02*
X97783091Y-81494305D01*
X97783091Y-81494305D02*
X97783091Y-81303829D01*
X97783091Y-81303829D02*
X97821186Y-81227638D01*
X97821186Y-81227638D02*
X97859281Y-81189543D01*
X97859281Y-81189543D02*
X97935472Y-81151448D01*
X97935472Y-81151448D02*
X98011662Y-81151448D01*
X98011662Y-81151448D02*
X98125948Y-81189543D01*
X98125948Y-81189543D02*
X98583091Y-81646686D01*
X98583091Y-81646686D02*
X98583091Y-81151448D01*
X163054819Y-102238094D02*
X162054819Y-102238094D01*
X162054819Y-102238094D02*
X162054819Y-101999999D01*
X162054819Y-101999999D02*
X162102438Y-101857142D01*
X162102438Y-101857142D02*
X162197676Y-101761904D01*
X162197676Y-101761904D02*
X162292914Y-101714285D01*
X162292914Y-101714285D02*
X162483390Y-101666666D01*
X162483390Y-101666666D02*
X162626247Y-101666666D01*
X162626247Y-101666666D02*
X162816723Y-101714285D01*
X162816723Y-101714285D02*
X162911961Y-101761904D01*
X162911961Y-101761904D02*
X163007200Y-101857142D01*
X163007200Y-101857142D02*
X163054819Y-101999999D01*
X163054819Y-101999999D02*
X163054819Y-102238094D01*
X163054819Y-101190475D02*
X163054819Y-100999999D01*
X163054819Y-100999999D02*
X163007200Y-100904761D01*
X163007200Y-100904761D02*
X162959580Y-100857142D01*
X162959580Y-100857142D02*
X162816723Y-100761904D01*
X162816723Y-100761904D02*
X162626247Y-100714285D01*
X162626247Y-100714285D02*
X162245295Y-100714285D01*
X162245295Y-100714285D02*
X162150057Y-100761904D01*
X162150057Y-100761904D02*
X162102438Y-100809523D01*
X162102438Y-100809523D02*
X162054819Y-100904761D01*
X162054819Y-100904761D02*
X162054819Y-101095237D01*
X162054819Y-101095237D02*
X162102438Y-101190475D01*
X162102438Y-101190475D02*
X162150057Y-101238094D01*
X162150057Y-101238094D02*
X162245295Y-101285713D01*
X162245295Y-101285713D02*
X162483390Y-101285713D01*
X162483390Y-101285713D02*
X162578628Y-101238094D01*
X162578628Y-101238094D02*
X162626247Y-101190475D01*
X162626247Y-101190475D02*
X162673866Y-101095237D01*
X162673866Y-101095237D02*
X162673866Y-100904761D01*
X162673866Y-100904761D02*
X162626247Y-100809523D01*
X162626247Y-100809523D02*
X162578628Y-100761904D01*
X162578628Y-100761904D02*
X162483390Y-100714285D01*
X187838095Y-59402819D02*
X188409523Y-59402819D01*
X188123809Y-60402819D02*
X188123809Y-59402819D01*
X188742857Y-60402819D02*
X188742857Y-59402819D01*
X188742857Y-59402819D02*
X189123809Y-59402819D01*
X189123809Y-59402819D02*
X189219047Y-59450438D01*
X189219047Y-59450438D02*
X189266666Y-59498057D01*
X189266666Y-59498057D02*
X189314285Y-59593295D01*
X189314285Y-59593295D02*
X189314285Y-59736152D01*
X189314285Y-59736152D02*
X189266666Y-59831390D01*
X189266666Y-59831390D02*
X189219047Y-59879009D01*
X189219047Y-59879009D02*
X189123809Y-59926628D01*
X189123809Y-59926628D02*
X188742857Y-59926628D01*
X189647619Y-59402819D02*
X190314285Y-59402819D01*
X190314285Y-59402819D02*
X189885714Y-60402819D01*
X188607142Y-121404819D02*
X188273809Y-120928628D01*
X188035714Y-121404819D02*
X188035714Y-120404819D01*
X188035714Y-120404819D02*
X188416666Y-120404819D01*
X188416666Y-120404819D02*
X188511904Y-120452438D01*
X188511904Y-120452438D02*
X188559523Y-120500057D01*
X188559523Y-120500057D02*
X188607142Y-120595295D01*
X188607142Y-120595295D02*
X188607142Y-120738152D01*
X188607142Y-120738152D02*
X188559523Y-120833390D01*
X188559523Y-120833390D02*
X188511904Y-120881009D01*
X188511904Y-120881009D02*
X188416666Y-120928628D01*
X188416666Y-120928628D02*
X188035714Y-120928628D01*
X188940476Y-120404819D02*
X189559523Y-120404819D01*
X189559523Y-120404819D02*
X189226190Y-120785771D01*
X189226190Y-120785771D02*
X189369047Y-120785771D01*
X189369047Y-120785771D02*
X189464285Y-120833390D01*
X189464285Y-120833390D02*
X189511904Y-120881009D01*
X189511904Y-120881009D02*
X189559523Y-120976247D01*
X189559523Y-120976247D02*
X189559523Y-121214342D01*
X189559523Y-121214342D02*
X189511904Y-121309580D01*
X189511904Y-121309580D02*
X189464285Y-121357200D01*
X189464285Y-121357200D02*
X189369047Y-121404819D01*
X189369047Y-121404819D02*
X189083333Y-121404819D01*
X189083333Y-121404819D02*
X188988095Y-121357200D01*
X188988095Y-121357200D02*
X188940476Y-121309580D01*
X189892857Y-120404819D02*
X190559523Y-120404819D01*
X190559523Y-120404819D02*
X190130952Y-121404819D01*
X166554819Y-102714285D02*
X165554819Y-102714285D01*
X165554819Y-102714285D02*
X165554819Y-102476190D01*
X165554819Y-102476190D02*
X165602438Y-102333333D01*
X165602438Y-102333333D02*
X165697676Y-102238095D01*
X165697676Y-102238095D02*
X165792914Y-102190476D01*
X165792914Y-102190476D02*
X165983390Y-102142857D01*
X165983390Y-102142857D02*
X166126247Y-102142857D01*
X166126247Y-102142857D02*
X166316723Y-102190476D01*
X166316723Y-102190476D02*
X166411961Y-102238095D01*
X166411961Y-102238095D02*
X166507200Y-102333333D01*
X166507200Y-102333333D02*
X166554819Y-102476190D01*
X166554819Y-102476190D02*
X166554819Y-102714285D01*
X166554819Y-101190476D02*
X166554819Y-101761904D01*
X166554819Y-101476190D02*
X165554819Y-101476190D01*
X165554819Y-101476190D02*
X165697676Y-101571428D01*
X165697676Y-101571428D02*
X165792914Y-101666666D01*
X165792914Y-101666666D02*
X165840533Y-101761904D01*
X165554819Y-100571428D02*
X165554819Y-100476190D01*
X165554819Y-100476190D02*
X165602438Y-100380952D01*
X165602438Y-100380952D02*
X165650057Y-100333333D01*
X165650057Y-100333333D02*
X165745295Y-100285714D01*
X165745295Y-100285714D02*
X165935771Y-100238095D01*
X165935771Y-100238095D02*
X166173866Y-100238095D01*
X166173866Y-100238095D02*
X166364342Y-100285714D01*
X166364342Y-100285714D02*
X166459580Y-100333333D01*
X166459580Y-100333333D02*
X166507200Y-100380952D01*
X166507200Y-100380952D02*
X166554819Y-100476190D01*
X166554819Y-100476190D02*
X166554819Y-100571428D01*
X166554819Y-100571428D02*
X166507200Y-100666666D01*
X166507200Y-100666666D02*
X166459580Y-100714285D01*
X166459580Y-100714285D02*
X166364342Y-100761904D01*
X166364342Y-100761904D02*
X166173866Y-100809523D01*
X166173866Y-100809523D02*
X165935771Y-100809523D01*
X165935771Y-100809523D02*
X165745295Y-100761904D01*
X165745295Y-100761904D02*
X165650057Y-100714285D01*
X165650057Y-100714285D02*
X165602438Y-100666666D01*
X165602438Y-100666666D02*
X165554819Y-100571428D01*
X96952819Y-63011904D02*
X96952819Y-62440476D01*
X97952819Y-62726190D02*
X96952819Y-62726190D01*
X97952819Y-62107142D02*
X96952819Y-62107142D01*
X96952819Y-62107142D02*
X96952819Y-61726190D01*
X96952819Y-61726190D02*
X97000438Y-61630952D01*
X97000438Y-61630952D02*
X97048057Y-61583333D01*
X97048057Y-61583333D02*
X97143295Y-61535714D01*
X97143295Y-61535714D02*
X97286152Y-61535714D01*
X97286152Y-61535714D02*
X97381390Y-61583333D01*
X97381390Y-61583333D02*
X97429009Y-61630952D01*
X97429009Y-61630952D02*
X97476628Y-61726190D01*
X97476628Y-61726190D02*
X97476628Y-62107142D01*
X96952819Y-61202380D02*
X96952819Y-60583333D01*
X96952819Y-60583333D02*
X97333771Y-60916666D01*
X97333771Y-60916666D02*
X97333771Y-60773809D01*
X97333771Y-60773809D02*
X97381390Y-60678571D01*
X97381390Y-60678571D02*
X97429009Y-60630952D01*
X97429009Y-60630952D02*
X97524247Y-60583333D01*
X97524247Y-60583333D02*
X97762342Y-60583333D01*
X97762342Y-60583333D02*
X97857580Y-60630952D01*
X97857580Y-60630952D02*
X97905200Y-60678571D01*
X97905200Y-60678571D02*
X97952819Y-60773809D01*
X97952819Y-60773809D02*
X97952819Y-61059523D01*
X97952819Y-61059523D02*
X97905200Y-61154761D01*
X97905200Y-61154761D02*
X97857580Y-61202380D01*
X132954819Y-107688094D02*
X132954819Y-107116666D01*
X133954819Y-107402380D02*
X132954819Y-107402380D01*
X133954819Y-106783332D02*
X132954819Y-106783332D01*
X132954819Y-106783332D02*
X132954819Y-106402380D01*
X132954819Y-106402380D02*
X133002438Y-106307142D01*
X133002438Y-106307142D02*
X133050057Y-106259523D01*
X133050057Y-106259523D02*
X133145295Y-106211904D01*
X133145295Y-106211904D02*
X133288152Y-106211904D01*
X133288152Y-106211904D02*
X133383390Y-106259523D01*
X133383390Y-106259523D02*
X133431009Y-106307142D01*
X133431009Y-106307142D02*
X133478628Y-106402380D01*
X133478628Y-106402380D02*
X133478628Y-106783332D01*
X133954819Y-105259523D02*
X133954819Y-105830951D01*
X133954819Y-105545237D02*
X132954819Y-105545237D01*
X132954819Y-105545237D02*
X133097676Y-105640475D01*
X133097676Y-105640475D02*
X133192914Y-105735713D01*
X133192914Y-105735713D02*
X133240533Y-105830951D01*
X133383390Y-104688094D02*
X133335771Y-104783332D01*
X133335771Y-104783332D02*
X133288152Y-104830951D01*
X133288152Y-104830951D02*
X133192914Y-104878570D01*
X133192914Y-104878570D02*
X133145295Y-104878570D01*
X133145295Y-104878570D02*
X133050057Y-104830951D01*
X133050057Y-104830951D02*
X133002438Y-104783332D01*
X133002438Y-104783332D02*
X132954819Y-104688094D01*
X132954819Y-104688094D02*
X132954819Y-104497618D01*
X132954819Y-104497618D02*
X133002438Y-104402380D01*
X133002438Y-104402380D02*
X133050057Y-104354761D01*
X133050057Y-104354761D02*
X133145295Y-104307142D01*
X133145295Y-104307142D02*
X133192914Y-104307142D01*
X133192914Y-104307142D02*
X133288152Y-104354761D01*
X133288152Y-104354761D02*
X133335771Y-104402380D01*
X133335771Y-104402380D02*
X133383390Y-104497618D01*
X133383390Y-104497618D02*
X133383390Y-104688094D01*
X133383390Y-104688094D02*
X133431009Y-104783332D01*
X133431009Y-104783332D02*
X133478628Y-104830951D01*
X133478628Y-104830951D02*
X133573866Y-104878570D01*
X133573866Y-104878570D02*
X133764342Y-104878570D01*
X133764342Y-104878570D02*
X133859580Y-104830951D01*
X133859580Y-104830951D02*
X133907200Y-104783332D01*
X133907200Y-104783332D02*
X133954819Y-104688094D01*
X133954819Y-104688094D02*
X133954819Y-104497618D01*
X133954819Y-104497618D02*
X133907200Y-104402380D01*
X133907200Y-104402380D02*
X133859580Y-104354761D01*
X133859580Y-104354761D02*
X133764342Y-104307142D01*
X133764342Y-104307142D02*
X133573866Y-104307142D01*
X133573866Y-104307142D02*
X133478628Y-104354761D01*
X133478628Y-104354761D02*
X133431009Y-104402380D01*
X133431009Y-104402380D02*
X133383390Y-104497618D01*
X189107142Y-72854819D02*
X188773809Y-72378628D01*
X188535714Y-72854819D02*
X188535714Y-71854819D01*
X188535714Y-71854819D02*
X188916666Y-71854819D01*
X188916666Y-71854819D02*
X189011904Y-71902438D01*
X189011904Y-71902438D02*
X189059523Y-71950057D01*
X189059523Y-71950057D02*
X189107142Y-72045295D01*
X189107142Y-72045295D02*
X189107142Y-72188152D01*
X189107142Y-72188152D02*
X189059523Y-72283390D01*
X189059523Y-72283390D02*
X189011904Y-72331009D01*
X189011904Y-72331009D02*
X188916666Y-72378628D01*
X188916666Y-72378628D02*
X188535714Y-72378628D01*
X189440476Y-71854819D02*
X190059523Y-71854819D01*
X190059523Y-71854819D02*
X189726190Y-72235771D01*
X189726190Y-72235771D02*
X189869047Y-72235771D01*
X189869047Y-72235771D02*
X189964285Y-72283390D01*
X189964285Y-72283390D02*
X190011904Y-72331009D01*
X190011904Y-72331009D02*
X190059523Y-72426247D01*
X190059523Y-72426247D02*
X190059523Y-72664342D01*
X190059523Y-72664342D02*
X190011904Y-72759580D01*
X190011904Y-72759580D02*
X189964285Y-72807200D01*
X189964285Y-72807200D02*
X189869047Y-72854819D01*
X189869047Y-72854819D02*
X189583333Y-72854819D01*
X189583333Y-72854819D02*
X189488095Y-72807200D01*
X189488095Y-72807200D02*
X189440476Y-72759580D01*
X191011904Y-72854819D02*
X190440476Y-72854819D01*
X190726190Y-72854819D02*
X190726190Y-71854819D01*
X190726190Y-71854819D02*
X190630952Y-71997676D01*
X190630952Y-71997676D02*
X190535714Y-72092914D01*
X190535714Y-72092914D02*
X190440476Y-72140533D01*
X120454819Y-107688094D02*
X120454819Y-107116666D01*
X121454819Y-107402380D02*
X120454819Y-107402380D01*
X121454819Y-106783332D02*
X120454819Y-106783332D01*
X120454819Y-106783332D02*
X120454819Y-106402380D01*
X120454819Y-106402380D02*
X120502438Y-106307142D01*
X120502438Y-106307142D02*
X120550057Y-106259523D01*
X120550057Y-106259523D02*
X120645295Y-106211904D01*
X120645295Y-106211904D02*
X120788152Y-106211904D01*
X120788152Y-106211904D02*
X120883390Y-106259523D01*
X120883390Y-106259523D02*
X120931009Y-106307142D01*
X120931009Y-106307142D02*
X120978628Y-106402380D01*
X120978628Y-106402380D02*
X120978628Y-106783332D01*
X120550057Y-105830951D02*
X120502438Y-105783332D01*
X120502438Y-105783332D02*
X120454819Y-105688094D01*
X120454819Y-105688094D02*
X120454819Y-105449999D01*
X120454819Y-105449999D02*
X120502438Y-105354761D01*
X120502438Y-105354761D02*
X120550057Y-105307142D01*
X120550057Y-105307142D02*
X120645295Y-105259523D01*
X120645295Y-105259523D02*
X120740533Y-105259523D01*
X120740533Y-105259523D02*
X120883390Y-105307142D01*
X120883390Y-105307142D02*
X121454819Y-105878570D01*
X121454819Y-105878570D02*
X121454819Y-105259523D01*
X120454819Y-104926189D02*
X120454819Y-104307142D01*
X120454819Y-104307142D02*
X120835771Y-104640475D01*
X120835771Y-104640475D02*
X120835771Y-104497618D01*
X120835771Y-104497618D02*
X120883390Y-104402380D01*
X120883390Y-104402380D02*
X120931009Y-104354761D01*
X120931009Y-104354761D02*
X121026247Y-104307142D01*
X121026247Y-104307142D02*
X121264342Y-104307142D01*
X121264342Y-104307142D02*
X121359580Y-104354761D01*
X121359580Y-104354761D02*
X121407200Y-104402380D01*
X121407200Y-104402380D02*
X121454819Y-104497618D01*
X121454819Y-104497618D02*
X121454819Y-104783332D01*
X121454819Y-104783332D02*
X121407200Y-104878570D01*
X121407200Y-104878570D02*
X121359580Y-104926189D01*
X187261905Y-62306819D02*
X187833333Y-62306819D01*
X187547619Y-63306819D02*
X187547619Y-62306819D01*
X188166667Y-63306819D02*
X188166667Y-62306819D01*
X188166667Y-62306819D02*
X188547619Y-62306819D01*
X188547619Y-62306819D02*
X188642857Y-62354438D01*
X188642857Y-62354438D02*
X188690476Y-62402057D01*
X188690476Y-62402057D02*
X188738095Y-62497295D01*
X188738095Y-62497295D02*
X188738095Y-62640152D01*
X188738095Y-62640152D02*
X188690476Y-62735390D01*
X188690476Y-62735390D02*
X188642857Y-62783009D01*
X188642857Y-62783009D02*
X188547619Y-62830628D01*
X188547619Y-62830628D02*
X188166667Y-62830628D01*
X189690476Y-63306819D02*
X189119048Y-63306819D01*
X189404762Y-63306819D02*
X189404762Y-62306819D01*
X189404762Y-62306819D02*
X189309524Y-62449676D01*
X189309524Y-62449676D02*
X189214286Y-62544914D01*
X189214286Y-62544914D02*
X189119048Y-62592533D01*
X190547619Y-62306819D02*
X190357143Y-62306819D01*
X190357143Y-62306819D02*
X190261905Y-62354438D01*
X190261905Y-62354438D02*
X190214286Y-62402057D01*
X190214286Y-62402057D02*
X190119048Y-62544914D01*
X190119048Y-62544914D02*
X190071429Y-62735390D01*
X190071429Y-62735390D02*
X190071429Y-63116342D01*
X190071429Y-63116342D02*
X190119048Y-63211580D01*
X190119048Y-63211580D02*
X190166667Y-63259200D01*
X190166667Y-63259200D02*
X190261905Y-63306819D01*
X190261905Y-63306819D02*
X190452381Y-63306819D01*
X190452381Y-63306819D02*
X190547619Y-63259200D01*
X190547619Y-63259200D02*
X190595238Y-63211580D01*
X190595238Y-63211580D02*
X190642857Y-63116342D01*
X190642857Y-63116342D02*
X190642857Y-62878247D01*
X190642857Y-62878247D02*
X190595238Y-62783009D01*
X190595238Y-62783009D02*
X190547619Y-62735390D01*
X190547619Y-62735390D02*
X190452381Y-62687771D01*
X190452381Y-62687771D02*
X190261905Y-62687771D01*
X190261905Y-62687771D02*
X190166667Y-62735390D01*
X190166667Y-62735390D02*
X190119048Y-62783009D01*
X190119048Y-62783009D02*
X190071429Y-62878247D01*
X158804819Y-51392857D02*
X158328628Y-51726190D01*
X158804819Y-51964285D02*
X157804819Y-51964285D01*
X157804819Y-51964285D02*
X157804819Y-51583333D01*
X157804819Y-51583333D02*
X157852438Y-51488095D01*
X157852438Y-51488095D02*
X157900057Y-51440476D01*
X157900057Y-51440476D02*
X157995295Y-51392857D01*
X157995295Y-51392857D02*
X158138152Y-51392857D01*
X158138152Y-51392857D02*
X158233390Y-51440476D01*
X158233390Y-51440476D02*
X158281009Y-51488095D01*
X158281009Y-51488095D02*
X158328628Y-51583333D01*
X158328628Y-51583333D02*
X158328628Y-51964285D01*
X157804819Y-51059523D02*
X157804819Y-50440476D01*
X157804819Y-50440476D02*
X158185771Y-50773809D01*
X158185771Y-50773809D02*
X158185771Y-50630952D01*
X158185771Y-50630952D02*
X158233390Y-50535714D01*
X158233390Y-50535714D02*
X158281009Y-50488095D01*
X158281009Y-50488095D02*
X158376247Y-50440476D01*
X158376247Y-50440476D02*
X158614342Y-50440476D01*
X158614342Y-50440476D02*
X158709580Y-50488095D01*
X158709580Y-50488095D02*
X158757200Y-50535714D01*
X158757200Y-50535714D02*
X158804819Y-50630952D01*
X158804819Y-50630952D02*
X158804819Y-50916666D01*
X158804819Y-50916666D02*
X158757200Y-51011904D01*
X158757200Y-51011904D02*
X158709580Y-51059523D01*
X157804819Y-50107142D02*
X157804819Y-49488095D01*
X157804819Y-49488095D02*
X158185771Y-49821428D01*
X158185771Y-49821428D02*
X158185771Y-49678571D01*
X158185771Y-49678571D02*
X158233390Y-49583333D01*
X158233390Y-49583333D02*
X158281009Y-49535714D01*
X158281009Y-49535714D02*
X158376247Y-49488095D01*
X158376247Y-49488095D02*
X158614342Y-49488095D01*
X158614342Y-49488095D02*
X158709580Y-49535714D01*
X158709580Y-49535714D02*
X158757200Y-49583333D01*
X158757200Y-49583333D02*
X158804819Y-49678571D01*
X158804819Y-49678571D02*
X158804819Y-49964285D01*
X158804819Y-49964285D02*
X158757200Y-50059523D01*
X158757200Y-50059523D02*
X158709580Y-50107142D01*
X117754819Y-107638094D02*
X117754819Y-107066666D01*
X118754819Y-107352380D02*
X117754819Y-107352380D01*
X118754819Y-106733332D02*
X117754819Y-106733332D01*
X117754819Y-106733332D02*
X117754819Y-106352380D01*
X117754819Y-106352380D02*
X117802438Y-106257142D01*
X117802438Y-106257142D02*
X117850057Y-106209523D01*
X117850057Y-106209523D02*
X117945295Y-106161904D01*
X117945295Y-106161904D02*
X118088152Y-106161904D01*
X118088152Y-106161904D02*
X118183390Y-106209523D01*
X118183390Y-106209523D02*
X118231009Y-106257142D01*
X118231009Y-106257142D02*
X118278628Y-106352380D01*
X118278628Y-106352380D02*
X118278628Y-106733332D01*
X117850057Y-105780951D02*
X117802438Y-105733332D01*
X117802438Y-105733332D02*
X117754819Y-105638094D01*
X117754819Y-105638094D02*
X117754819Y-105399999D01*
X117754819Y-105399999D02*
X117802438Y-105304761D01*
X117802438Y-105304761D02*
X117850057Y-105257142D01*
X117850057Y-105257142D02*
X117945295Y-105209523D01*
X117945295Y-105209523D02*
X118040533Y-105209523D01*
X118040533Y-105209523D02*
X118183390Y-105257142D01*
X118183390Y-105257142D02*
X118754819Y-105828570D01*
X118754819Y-105828570D02*
X118754819Y-105209523D01*
X118088152Y-104352380D02*
X118754819Y-104352380D01*
X117707200Y-104590475D02*
X118421485Y-104828570D01*
X118421485Y-104828570D02*
X118421485Y-104209523D01*
X147583333Y-46709580D02*
X147535714Y-46757200D01*
X147535714Y-46757200D02*
X147392857Y-46804819D01*
X147392857Y-46804819D02*
X147297619Y-46804819D01*
X147297619Y-46804819D02*
X147154762Y-46757200D01*
X147154762Y-46757200D02*
X147059524Y-46661961D01*
X147059524Y-46661961D02*
X147011905Y-46566723D01*
X147011905Y-46566723D02*
X146964286Y-46376247D01*
X146964286Y-46376247D02*
X146964286Y-46233390D01*
X146964286Y-46233390D02*
X147011905Y-46042914D01*
X147011905Y-46042914D02*
X147059524Y-45947676D01*
X147059524Y-45947676D02*
X147154762Y-45852438D01*
X147154762Y-45852438D02*
X147297619Y-45804819D01*
X147297619Y-45804819D02*
X147392857Y-45804819D01*
X147392857Y-45804819D02*
X147535714Y-45852438D01*
X147535714Y-45852438D02*
X147583333Y-45900057D01*
X148059524Y-46804819D02*
X148250000Y-46804819D01*
X148250000Y-46804819D02*
X148345238Y-46757200D01*
X148345238Y-46757200D02*
X148392857Y-46709580D01*
X148392857Y-46709580D02*
X148488095Y-46566723D01*
X148488095Y-46566723D02*
X148535714Y-46376247D01*
X148535714Y-46376247D02*
X148535714Y-45995295D01*
X148535714Y-45995295D02*
X148488095Y-45900057D01*
X148488095Y-45900057D02*
X148440476Y-45852438D01*
X148440476Y-45852438D02*
X148345238Y-45804819D01*
X148345238Y-45804819D02*
X148154762Y-45804819D01*
X148154762Y-45804819D02*
X148059524Y-45852438D01*
X148059524Y-45852438D02*
X148011905Y-45900057D01*
X148011905Y-45900057D02*
X147964286Y-45995295D01*
X147964286Y-45995295D02*
X147964286Y-46233390D01*
X147964286Y-46233390D02*
X148011905Y-46328628D01*
X148011905Y-46328628D02*
X148059524Y-46376247D01*
X148059524Y-46376247D02*
X148154762Y-46423866D01*
X148154762Y-46423866D02*
X148345238Y-46423866D01*
X148345238Y-46423866D02*
X148440476Y-46376247D01*
X148440476Y-46376247D02*
X148488095Y-46328628D01*
X148488095Y-46328628D02*
X148535714Y-46233390D01*
D10*
X128887819Y-59583333D02*
X128840200Y-59535714D01*
X128840200Y-59535714D02*
X128792580Y-59392857D01*
X128792580Y-59392857D02*
X128792580Y-59297619D01*
X128792580Y-59297619D02*
X128840200Y-59154762D01*
X128840200Y-59154762D02*
X128935438Y-59059524D01*
X128935438Y-59059524D02*
X129030676Y-59011905D01*
X129030676Y-59011905D02*
X129221152Y-58964286D01*
X129221152Y-58964286D02*
X129364009Y-58964286D01*
X129364009Y-58964286D02*
X129554485Y-59011905D01*
X129554485Y-59011905D02*
X129649723Y-59059524D01*
X129649723Y-59059524D02*
X129744961Y-59154762D01*
X129744961Y-59154762D02*
X129792580Y-59297619D01*
X129792580Y-59297619D02*
X129792580Y-59392857D01*
X129792580Y-59392857D02*
X129744961Y-59535714D01*
X129744961Y-59535714D02*
X129697342Y-59583333D01*
X129364009Y-60154762D02*
X129411628Y-60059524D01*
X129411628Y-60059524D02*
X129459247Y-60011905D01*
X129459247Y-60011905D02*
X129554485Y-59964286D01*
X129554485Y-59964286D02*
X129602104Y-59964286D01*
X129602104Y-59964286D02*
X129697342Y-60011905D01*
X129697342Y-60011905D02*
X129744961Y-60059524D01*
X129744961Y-60059524D02*
X129792580Y-60154762D01*
X129792580Y-60154762D02*
X129792580Y-60345238D01*
X129792580Y-60345238D02*
X129744961Y-60440476D01*
X129744961Y-60440476D02*
X129697342Y-60488095D01*
X129697342Y-60488095D02*
X129602104Y-60535714D01*
X129602104Y-60535714D02*
X129554485Y-60535714D01*
X129554485Y-60535714D02*
X129459247Y-60488095D01*
X129459247Y-60488095D02*
X129411628Y-60440476D01*
X129411628Y-60440476D02*
X129364009Y-60345238D01*
X129364009Y-60345238D02*
X129364009Y-60154762D01*
X129364009Y-60154762D02*
X129316390Y-60059524D01*
X129316390Y-60059524D02*
X129268771Y-60011905D01*
X129268771Y-60011905D02*
X129173533Y-59964286D01*
X129173533Y-59964286D02*
X128983057Y-59964286D01*
X128983057Y-59964286D02*
X128887819Y-60011905D01*
X128887819Y-60011905D02*
X128840200Y-60059524D01*
X128840200Y-60059524D02*
X128792580Y-60154762D01*
X128792580Y-60154762D02*
X128792580Y-60345238D01*
X128792580Y-60345238D02*
X128840200Y-60440476D01*
X128840200Y-60440476D02*
X128887819Y-60488095D01*
X128887819Y-60488095D02*
X128983057Y-60535714D01*
X128983057Y-60535714D02*
X129173533Y-60535714D01*
X129173533Y-60535714D02*
X129268771Y-60488095D01*
X129268771Y-60488095D02*
X129316390Y-60440476D01*
X129316390Y-60440476D02*
X129364009Y-60345238D01*
D11*
X133716666Y-143004819D02*
X133716666Y-143719104D01*
X133716666Y-143719104D02*
X133669047Y-143861961D01*
X133669047Y-143861961D02*
X133573809Y-143957200D01*
X133573809Y-143957200D02*
X133430952Y-144004819D01*
X133430952Y-144004819D02*
X133335714Y-144004819D01*
X134097619Y-143004819D02*
X134764285Y-143004819D01*
X134764285Y-143004819D02*
X134335714Y-144004819D01*
X104290419Y-81683333D02*
X104242800Y-81635714D01*
X104242800Y-81635714D02*
X104195180Y-81492857D01*
X104195180Y-81492857D02*
X104195180Y-81397619D01*
X104195180Y-81397619D02*
X104242800Y-81254762D01*
X104242800Y-81254762D02*
X104338038Y-81159524D01*
X104338038Y-81159524D02*
X104433276Y-81111905D01*
X104433276Y-81111905D02*
X104623752Y-81064286D01*
X104623752Y-81064286D02*
X104766609Y-81064286D01*
X104766609Y-81064286D02*
X104957085Y-81111905D01*
X104957085Y-81111905D02*
X105052323Y-81159524D01*
X105052323Y-81159524D02*
X105147561Y-81254762D01*
X105147561Y-81254762D02*
X105195180Y-81397619D01*
X105195180Y-81397619D02*
X105195180Y-81492857D01*
X105195180Y-81492857D02*
X105147561Y-81635714D01*
X105147561Y-81635714D02*
X105099942Y-81683333D01*
X104195180Y-82635714D02*
X104195180Y-82064286D01*
X104195180Y-82350000D02*
X105195180Y-82350000D01*
X105195180Y-82350000D02*
X105052323Y-82254762D01*
X105052323Y-82254762D02*
X104957085Y-82159524D01*
X104957085Y-82159524D02*
X104909466Y-82064286D01*
X170004819Y-98192857D02*
X169528628Y-98526190D01*
X170004819Y-98764285D02*
X169004819Y-98764285D01*
X169004819Y-98764285D02*
X169004819Y-98383333D01*
X169004819Y-98383333D02*
X169052438Y-98288095D01*
X169052438Y-98288095D02*
X169100057Y-98240476D01*
X169100057Y-98240476D02*
X169195295Y-98192857D01*
X169195295Y-98192857D02*
X169338152Y-98192857D01*
X169338152Y-98192857D02*
X169433390Y-98240476D01*
X169433390Y-98240476D02*
X169481009Y-98288095D01*
X169481009Y-98288095D02*
X169528628Y-98383333D01*
X169528628Y-98383333D02*
X169528628Y-98764285D01*
X170004819Y-97240476D02*
X170004819Y-97811904D01*
X170004819Y-97526190D02*
X169004819Y-97526190D01*
X169004819Y-97526190D02*
X169147676Y-97621428D01*
X169147676Y-97621428D02*
X169242914Y-97716666D01*
X169242914Y-97716666D02*
X169290533Y-97811904D01*
X170004819Y-96764285D02*
X170004819Y-96573809D01*
X170004819Y-96573809D02*
X169957200Y-96478571D01*
X169957200Y-96478571D02*
X169909580Y-96430952D01*
X169909580Y-96430952D02*
X169766723Y-96335714D01*
X169766723Y-96335714D02*
X169576247Y-96288095D01*
X169576247Y-96288095D02*
X169195295Y-96288095D01*
X169195295Y-96288095D02*
X169100057Y-96335714D01*
X169100057Y-96335714D02*
X169052438Y-96383333D01*
X169052438Y-96383333D02*
X169004819Y-96478571D01*
X169004819Y-96478571D02*
X169004819Y-96669047D01*
X169004819Y-96669047D02*
X169052438Y-96764285D01*
X169052438Y-96764285D02*
X169100057Y-96811904D01*
X169100057Y-96811904D02*
X169195295Y-96859523D01*
X169195295Y-96859523D02*
X169433390Y-96859523D01*
X169433390Y-96859523D02*
X169528628Y-96811904D01*
X169528628Y-96811904D02*
X169576247Y-96764285D01*
X169576247Y-96764285D02*
X169623866Y-96669047D01*
X169623866Y-96669047D02*
X169623866Y-96478571D01*
X169623866Y-96478571D02*
X169576247Y-96383333D01*
X169576247Y-96383333D02*
X169528628Y-96335714D01*
X169528628Y-96335714D02*
X169433390Y-96288095D01*
X166504819Y-98192857D02*
X166028628Y-98526190D01*
X166504819Y-98764285D02*
X165504819Y-98764285D01*
X165504819Y-98764285D02*
X165504819Y-98383333D01*
X165504819Y-98383333D02*
X165552438Y-98288095D01*
X165552438Y-98288095D02*
X165600057Y-98240476D01*
X165600057Y-98240476D02*
X165695295Y-98192857D01*
X165695295Y-98192857D02*
X165838152Y-98192857D01*
X165838152Y-98192857D02*
X165933390Y-98240476D01*
X165933390Y-98240476D02*
X165981009Y-98288095D01*
X165981009Y-98288095D02*
X166028628Y-98383333D01*
X166028628Y-98383333D02*
X166028628Y-98764285D01*
X166504819Y-97240476D02*
X166504819Y-97811904D01*
X166504819Y-97526190D02*
X165504819Y-97526190D01*
X165504819Y-97526190D02*
X165647676Y-97621428D01*
X165647676Y-97621428D02*
X165742914Y-97716666D01*
X165742914Y-97716666D02*
X165790533Y-97811904D01*
X165933390Y-96669047D02*
X165885771Y-96764285D01*
X165885771Y-96764285D02*
X165838152Y-96811904D01*
X165838152Y-96811904D02*
X165742914Y-96859523D01*
X165742914Y-96859523D02*
X165695295Y-96859523D01*
X165695295Y-96859523D02*
X165600057Y-96811904D01*
X165600057Y-96811904D02*
X165552438Y-96764285D01*
X165552438Y-96764285D02*
X165504819Y-96669047D01*
X165504819Y-96669047D02*
X165504819Y-96478571D01*
X165504819Y-96478571D02*
X165552438Y-96383333D01*
X165552438Y-96383333D02*
X165600057Y-96335714D01*
X165600057Y-96335714D02*
X165695295Y-96288095D01*
X165695295Y-96288095D02*
X165742914Y-96288095D01*
X165742914Y-96288095D02*
X165838152Y-96335714D01*
X165838152Y-96335714D02*
X165885771Y-96383333D01*
X165885771Y-96383333D02*
X165933390Y-96478571D01*
X165933390Y-96478571D02*
X165933390Y-96669047D01*
X165933390Y-96669047D02*
X165981009Y-96764285D01*
X165981009Y-96764285D02*
X166028628Y-96811904D01*
X166028628Y-96811904D02*
X166123866Y-96859523D01*
X166123866Y-96859523D02*
X166314342Y-96859523D01*
X166314342Y-96859523D02*
X166409580Y-96811904D01*
X166409580Y-96811904D02*
X166457200Y-96764285D01*
X166457200Y-96764285D02*
X166504819Y-96669047D01*
X166504819Y-96669047D02*
X166504819Y-96478571D01*
X166504819Y-96478571D02*
X166457200Y-96383333D01*
X166457200Y-96383333D02*
X166409580Y-96335714D01*
X166409580Y-96335714D02*
X166314342Y-96288095D01*
X166314342Y-96288095D02*
X166123866Y-96288095D01*
X166123866Y-96288095D02*
X166028628Y-96335714D01*
X166028628Y-96335714D02*
X165981009Y-96383333D01*
X165981009Y-96383333D02*
X165933390Y-96478571D01*
X173216666Y-143144819D02*
X173216666Y-143859104D01*
X173216666Y-143859104D02*
X173169047Y-144001961D01*
X173169047Y-144001961D02*
X173073809Y-144097200D01*
X173073809Y-144097200D02*
X172930952Y-144144819D01*
X172930952Y-144144819D02*
X172835714Y-144144819D01*
X173740476Y-144144819D02*
X173930952Y-144144819D01*
X173930952Y-144144819D02*
X174026190Y-144097200D01*
X174026190Y-144097200D02*
X174073809Y-144049580D01*
X174073809Y-144049580D02*
X174169047Y-143906723D01*
X174169047Y-143906723D02*
X174216666Y-143716247D01*
X174216666Y-143716247D02*
X174216666Y-143335295D01*
X174216666Y-143335295D02*
X174169047Y-143240057D01*
X174169047Y-143240057D02*
X174121428Y-143192438D01*
X174121428Y-143192438D02*
X174026190Y-143144819D01*
X174026190Y-143144819D02*
X173835714Y-143144819D01*
X173835714Y-143144819D02*
X173740476Y-143192438D01*
X173740476Y-143192438D02*
X173692857Y-143240057D01*
X173692857Y-143240057D02*
X173645238Y-143335295D01*
X173645238Y-143335295D02*
X173645238Y-143573390D01*
X173645238Y-143573390D02*
X173692857Y-143668628D01*
X173692857Y-143668628D02*
X173740476Y-143716247D01*
X173740476Y-143716247D02*
X173835714Y-143763866D01*
X173835714Y-143763866D02*
X174026190Y-143763866D01*
X174026190Y-143763866D02*
X174121428Y-143716247D01*
X174121428Y-143716247D02*
X174169047Y-143668628D01*
X174169047Y-143668628D02*
X174216666Y-143573390D01*
X190102819Y-50238094D02*
X190102819Y-49666666D01*
X191102819Y-49952380D02*
X190102819Y-49952380D01*
X191102819Y-49333332D02*
X190102819Y-49333332D01*
X190102819Y-49333332D02*
X190102819Y-48952380D01*
X190102819Y-48952380D02*
X190150438Y-48857142D01*
X190150438Y-48857142D02*
X190198057Y-48809523D01*
X190198057Y-48809523D02*
X190293295Y-48761904D01*
X190293295Y-48761904D02*
X190436152Y-48761904D01*
X190436152Y-48761904D02*
X190531390Y-48809523D01*
X190531390Y-48809523D02*
X190579009Y-48857142D01*
X190579009Y-48857142D02*
X190626628Y-48952380D01*
X190626628Y-48952380D02*
X190626628Y-49333332D01*
X191102819Y-47809523D02*
X191102819Y-48380951D01*
X191102819Y-48095237D02*
X190102819Y-48095237D01*
X190102819Y-48095237D02*
X190245676Y-48190475D01*
X190245676Y-48190475D02*
X190340914Y-48285713D01*
X190340914Y-48285713D02*
X190388533Y-48380951D01*
X190102819Y-46904761D02*
X190102819Y-47380951D01*
X190102819Y-47380951D02*
X190579009Y-47428570D01*
X190579009Y-47428570D02*
X190531390Y-47380951D01*
X190531390Y-47380951D02*
X190483771Y-47285713D01*
X190483771Y-47285713D02*
X190483771Y-47047618D01*
X190483771Y-47047618D02*
X190531390Y-46952380D01*
X190531390Y-46952380D02*
X190579009Y-46904761D01*
X190579009Y-46904761D02*
X190674247Y-46857142D01*
X190674247Y-46857142D02*
X190912342Y-46857142D01*
X190912342Y-46857142D02*
X191007580Y-46904761D01*
X191007580Y-46904761D02*
X191055200Y-46952380D01*
X191055200Y-46952380D02*
X191102819Y-47047618D01*
X191102819Y-47047618D02*
X191102819Y-47285713D01*
X191102819Y-47285713D02*
X191055200Y-47380951D01*
X191055200Y-47380951D02*
X191007580Y-47428570D01*
X163004819Y-98192857D02*
X162528628Y-98526190D01*
X163004819Y-98764285D02*
X162004819Y-98764285D01*
X162004819Y-98764285D02*
X162004819Y-98383333D01*
X162004819Y-98383333D02*
X162052438Y-98288095D01*
X162052438Y-98288095D02*
X162100057Y-98240476D01*
X162100057Y-98240476D02*
X162195295Y-98192857D01*
X162195295Y-98192857D02*
X162338152Y-98192857D01*
X162338152Y-98192857D02*
X162433390Y-98240476D01*
X162433390Y-98240476D02*
X162481009Y-98288095D01*
X162481009Y-98288095D02*
X162528628Y-98383333D01*
X162528628Y-98383333D02*
X162528628Y-98764285D01*
X163004819Y-97240476D02*
X163004819Y-97811904D01*
X163004819Y-97526190D02*
X162004819Y-97526190D01*
X162004819Y-97526190D02*
X162147676Y-97621428D01*
X162147676Y-97621428D02*
X162242914Y-97716666D01*
X162242914Y-97716666D02*
X162290533Y-97811904D01*
X162004819Y-96907142D02*
X162004819Y-96240476D01*
X162004819Y-96240476D02*
X163004819Y-96669047D01*
X120416666Y-45404819D02*
X120416666Y-46119104D01*
X120416666Y-46119104D02*
X120369047Y-46261961D01*
X120369047Y-46261961D02*
X120273809Y-46357200D01*
X120273809Y-46357200D02*
X120130952Y-46404819D01*
X120130952Y-46404819D02*
X120035714Y-46404819D01*
X120892857Y-46404819D02*
X120892857Y-45404819D01*
X120892857Y-45404819D02*
X121273809Y-45404819D01*
X121273809Y-45404819D02*
X121369047Y-45452438D01*
X121369047Y-45452438D02*
X121416666Y-45500057D01*
X121416666Y-45500057D02*
X121464285Y-45595295D01*
X121464285Y-45595295D02*
X121464285Y-45738152D01*
X121464285Y-45738152D02*
X121416666Y-45833390D01*
X121416666Y-45833390D02*
X121369047Y-45881009D01*
X121369047Y-45881009D02*
X121273809Y-45928628D01*
X121273809Y-45928628D02*
X120892857Y-45928628D01*
X121845238Y-45500057D02*
X121892857Y-45452438D01*
X121892857Y-45452438D02*
X121988095Y-45404819D01*
X121988095Y-45404819D02*
X122226190Y-45404819D01*
X122226190Y-45404819D02*
X122321428Y-45452438D01*
X122321428Y-45452438D02*
X122369047Y-45500057D01*
X122369047Y-45500057D02*
X122416666Y-45595295D01*
X122416666Y-45595295D02*
X122416666Y-45690533D01*
X122416666Y-45690533D02*
X122369047Y-45833390D01*
X122369047Y-45833390D02*
X121797619Y-46404819D01*
X121797619Y-46404819D02*
X122416666Y-46404819D01*
X181554819Y-102714285D02*
X180554819Y-102714285D01*
X180554819Y-102714285D02*
X180554819Y-102476190D01*
X180554819Y-102476190D02*
X180602438Y-102333333D01*
X180602438Y-102333333D02*
X180697676Y-102238095D01*
X180697676Y-102238095D02*
X180792914Y-102190476D01*
X180792914Y-102190476D02*
X180983390Y-102142857D01*
X180983390Y-102142857D02*
X181126247Y-102142857D01*
X181126247Y-102142857D02*
X181316723Y-102190476D01*
X181316723Y-102190476D02*
X181411961Y-102238095D01*
X181411961Y-102238095D02*
X181507200Y-102333333D01*
X181507200Y-102333333D02*
X181554819Y-102476190D01*
X181554819Y-102476190D02*
X181554819Y-102714285D01*
X181554819Y-101190476D02*
X181554819Y-101761904D01*
X181554819Y-101476190D02*
X180554819Y-101476190D01*
X180554819Y-101476190D02*
X180697676Y-101571428D01*
X180697676Y-101571428D02*
X180792914Y-101666666D01*
X180792914Y-101666666D02*
X180840533Y-101761904D01*
X180983390Y-100619047D02*
X180935771Y-100714285D01*
X180935771Y-100714285D02*
X180888152Y-100761904D01*
X180888152Y-100761904D02*
X180792914Y-100809523D01*
X180792914Y-100809523D02*
X180745295Y-100809523D01*
X180745295Y-100809523D02*
X180650057Y-100761904D01*
X180650057Y-100761904D02*
X180602438Y-100714285D01*
X180602438Y-100714285D02*
X180554819Y-100619047D01*
X180554819Y-100619047D02*
X180554819Y-100428571D01*
X180554819Y-100428571D02*
X180602438Y-100333333D01*
X180602438Y-100333333D02*
X180650057Y-100285714D01*
X180650057Y-100285714D02*
X180745295Y-100238095D01*
X180745295Y-100238095D02*
X180792914Y-100238095D01*
X180792914Y-100238095D02*
X180888152Y-100285714D01*
X180888152Y-100285714D02*
X180935771Y-100333333D01*
X180935771Y-100333333D02*
X180983390Y-100428571D01*
X180983390Y-100428571D02*
X180983390Y-100619047D01*
X180983390Y-100619047D02*
X181031009Y-100714285D01*
X181031009Y-100714285D02*
X181078628Y-100761904D01*
X181078628Y-100761904D02*
X181173866Y-100809523D01*
X181173866Y-100809523D02*
X181364342Y-100809523D01*
X181364342Y-100809523D02*
X181459580Y-100761904D01*
X181459580Y-100761904D02*
X181507200Y-100714285D01*
X181507200Y-100714285D02*
X181554819Y-100619047D01*
X181554819Y-100619047D02*
X181554819Y-100428571D01*
X181554819Y-100428571D02*
X181507200Y-100333333D01*
X181507200Y-100333333D02*
X181459580Y-100285714D01*
X181459580Y-100285714D02*
X181364342Y-100238095D01*
X181364342Y-100238095D02*
X181173866Y-100238095D01*
X181173866Y-100238095D02*
X181078628Y-100285714D01*
X181078628Y-100285714D02*
X181031009Y-100333333D01*
X181031009Y-100333333D02*
X180983390Y-100428571D01*
X135488095Y-50706819D02*
X136059523Y-50706819D01*
X135773809Y-51706819D02*
X135773809Y-50706819D01*
X136392857Y-51706819D02*
X136392857Y-50706819D01*
X136392857Y-50706819D02*
X136773809Y-50706819D01*
X136773809Y-50706819D02*
X136869047Y-50754438D01*
X136869047Y-50754438D02*
X136916666Y-50802057D01*
X136916666Y-50802057D02*
X136964285Y-50897295D01*
X136964285Y-50897295D02*
X136964285Y-51040152D01*
X136964285Y-51040152D02*
X136916666Y-51135390D01*
X136916666Y-51135390D02*
X136869047Y-51183009D01*
X136869047Y-51183009D02*
X136773809Y-51230628D01*
X136773809Y-51230628D02*
X136392857Y-51230628D01*
X137869047Y-50706819D02*
X137392857Y-50706819D01*
X137392857Y-50706819D02*
X137345238Y-51183009D01*
X137345238Y-51183009D02*
X137392857Y-51135390D01*
X137392857Y-51135390D02*
X137488095Y-51087771D01*
X137488095Y-51087771D02*
X137726190Y-51087771D01*
X137726190Y-51087771D02*
X137821428Y-51135390D01*
X137821428Y-51135390D02*
X137869047Y-51183009D01*
X137869047Y-51183009D02*
X137916666Y-51278247D01*
X137916666Y-51278247D02*
X137916666Y-51516342D01*
X137916666Y-51516342D02*
X137869047Y-51611580D01*
X137869047Y-51611580D02*
X137821428Y-51659200D01*
X137821428Y-51659200D02*
X137726190Y-51706819D01*
X137726190Y-51706819D02*
X137488095Y-51706819D01*
X137488095Y-51706819D02*
X137392857Y-51659200D01*
X137392857Y-51659200D02*
X137345238Y-51611580D01*
X127954819Y-107688094D02*
X127954819Y-107116666D01*
X128954819Y-107402380D02*
X127954819Y-107402380D01*
X128954819Y-106783332D02*
X127954819Y-106783332D01*
X127954819Y-106783332D02*
X127954819Y-106402380D01*
X127954819Y-106402380D02*
X128002438Y-106307142D01*
X128002438Y-106307142D02*
X128050057Y-106259523D01*
X128050057Y-106259523D02*
X128145295Y-106211904D01*
X128145295Y-106211904D02*
X128288152Y-106211904D01*
X128288152Y-106211904D02*
X128383390Y-106259523D01*
X128383390Y-106259523D02*
X128431009Y-106307142D01*
X128431009Y-106307142D02*
X128478628Y-106402380D01*
X128478628Y-106402380D02*
X128478628Y-106783332D01*
X128050057Y-105830951D02*
X128002438Y-105783332D01*
X128002438Y-105783332D02*
X127954819Y-105688094D01*
X127954819Y-105688094D02*
X127954819Y-105449999D01*
X127954819Y-105449999D02*
X128002438Y-105354761D01*
X128002438Y-105354761D02*
X128050057Y-105307142D01*
X128050057Y-105307142D02*
X128145295Y-105259523D01*
X128145295Y-105259523D02*
X128240533Y-105259523D01*
X128240533Y-105259523D02*
X128383390Y-105307142D01*
X128383390Y-105307142D02*
X128954819Y-105878570D01*
X128954819Y-105878570D02*
X128954819Y-105259523D01*
X127954819Y-104640475D02*
X127954819Y-104545237D01*
X127954819Y-104545237D02*
X128002438Y-104449999D01*
X128002438Y-104449999D02*
X128050057Y-104402380D01*
X128050057Y-104402380D02*
X128145295Y-104354761D01*
X128145295Y-104354761D02*
X128335771Y-104307142D01*
X128335771Y-104307142D02*
X128573866Y-104307142D01*
X128573866Y-104307142D02*
X128764342Y-104354761D01*
X128764342Y-104354761D02*
X128859580Y-104402380D01*
X128859580Y-104402380D02*
X128907200Y-104449999D01*
X128907200Y-104449999D02*
X128954819Y-104545237D01*
X128954819Y-104545237D02*
X128954819Y-104640475D01*
X128954819Y-104640475D02*
X128907200Y-104735713D01*
X128907200Y-104735713D02*
X128859580Y-104783332D01*
X128859580Y-104783332D02*
X128764342Y-104830951D01*
X128764342Y-104830951D02*
X128573866Y-104878570D01*
X128573866Y-104878570D02*
X128335771Y-104878570D01*
X128335771Y-104878570D02*
X128145295Y-104830951D01*
X128145295Y-104830951D02*
X128050057Y-104783332D01*
X128050057Y-104783332D02*
X128002438Y-104735713D01*
X128002438Y-104735713D02*
X127954819Y-104640475D01*
X150040419Y-63357142D02*
X149992800Y-63309523D01*
X149992800Y-63309523D02*
X149945180Y-63166666D01*
X149945180Y-63166666D02*
X149945180Y-63071428D01*
X149945180Y-63071428D02*
X149992800Y-62928571D01*
X149992800Y-62928571D02*
X150088038Y-62833333D01*
X150088038Y-62833333D02*
X150183276Y-62785714D01*
X150183276Y-62785714D02*
X150373752Y-62738095D01*
X150373752Y-62738095D02*
X150516609Y-62738095D01*
X150516609Y-62738095D02*
X150707085Y-62785714D01*
X150707085Y-62785714D02*
X150802323Y-62833333D01*
X150802323Y-62833333D02*
X150897561Y-62928571D01*
X150897561Y-62928571D02*
X150945180Y-63071428D01*
X150945180Y-63071428D02*
X150945180Y-63166666D01*
X150945180Y-63166666D02*
X150897561Y-63309523D01*
X150897561Y-63309523D02*
X150849942Y-63357142D01*
X149945180Y-64309523D02*
X149945180Y-63738095D01*
X149945180Y-64023809D02*
X150945180Y-64023809D01*
X150945180Y-64023809D02*
X150802323Y-63928571D01*
X150802323Y-63928571D02*
X150707085Y-63833333D01*
X150707085Y-63833333D02*
X150659466Y-63738095D01*
X150945180Y-65214285D02*
X150945180Y-64738095D01*
X150945180Y-64738095D02*
X150468990Y-64690476D01*
X150468990Y-64690476D02*
X150516609Y-64738095D01*
X150516609Y-64738095D02*
X150564228Y-64833333D01*
X150564228Y-64833333D02*
X150564228Y-65071428D01*
X150564228Y-65071428D02*
X150516609Y-65166666D01*
X150516609Y-65166666D02*
X150468990Y-65214285D01*
X150468990Y-65214285D02*
X150373752Y-65261904D01*
X150373752Y-65261904D02*
X150135657Y-65261904D01*
X150135657Y-65261904D02*
X150040419Y-65214285D01*
X150040419Y-65214285D02*
X149992800Y-65166666D01*
X149992800Y-65166666D02*
X149945180Y-65071428D01*
X149945180Y-65071428D02*
X149945180Y-64833333D01*
X149945180Y-64833333D02*
X149992800Y-64738095D01*
X149992800Y-64738095D02*
X150040419Y-64690476D01*
X107354819Y-86916666D02*
X106878628Y-87249999D01*
X107354819Y-87488094D02*
X106354819Y-87488094D01*
X106354819Y-87488094D02*
X106354819Y-87107142D01*
X106354819Y-87107142D02*
X106402438Y-87011904D01*
X106402438Y-87011904D02*
X106450057Y-86964285D01*
X106450057Y-86964285D02*
X106545295Y-86916666D01*
X106545295Y-86916666D02*
X106688152Y-86916666D01*
X106688152Y-86916666D02*
X106783390Y-86964285D01*
X106783390Y-86964285D02*
X106831009Y-87011904D01*
X106831009Y-87011904D02*
X106878628Y-87107142D01*
X106878628Y-87107142D02*
X106878628Y-87488094D01*
X107354819Y-85964285D02*
X107354819Y-86535713D01*
X107354819Y-86249999D02*
X106354819Y-86249999D01*
X106354819Y-86249999D02*
X106497676Y-86345237D01*
X106497676Y-86345237D02*
X106592914Y-86440475D01*
X106592914Y-86440475D02*
X106640533Y-86535713D01*
X154924761Y-47050057D02*
X154829523Y-47002438D01*
X154829523Y-47002438D02*
X154734285Y-46907200D01*
X154734285Y-46907200D02*
X154591428Y-46764342D01*
X154591428Y-46764342D02*
X154496190Y-46716723D01*
X154496190Y-46716723D02*
X154400952Y-46716723D01*
X154448571Y-46954819D02*
X154353333Y-46907200D01*
X154353333Y-46907200D02*
X154258095Y-46811961D01*
X154258095Y-46811961D02*
X154210476Y-46621485D01*
X154210476Y-46621485D02*
X154210476Y-46288152D01*
X154210476Y-46288152D02*
X154258095Y-46097676D01*
X154258095Y-46097676D02*
X154353333Y-46002438D01*
X154353333Y-46002438D02*
X154448571Y-45954819D01*
X154448571Y-45954819D02*
X154639047Y-45954819D01*
X154639047Y-45954819D02*
X154734285Y-46002438D01*
X154734285Y-46002438D02*
X154829523Y-46097676D01*
X154829523Y-46097676D02*
X154877142Y-46288152D01*
X154877142Y-46288152D02*
X154877142Y-46621485D01*
X154877142Y-46621485D02*
X154829523Y-46811961D01*
X154829523Y-46811961D02*
X154734285Y-46907200D01*
X154734285Y-46907200D02*
X154639047Y-46954819D01*
X154639047Y-46954819D02*
X154448571Y-46954819D01*
X155734285Y-46288152D02*
X155734285Y-46954819D01*
X155496190Y-45907200D02*
X155258095Y-46621485D01*
X155258095Y-46621485D02*
X155877142Y-46621485D01*
X153716666Y-143004819D02*
X153716666Y-143719104D01*
X153716666Y-143719104D02*
X153669047Y-143861961D01*
X153669047Y-143861961D02*
X153573809Y-143957200D01*
X153573809Y-143957200D02*
X153430952Y-144004819D01*
X153430952Y-144004819D02*
X153335714Y-144004819D01*
X154335714Y-143433390D02*
X154240476Y-143385771D01*
X154240476Y-143385771D02*
X154192857Y-143338152D01*
X154192857Y-143338152D02*
X154145238Y-143242914D01*
X154145238Y-143242914D02*
X154145238Y-143195295D01*
X154145238Y-143195295D02*
X154192857Y-143100057D01*
X154192857Y-143100057D02*
X154240476Y-143052438D01*
X154240476Y-143052438D02*
X154335714Y-143004819D01*
X154335714Y-143004819D02*
X154526190Y-143004819D01*
X154526190Y-143004819D02*
X154621428Y-143052438D01*
X154621428Y-143052438D02*
X154669047Y-143100057D01*
X154669047Y-143100057D02*
X154716666Y-143195295D01*
X154716666Y-143195295D02*
X154716666Y-143242914D01*
X154716666Y-143242914D02*
X154669047Y-143338152D01*
X154669047Y-143338152D02*
X154621428Y-143385771D01*
X154621428Y-143385771D02*
X154526190Y-143433390D01*
X154526190Y-143433390D02*
X154335714Y-143433390D01*
X154335714Y-143433390D02*
X154240476Y-143481009D01*
X154240476Y-143481009D02*
X154192857Y-143528628D01*
X154192857Y-143528628D02*
X154145238Y-143623866D01*
X154145238Y-143623866D02*
X154145238Y-143814342D01*
X154145238Y-143814342D02*
X154192857Y-143909580D01*
X154192857Y-143909580D02*
X154240476Y-143957200D01*
X154240476Y-143957200D02*
X154335714Y-144004819D01*
X154335714Y-144004819D02*
X154526190Y-144004819D01*
X154526190Y-144004819D02*
X154621428Y-143957200D01*
X154621428Y-143957200D02*
X154669047Y-143909580D01*
X154669047Y-143909580D02*
X154716666Y-143814342D01*
X154716666Y-143814342D02*
X154716666Y-143623866D01*
X154716666Y-143623866D02*
X154669047Y-143528628D01*
X154669047Y-143528628D02*
X154621428Y-143481009D01*
X154621428Y-143481009D02*
X154526190Y-143433390D01*
X104488095Y-45206819D02*
X105059523Y-45206819D01*
X104773809Y-46206819D02*
X104773809Y-45206819D01*
X105392857Y-46206819D02*
X105392857Y-45206819D01*
X105392857Y-45206819D02*
X105773809Y-45206819D01*
X105773809Y-45206819D02*
X105869047Y-45254438D01*
X105869047Y-45254438D02*
X105916666Y-45302057D01*
X105916666Y-45302057D02*
X105964285Y-45397295D01*
X105964285Y-45397295D02*
X105964285Y-45540152D01*
X105964285Y-45540152D02*
X105916666Y-45635390D01*
X105916666Y-45635390D02*
X105869047Y-45683009D01*
X105869047Y-45683009D02*
X105773809Y-45730628D01*
X105773809Y-45730628D02*
X105392857Y-45730628D01*
X106821428Y-45540152D02*
X106821428Y-46206819D01*
X106583333Y-45159200D02*
X106345238Y-45873485D01*
X106345238Y-45873485D02*
X106964285Y-45873485D01*
X190202819Y-57061904D02*
X190202819Y-56490476D01*
X191202819Y-56776190D02*
X190202819Y-56776190D01*
X191202819Y-56157142D02*
X190202819Y-56157142D01*
X190202819Y-56157142D02*
X190202819Y-55776190D01*
X190202819Y-55776190D02*
X190250438Y-55680952D01*
X190250438Y-55680952D02*
X190298057Y-55633333D01*
X190298057Y-55633333D02*
X190393295Y-55585714D01*
X190393295Y-55585714D02*
X190536152Y-55585714D01*
X190536152Y-55585714D02*
X190631390Y-55633333D01*
X190631390Y-55633333D02*
X190679009Y-55680952D01*
X190679009Y-55680952D02*
X190726628Y-55776190D01*
X190726628Y-55776190D02*
X190726628Y-56157142D01*
X190202819Y-54728571D02*
X190202819Y-54919047D01*
X190202819Y-54919047D02*
X190250438Y-55014285D01*
X190250438Y-55014285D02*
X190298057Y-55061904D01*
X190298057Y-55061904D02*
X190440914Y-55157142D01*
X190440914Y-55157142D02*
X190631390Y-55204761D01*
X190631390Y-55204761D02*
X191012342Y-55204761D01*
X191012342Y-55204761D02*
X191107580Y-55157142D01*
X191107580Y-55157142D02*
X191155200Y-55109523D01*
X191155200Y-55109523D02*
X191202819Y-55014285D01*
X191202819Y-55014285D02*
X191202819Y-54823809D01*
X191202819Y-54823809D02*
X191155200Y-54728571D01*
X191155200Y-54728571D02*
X191107580Y-54680952D01*
X191107580Y-54680952D02*
X191012342Y-54633333D01*
X191012342Y-54633333D02*
X190774247Y-54633333D01*
X190774247Y-54633333D02*
X190679009Y-54680952D01*
X190679009Y-54680952D02*
X190631390Y-54728571D01*
X190631390Y-54728571D02*
X190583771Y-54823809D01*
X190583771Y-54823809D02*
X190583771Y-55014285D01*
X190583771Y-55014285D02*
X190631390Y-55109523D01*
X190631390Y-55109523D02*
X190679009Y-55157142D01*
X190679009Y-55157142D02*
X190774247Y-55204761D01*
X121759819Y-63516904D02*
X122569342Y-63516904D01*
X122569342Y-63516904D02*
X122664580Y-63469285D01*
X122664580Y-63469285D02*
X122712200Y-63421666D01*
X122712200Y-63421666D02*
X122759819Y-63326428D01*
X122759819Y-63326428D02*
X122759819Y-63135952D01*
X122759819Y-63135952D02*
X122712200Y-63040714D01*
X122712200Y-63040714D02*
X122664580Y-62993095D01*
X122664580Y-62993095D02*
X122569342Y-62945476D01*
X122569342Y-62945476D02*
X121759819Y-62945476D01*
X122759819Y-61945476D02*
X122759819Y-62516904D01*
X122759819Y-62231190D02*
X121759819Y-62231190D01*
X121759819Y-62231190D02*
X121902676Y-62326428D01*
X121902676Y-62326428D02*
X121997914Y-62421666D01*
X121997914Y-62421666D02*
X122045533Y-62516904D01*
X181554819Y-97892857D02*
X181078628Y-98226190D01*
X181554819Y-98464285D02*
X180554819Y-98464285D01*
X180554819Y-98464285D02*
X180554819Y-98083333D01*
X180554819Y-98083333D02*
X180602438Y-97988095D01*
X180602438Y-97988095D02*
X180650057Y-97940476D01*
X180650057Y-97940476D02*
X180745295Y-97892857D01*
X180745295Y-97892857D02*
X180888152Y-97892857D01*
X180888152Y-97892857D02*
X180983390Y-97940476D01*
X180983390Y-97940476D02*
X181031009Y-97988095D01*
X181031009Y-97988095D02*
X181078628Y-98083333D01*
X181078628Y-98083333D02*
X181078628Y-98464285D01*
X180650057Y-97511904D02*
X180602438Y-97464285D01*
X180602438Y-97464285D02*
X180554819Y-97369047D01*
X180554819Y-97369047D02*
X180554819Y-97130952D01*
X180554819Y-97130952D02*
X180602438Y-97035714D01*
X180602438Y-97035714D02*
X180650057Y-96988095D01*
X180650057Y-96988095D02*
X180745295Y-96940476D01*
X180745295Y-96940476D02*
X180840533Y-96940476D01*
X180840533Y-96940476D02*
X180983390Y-96988095D01*
X180983390Y-96988095D02*
X181554819Y-97559523D01*
X181554819Y-97559523D02*
X181554819Y-96940476D01*
X180554819Y-96607142D02*
X180554819Y-95940476D01*
X180554819Y-95940476D02*
X181554819Y-96369047D01*
X178054819Y-102689285D02*
X177054819Y-102689285D01*
X177054819Y-102689285D02*
X177054819Y-102451190D01*
X177054819Y-102451190D02*
X177102438Y-102308333D01*
X177102438Y-102308333D02*
X177197676Y-102213095D01*
X177197676Y-102213095D02*
X177292914Y-102165476D01*
X177292914Y-102165476D02*
X177483390Y-102117857D01*
X177483390Y-102117857D02*
X177626247Y-102117857D01*
X177626247Y-102117857D02*
X177816723Y-102165476D01*
X177816723Y-102165476D02*
X177911961Y-102213095D01*
X177911961Y-102213095D02*
X178007200Y-102308333D01*
X178007200Y-102308333D02*
X178054819Y-102451190D01*
X178054819Y-102451190D02*
X178054819Y-102689285D01*
X178054819Y-101165476D02*
X178054819Y-101736904D01*
X178054819Y-101451190D02*
X177054819Y-101451190D01*
X177054819Y-101451190D02*
X177197676Y-101546428D01*
X177197676Y-101546428D02*
X177292914Y-101641666D01*
X177292914Y-101641666D02*
X177340533Y-101736904D01*
X178054819Y-100689285D02*
X178054819Y-100498809D01*
X178054819Y-100498809D02*
X178007200Y-100403571D01*
X178007200Y-100403571D02*
X177959580Y-100355952D01*
X177959580Y-100355952D02*
X177816723Y-100260714D01*
X177816723Y-100260714D02*
X177626247Y-100213095D01*
X177626247Y-100213095D02*
X177245295Y-100213095D01*
X177245295Y-100213095D02*
X177150057Y-100260714D01*
X177150057Y-100260714D02*
X177102438Y-100308333D01*
X177102438Y-100308333D02*
X177054819Y-100403571D01*
X177054819Y-100403571D02*
X177054819Y-100594047D01*
X177054819Y-100594047D02*
X177102438Y-100689285D01*
X177102438Y-100689285D02*
X177150057Y-100736904D01*
X177150057Y-100736904D02*
X177245295Y-100784523D01*
X177245295Y-100784523D02*
X177483390Y-100784523D01*
X177483390Y-100784523D02*
X177578628Y-100736904D01*
X177578628Y-100736904D02*
X177626247Y-100689285D01*
X177626247Y-100689285D02*
X177673866Y-100594047D01*
X177673866Y-100594047D02*
X177673866Y-100403571D01*
X177673866Y-100403571D02*
X177626247Y-100308333D01*
X177626247Y-100308333D02*
X177578628Y-100260714D01*
X177578628Y-100260714D02*
X177483390Y-100213095D01*
X158554819Y-69392857D02*
X158078628Y-69726190D01*
X158554819Y-69964285D02*
X157554819Y-69964285D01*
X157554819Y-69964285D02*
X157554819Y-69583333D01*
X157554819Y-69583333D02*
X157602438Y-69488095D01*
X157602438Y-69488095D02*
X157650057Y-69440476D01*
X157650057Y-69440476D02*
X157745295Y-69392857D01*
X157745295Y-69392857D02*
X157888152Y-69392857D01*
X157888152Y-69392857D02*
X157983390Y-69440476D01*
X157983390Y-69440476D02*
X158031009Y-69488095D01*
X158031009Y-69488095D02*
X158078628Y-69583333D01*
X158078628Y-69583333D02*
X158078628Y-69964285D01*
X158554819Y-68440476D02*
X158554819Y-69011904D01*
X158554819Y-68726190D02*
X157554819Y-68726190D01*
X157554819Y-68726190D02*
X157697676Y-68821428D01*
X157697676Y-68821428D02*
X157792914Y-68916666D01*
X157792914Y-68916666D02*
X157840533Y-69011904D01*
X157554819Y-67535714D02*
X157554819Y-68011904D01*
X157554819Y-68011904D02*
X158031009Y-68059523D01*
X158031009Y-68059523D02*
X157983390Y-68011904D01*
X157983390Y-68011904D02*
X157935771Y-67916666D01*
X157935771Y-67916666D02*
X157935771Y-67678571D01*
X157935771Y-67678571D02*
X157983390Y-67583333D01*
X157983390Y-67583333D02*
X158031009Y-67535714D01*
X158031009Y-67535714D02*
X158126247Y-67488095D01*
X158126247Y-67488095D02*
X158364342Y-67488095D01*
X158364342Y-67488095D02*
X158459580Y-67535714D01*
X158459580Y-67535714D02*
X158507200Y-67583333D01*
X158507200Y-67583333D02*
X158554819Y-67678571D01*
X158554819Y-67678571D02*
X158554819Y-67916666D01*
X158554819Y-67916666D02*
X158507200Y-68011904D01*
X158507200Y-68011904D02*
X158459580Y-68059523D01*
X95554819Y-86916666D02*
X95078628Y-87249999D01*
X95554819Y-87488094D02*
X94554819Y-87488094D01*
X94554819Y-87488094D02*
X94554819Y-87107142D01*
X94554819Y-87107142D02*
X94602438Y-87011904D01*
X94602438Y-87011904D02*
X94650057Y-86964285D01*
X94650057Y-86964285D02*
X94745295Y-86916666D01*
X94745295Y-86916666D02*
X94888152Y-86916666D01*
X94888152Y-86916666D02*
X94983390Y-86964285D01*
X94983390Y-86964285D02*
X95031009Y-87011904D01*
X95031009Y-87011904D02*
X95078628Y-87107142D01*
X95078628Y-87107142D02*
X95078628Y-87488094D01*
X94650057Y-86535713D02*
X94602438Y-86488094D01*
X94602438Y-86488094D02*
X94554819Y-86392856D01*
X94554819Y-86392856D02*
X94554819Y-86154761D01*
X94554819Y-86154761D02*
X94602438Y-86059523D01*
X94602438Y-86059523D02*
X94650057Y-86011904D01*
X94650057Y-86011904D02*
X94745295Y-85964285D01*
X94745295Y-85964285D02*
X94840533Y-85964285D01*
X94840533Y-85964285D02*
X94983390Y-86011904D01*
X94983390Y-86011904D02*
X95554819Y-86583332D01*
X95554819Y-86583332D02*
X95554819Y-85964285D01*
X160404819Y-73642857D02*
X159928628Y-73976190D01*
X160404819Y-74214285D02*
X159404819Y-74214285D01*
X159404819Y-74214285D02*
X159404819Y-73833333D01*
X159404819Y-73833333D02*
X159452438Y-73738095D01*
X159452438Y-73738095D02*
X159500057Y-73690476D01*
X159500057Y-73690476D02*
X159595295Y-73642857D01*
X159595295Y-73642857D02*
X159738152Y-73642857D01*
X159738152Y-73642857D02*
X159833390Y-73690476D01*
X159833390Y-73690476D02*
X159881009Y-73738095D01*
X159881009Y-73738095D02*
X159928628Y-73833333D01*
X159928628Y-73833333D02*
X159928628Y-74214285D01*
X160404819Y-72690476D02*
X160404819Y-73261904D01*
X160404819Y-72976190D02*
X159404819Y-72976190D01*
X159404819Y-72976190D02*
X159547676Y-73071428D01*
X159547676Y-73071428D02*
X159642914Y-73166666D01*
X159642914Y-73166666D02*
X159690533Y-73261904D01*
X159404819Y-72357142D02*
X159404819Y-71738095D01*
X159404819Y-71738095D02*
X159785771Y-72071428D01*
X159785771Y-72071428D02*
X159785771Y-71928571D01*
X159785771Y-71928571D02*
X159833390Y-71833333D01*
X159833390Y-71833333D02*
X159881009Y-71785714D01*
X159881009Y-71785714D02*
X159976247Y-71738095D01*
X159976247Y-71738095D02*
X160214342Y-71738095D01*
X160214342Y-71738095D02*
X160309580Y-71785714D01*
X160309580Y-71785714D02*
X160357200Y-71833333D01*
X160357200Y-71833333D02*
X160404819Y-71928571D01*
X160404819Y-71928571D02*
X160404819Y-72214285D01*
X160404819Y-72214285D02*
X160357200Y-72309523D01*
X160357200Y-72309523D02*
X160309580Y-72357142D01*
X104716666Y-122004819D02*
X104716666Y-122719104D01*
X104716666Y-122719104D02*
X104669047Y-122861961D01*
X104669047Y-122861961D02*
X104573809Y-122957200D01*
X104573809Y-122957200D02*
X104430952Y-123004819D01*
X104430952Y-123004819D02*
X104335714Y-123004819D01*
X105145238Y-122100057D02*
X105192857Y-122052438D01*
X105192857Y-122052438D02*
X105288095Y-122004819D01*
X105288095Y-122004819D02*
X105526190Y-122004819D01*
X105526190Y-122004819D02*
X105621428Y-122052438D01*
X105621428Y-122052438D02*
X105669047Y-122100057D01*
X105669047Y-122100057D02*
X105716666Y-122195295D01*
X105716666Y-122195295D02*
X105716666Y-122290533D01*
X105716666Y-122290533D02*
X105669047Y-122433390D01*
X105669047Y-122433390D02*
X105097619Y-123004819D01*
X105097619Y-123004819D02*
X105716666Y-123004819D01*
X173504819Y-98192857D02*
X173028628Y-98526190D01*
X173504819Y-98764285D02*
X172504819Y-98764285D01*
X172504819Y-98764285D02*
X172504819Y-98383333D01*
X172504819Y-98383333D02*
X172552438Y-98288095D01*
X172552438Y-98288095D02*
X172600057Y-98240476D01*
X172600057Y-98240476D02*
X172695295Y-98192857D01*
X172695295Y-98192857D02*
X172838152Y-98192857D01*
X172838152Y-98192857D02*
X172933390Y-98240476D01*
X172933390Y-98240476D02*
X172981009Y-98288095D01*
X172981009Y-98288095D02*
X173028628Y-98383333D01*
X173028628Y-98383333D02*
X173028628Y-98764285D01*
X172600057Y-97811904D02*
X172552438Y-97764285D01*
X172552438Y-97764285D02*
X172504819Y-97669047D01*
X172504819Y-97669047D02*
X172504819Y-97430952D01*
X172504819Y-97430952D02*
X172552438Y-97335714D01*
X172552438Y-97335714D02*
X172600057Y-97288095D01*
X172600057Y-97288095D02*
X172695295Y-97240476D01*
X172695295Y-97240476D02*
X172790533Y-97240476D01*
X172790533Y-97240476D02*
X172933390Y-97288095D01*
X172933390Y-97288095D02*
X173504819Y-97859523D01*
X173504819Y-97859523D02*
X173504819Y-97240476D01*
X172504819Y-96621428D02*
X172504819Y-96526190D01*
X172504819Y-96526190D02*
X172552438Y-96430952D01*
X172552438Y-96430952D02*
X172600057Y-96383333D01*
X172600057Y-96383333D02*
X172695295Y-96335714D01*
X172695295Y-96335714D02*
X172885771Y-96288095D01*
X172885771Y-96288095D02*
X173123866Y-96288095D01*
X173123866Y-96288095D02*
X173314342Y-96335714D01*
X173314342Y-96335714D02*
X173409580Y-96383333D01*
X173409580Y-96383333D02*
X173457200Y-96430952D01*
X173457200Y-96430952D02*
X173504819Y-96526190D01*
X173504819Y-96526190D02*
X173504819Y-96621428D01*
X173504819Y-96621428D02*
X173457200Y-96716666D01*
X173457200Y-96716666D02*
X173409580Y-96764285D01*
X173409580Y-96764285D02*
X173314342Y-96811904D01*
X173314342Y-96811904D02*
X173123866Y-96859523D01*
X173123866Y-96859523D02*
X172885771Y-96859523D01*
X172885771Y-96859523D02*
X172695295Y-96811904D01*
X172695295Y-96811904D02*
X172600057Y-96764285D01*
X172600057Y-96764285D02*
X172552438Y-96716666D01*
X172552438Y-96716666D02*
X172504819Y-96621428D01*
X170054819Y-102714285D02*
X169054819Y-102714285D01*
X169054819Y-102714285D02*
X169054819Y-102476190D01*
X169054819Y-102476190D02*
X169102438Y-102333333D01*
X169102438Y-102333333D02*
X169197676Y-102238095D01*
X169197676Y-102238095D02*
X169292914Y-102190476D01*
X169292914Y-102190476D02*
X169483390Y-102142857D01*
X169483390Y-102142857D02*
X169626247Y-102142857D01*
X169626247Y-102142857D02*
X169816723Y-102190476D01*
X169816723Y-102190476D02*
X169911961Y-102238095D01*
X169911961Y-102238095D02*
X170007200Y-102333333D01*
X170007200Y-102333333D02*
X170054819Y-102476190D01*
X170054819Y-102476190D02*
X170054819Y-102714285D01*
X170054819Y-101190476D02*
X170054819Y-101761904D01*
X170054819Y-101476190D02*
X169054819Y-101476190D01*
X169054819Y-101476190D02*
X169197676Y-101571428D01*
X169197676Y-101571428D02*
X169292914Y-101666666D01*
X169292914Y-101666666D02*
X169340533Y-101761904D01*
X170054819Y-100238095D02*
X170054819Y-100809523D01*
X170054819Y-100523809D02*
X169054819Y-100523809D01*
X169054819Y-100523809D02*
X169197676Y-100619047D01*
X169197676Y-100619047D02*
X169292914Y-100714285D01*
X169292914Y-100714285D02*
X169340533Y-100809523D01*
X175883333Y-109554819D02*
X175550000Y-109078628D01*
X175311905Y-109554819D02*
X175311905Y-108554819D01*
X175311905Y-108554819D02*
X175692857Y-108554819D01*
X175692857Y-108554819D02*
X175788095Y-108602438D01*
X175788095Y-108602438D02*
X175835714Y-108650057D01*
X175835714Y-108650057D02*
X175883333Y-108745295D01*
X175883333Y-108745295D02*
X175883333Y-108888152D01*
X175883333Y-108888152D02*
X175835714Y-108983390D01*
X175835714Y-108983390D02*
X175788095Y-109031009D01*
X175788095Y-109031009D02*
X175692857Y-109078628D01*
X175692857Y-109078628D02*
X175311905Y-109078628D01*
X176740476Y-108888152D02*
X176740476Y-109554819D01*
X176502381Y-108507200D02*
X176264286Y-109221485D01*
X176264286Y-109221485D02*
X176883333Y-109221485D01*
X190102819Y-68738094D02*
X190102819Y-68166666D01*
X191102819Y-68452380D02*
X190102819Y-68452380D01*
X191102819Y-67833332D02*
X190102819Y-67833332D01*
X190102819Y-67833332D02*
X190102819Y-67452380D01*
X190102819Y-67452380D02*
X190150438Y-67357142D01*
X190150438Y-67357142D02*
X190198057Y-67309523D01*
X190198057Y-67309523D02*
X190293295Y-67261904D01*
X190293295Y-67261904D02*
X190436152Y-67261904D01*
X190436152Y-67261904D02*
X190531390Y-67309523D01*
X190531390Y-67309523D02*
X190579009Y-67357142D01*
X190579009Y-67357142D02*
X190626628Y-67452380D01*
X190626628Y-67452380D02*
X190626628Y-67833332D01*
X191102819Y-66309523D02*
X191102819Y-66880951D01*
X191102819Y-66595237D02*
X190102819Y-66595237D01*
X190102819Y-66595237D02*
X190245676Y-66690475D01*
X190245676Y-66690475D02*
X190340914Y-66785713D01*
X190340914Y-66785713D02*
X190388533Y-66880951D01*
X190102819Y-65976189D02*
X190102819Y-65309523D01*
X190102819Y-65309523D02*
X191102819Y-65738094D01*
X144174819Y-53568094D02*
X143174819Y-53568094D01*
X143174819Y-53568094D02*
X143174819Y-53329999D01*
X143174819Y-53329999D02*
X143222438Y-53187142D01*
X143222438Y-53187142D02*
X143317676Y-53091904D01*
X143317676Y-53091904D02*
X143412914Y-53044285D01*
X143412914Y-53044285D02*
X143603390Y-52996666D01*
X143603390Y-52996666D02*
X143746247Y-52996666D01*
X143746247Y-52996666D02*
X143936723Y-53044285D01*
X143936723Y-53044285D02*
X144031961Y-53091904D01*
X144031961Y-53091904D02*
X144127200Y-53187142D01*
X144127200Y-53187142D02*
X144174819Y-53329999D01*
X144174819Y-53329999D02*
X144174819Y-53568094D01*
X143174819Y-52663332D02*
X143174819Y-52044285D01*
X143174819Y-52044285D02*
X143555771Y-52377618D01*
X143555771Y-52377618D02*
X143555771Y-52234761D01*
X143555771Y-52234761D02*
X143603390Y-52139523D01*
X143603390Y-52139523D02*
X143651009Y-52091904D01*
X143651009Y-52091904D02*
X143746247Y-52044285D01*
X143746247Y-52044285D02*
X143984342Y-52044285D01*
X143984342Y-52044285D02*
X144079580Y-52091904D01*
X144079580Y-52091904D02*
X144127200Y-52139523D01*
X144127200Y-52139523D02*
X144174819Y-52234761D01*
X144174819Y-52234761D02*
X144174819Y-52520475D01*
X144174819Y-52520475D02*
X144127200Y-52615713D01*
X144127200Y-52615713D02*
X144079580Y-52663332D01*
X141704819Y-46211904D02*
X140704819Y-46211904D01*
X141704819Y-45640476D02*
X141133390Y-46069047D01*
X140704819Y-45640476D02*
X141276247Y-46211904D01*
X121183333Y-52709580D02*
X121135714Y-52757200D01*
X121135714Y-52757200D02*
X120992857Y-52804819D01*
X120992857Y-52804819D02*
X120897619Y-52804819D01*
X120897619Y-52804819D02*
X120754762Y-52757200D01*
X120754762Y-52757200D02*
X120659524Y-52661961D01*
X120659524Y-52661961D02*
X120611905Y-52566723D01*
X120611905Y-52566723D02*
X120564286Y-52376247D01*
X120564286Y-52376247D02*
X120564286Y-52233390D01*
X120564286Y-52233390D02*
X120611905Y-52042914D01*
X120611905Y-52042914D02*
X120659524Y-51947676D01*
X120659524Y-51947676D02*
X120754762Y-51852438D01*
X120754762Y-51852438D02*
X120897619Y-51804819D01*
X120897619Y-51804819D02*
X120992857Y-51804819D01*
X120992857Y-51804819D02*
X121135714Y-51852438D01*
X121135714Y-51852438D02*
X121183333Y-51900057D01*
X121516667Y-51804819D02*
X122135714Y-51804819D01*
X122135714Y-51804819D02*
X121802381Y-52185771D01*
X121802381Y-52185771D02*
X121945238Y-52185771D01*
X121945238Y-52185771D02*
X122040476Y-52233390D01*
X122040476Y-52233390D02*
X122088095Y-52281009D01*
X122088095Y-52281009D02*
X122135714Y-52376247D01*
X122135714Y-52376247D02*
X122135714Y-52614342D01*
X122135714Y-52614342D02*
X122088095Y-52709580D01*
X122088095Y-52709580D02*
X122040476Y-52757200D01*
X122040476Y-52757200D02*
X121945238Y-52804819D01*
X121945238Y-52804819D02*
X121659524Y-52804819D01*
X121659524Y-52804819D02*
X121564286Y-52757200D01*
X121564286Y-52757200D02*
X121516667Y-52709580D01*
X184607142Y-121404819D02*
X184273809Y-120928628D01*
X184035714Y-121404819D02*
X184035714Y-120404819D01*
X184035714Y-120404819D02*
X184416666Y-120404819D01*
X184416666Y-120404819D02*
X184511904Y-120452438D01*
X184511904Y-120452438D02*
X184559523Y-120500057D01*
X184559523Y-120500057D02*
X184607142Y-120595295D01*
X184607142Y-120595295D02*
X184607142Y-120738152D01*
X184607142Y-120738152D02*
X184559523Y-120833390D01*
X184559523Y-120833390D02*
X184511904Y-120881009D01*
X184511904Y-120881009D02*
X184416666Y-120928628D01*
X184416666Y-120928628D02*
X184035714Y-120928628D01*
X184940476Y-120404819D02*
X185559523Y-120404819D01*
X185559523Y-120404819D02*
X185226190Y-120785771D01*
X185226190Y-120785771D02*
X185369047Y-120785771D01*
X185369047Y-120785771D02*
X185464285Y-120833390D01*
X185464285Y-120833390D02*
X185511904Y-120881009D01*
X185511904Y-120881009D02*
X185559523Y-120976247D01*
X185559523Y-120976247D02*
X185559523Y-121214342D01*
X185559523Y-121214342D02*
X185511904Y-121309580D01*
X185511904Y-121309580D02*
X185464285Y-121357200D01*
X185464285Y-121357200D02*
X185369047Y-121404819D01*
X185369047Y-121404819D02*
X185083333Y-121404819D01*
X185083333Y-121404819D02*
X184988095Y-121357200D01*
X184988095Y-121357200D02*
X184940476Y-121309580D01*
X186464285Y-120404819D02*
X185988095Y-120404819D01*
X185988095Y-120404819D02*
X185940476Y-120881009D01*
X185940476Y-120881009D02*
X185988095Y-120833390D01*
X185988095Y-120833390D02*
X186083333Y-120785771D01*
X186083333Y-120785771D02*
X186321428Y-120785771D01*
X186321428Y-120785771D02*
X186416666Y-120833390D01*
X186416666Y-120833390D02*
X186464285Y-120881009D01*
X186464285Y-120881009D02*
X186511904Y-120976247D01*
X186511904Y-120976247D02*
X186511904Y-121214342D01*
X186511904Y-121214342D02*
X186464285Y-121309580D01*
X186464285Y-121309580D02*
X186416666Y-121357200D01*
X186416666Y-121357200D02*
X186321428Y-121404819D01*
X186321428Y-121404819D02*
X186083333Y-121404819D01*
X186083333Y-121404819D02*
X185988095Y-121357200D01*
X185988095Y-121357200D02*
X185940476Y-121309580D01*
D12*
X105049047Y-65295270D02*
X104928095Y-65234794D01*
X104928095Y-65234794D02*
X104807142Y-65113842D01*
X104807142Y-65113842D02*
X104625714Y-64932413D01*
X104625714Y-64932413D02*
X104504761Y-64871937D01*
X104504761Y-64871937D02*
X104383809Y-64871937D01*
X104444285Y-65174318D02*
X104323333Y-65113842D01*
X104323333Y-65113842D02*
X104202380Y-64992889D01*
X104202380Y-64992889D02*
X104141904Y-64750984D01*
X104141904Y-64750984D02*
X104141904Y-64327651D01*
X104141904Y-64327651D02*
X104202380Y-64085746D01*
X104202380Y-64085746D02*
X104323333Y-63964794D01*
X104323333Y-63964794D02*
X104444285Y-63904318D01*
X104444285Y-63904318D02*
X104686190Y-63904318D01*
X104686190Y-63904318D02*
X104807142Y-63964794D01*
X104807142Y-63964794D02*
X104928095Y-64085746D01*
X104928095Y-64085746D02*
X104988571Y-64327651D01*
X104988571Y-64327651D02*
X104988571Y-64750984D01*
X104988571Y-64750984D02*
X104928095Y-64992889D01*
X104928095Y-64992889D02*
X104807142Y-65113842D01*
X104807142Y-65113842D02*
X104686190Y-65174318D01*
X104686190Y-65174318D02*
X104444285Y-65174318D01*
X105472380Y-64025270D02*
X105532856Y-63964794D01*
X105532856Y-63964794D02*
X105653809Y-63904318D01*
X105653809Y-63904318D02*
X105956190Y-63904318D01*
X105956190Y-63904318D02*
X106077142Y-63964794D01*
X106077142Y-63964794D02*
X106137618Y-64025270D01*
X106137618Y-64025270D02*
X106198095Y-64146222D01*
X106198095Y-64146222D02*
X106198095Y-64267175D01*
X106198095Y-64267175D02*
X106137618Y-64448603D01*
X106137618Y-64448603D02*
X105411904Y-65174318D01*
X105411904Y-65174318D02*
X106198095Y-65174318D01*
D11*
X151154819Y-56679523D02*
X150154819Y-56679523D01*
X150154819Y-56679523D02*
X150869104Y-56346190D01*
X150869104Y-56346190D02*
X150154819Y-56012857D01*
X150154819Y-56012857D02*
X151154819Y-56012857D01*
X151154819Y-55012857D02*
X151154819Y-55584285D01*
X151154819Y-55298571D02*
X150154819Y-55298571D01*
X150154819Y-55298571D02*
X150297676Y-55393809D01*
X150297676Y-55393809D02*
X150392914Y-55489047D01*
X150392914Y-55489047D02*
X150440533Y-55584285D01*
X158854819Y-78142857D02*
X158378628Y-78476190D01*
X158854819Y-78714285D02*
X157854819Y-78714285D01*
X157854819Y-78714285D02*
X157854819Y-78333333D01*
X157854819Y-78333333D02*
X157902438Y-78238095D01*
X157902438Y-78238095D02*
X157950057Y-78190476D01*
X157950057Y-78190476D02*
X158045295Y-78142857D01*
X158045295Y-78142857D02*
X158188152Y-78142857D01*
X158188152Y-78142857D02*
X158283390Y-78190476D01*
X158283390Y-78190476D02*
X158331009Y-78238095D01*
X158331009Y-78238095D02*
X158378628Y-78333333D01*
X158378628Y-78333333D02*
X158378628Y-78714285D01*
X158854819Y-77190476D02*
X158854819Y-77761904D01*
X158854819Y-77476190D02*
X157854819Y-77476190D01*
X157854819Y-77476190D02*
X157997676Y-77571428D01*
X157997676Y-77571428D02*
X158092914Y-77666666D01*
X158092914Y-77666666D02*
X158140533Y-77761904D01*
X158188152Y-76333333D02*
X158854819Y-76333333D01*
X157807200Y-76571428D02*
X158521485Y-76809523D01*
X158521485Y-76809523D02*
X158521485Y-76190476D01*
X107561905Y-78704819D02*
X107561905Y-77704819D01*
X107561905Y-77704819D02*
X107800000Y-77704819D01*
X107800000Y-77704819D02*
X107942857Y-77752438D01*
X107942857Y-77752438D02*
X108038095Y-77847676D01*
X108038095Y-77847676D02*
X108085714Y-77942914D01*
X108085714Y-77942914D02*
X108133333Y-78133390D01*
X108133333Y-78133390D02*
X108133333Y-78276247D01*
X108133333Y-78276247D02*
X108085714Y-78466723D01*
X108085714Y-78466723D02*
X108038095Y-78561961D01*
X108038095Y-78561961D02*
X107942857Y-78657200D01*
X107942857Y-78657200D02*
X107800000Y-78704819D01*
X107800000Y-78704819D02*
X107561905Y-78704819D01*
X108990476Y-78038152D02*
X108990476Y-78704819D01*
X108752381Y-77657200D02*
X108514286Y-78371485D01*
X108514286Y-78371485D02*
X109133333Y-78371485D01*
X130454819Y-107688094D02*
X130454819Y-107116666D01*
X131454819Y-107402380D02*
X130454819Y-107402380D01*
X131454819Y-106783332D02*
X130454819Y-106783332D01*
X130454819Y-106783332D02*
X130454819Y-106402380D01*
X130454819Y-106402380D02*
X130502438Y-106307142D01*
X130502438Y-106307142D02*
X130550057Y-106259523D01*
X130550057Y-106259523D02*
X130645295Y-106211904D01*
X130645295Y-106211904D02*
X130788152Y-106211904D01*
X130788152Y-106211904D02*
X130883390Y-106259523D01*
X130883390Y-106259523D02*
X130931009Y-106307142D01*
X130931009Y-106307142D02*
X130978628Y-106402380D01*
X130978628Y-106402380D02*
X130978628Y-106783332D01*
X131454819Y-105259523D02*
X131454819Y-105830951D01*
X131454819Y-105545237D02*
X130454819Y-105545237D01*
X130454819Y-105545237D02*
X130597676Y-105640475D01*
X130597676Y-105640475D02*
X130692914Y-105735713D01*
X130692914Y-105735713D02*
X130740533Y-105830951D01*
X131454819Y-104783332D02*
X131454819Y-104592856D01*
X131454819Y-104592856D02*
X131407200Y-104497618D01*
X131407200Y-104497618D02*
X131359580Y-104449999D01*
X131359580Y-104449999D02*
X131216723Y-104354761D01*
X131216723Y-104354761D02*
X131026247Y-104307142D01*
X131026247Y-104307142D02*
X130645295Y-104307142D01*
X130645295Y-104307142D02*
X130550057Y-104354761D01*
X130550057Y-104354761D02*
X130502438Y-104402380D01*
X130502438Y-104402380D02*
X130454819Y-104497618D01*
X130454819Y-104497618D02*
X130454819Y-104688094D01*
X130454819Y-104688094D02*
X130502438Y-104783332D01*
X130502438Y-104783332D02*
X130550057Y-104830951D01*
X130550057Y-104830951D02*
X130645295Y-104878570D01*
X130645295Y-104878570D02*
X130883390Y-104878570D01*
X130883390Y-104878570D02*
X130978628Y-104830951D01*
X130978628Y-104830951D02*
X131026247Y-104783332D01*
X131026247Y-104783332D02*
X131073866Y-104688094D01*
X131073866Y-104688094D02*
X131073866Y-104497618D01*
X131073866Y-104497618D02*
X131026247Y-104402380D01*
X131026247Y-104402380D02*
X130978628Y-104354761D01*
X130978628Y-104354761D02*
X130883390Y-104307142D01*
X112716666Y-143004819D02*
X112716666Y-143719104D01*
X112716666Y-143719104D02*
X112669047Y-143861961D01*
X112669047Y-143861961D02*
X112573809Y-143957200D01*
X112573809Y-143957200D02*
X112430952Y-144004819D01*
X112430952Y-144004819D02*
X112335714Y-144004819D01*
X113097619Y-143004819D02*
X113716666Y-143004819D01*
X113716666Y-143004819D02*
X113383333Y-143385771D01*
X113383333Y-143385771D02*
X113526190Y-143385771D01*
X113526190Y-143385771D02*
X113621428Y-143433390D01*
X113621428Y-143433390D02*
X113669047Y-143481009D01*
X113669047Y-143481009D02*
X113716666Y-143576247D01*
X113716666Y-143576247D02*
X113716666Y-143814342D01*
X113716666Y-143814342D02*
X113669047Y-143909580D01*
X113669047Y-143909580D02*
X113621428Y-143957200D01*
X113621428Y-143957200D02*
X113526190Y-144004819D01*
X113526190Y-144004819D02*
X113240476Y-144004819D01*
X113240476Y-144004819D02*
X113145238Y-143957200D01*
X113145238Y-143957200D02*
X113097619Y-143909580D01*
X178054819Y-97867857D02*
X177578628Y-98201190D01*
X178054819Y-98439285D02*
X177054819Y-98439285D01*
X177054819Y-98439285D02*
X177054819Y-98058333D01*
X177054819Y-98058333D02*
X177102438Y-97963095D01*
X177102438Y-97963095D02*
X177150057Y-97915476D01*
X177150057Y-97915476D02*
X177245295Y-97867857D01*
X177245295Y-97867857D02*
X177388152Y-97867857D01*
X177388152Y-97867857D02*
X177483390Y-97915476D01*
X177483390Y-97915476D02*
X177531009Y-97963095D01*
X177531009Y-97963095D02*
X177578628Y-98058333D01*
X177578628Y-98058333D02*
X177578628Y-98439285D01*
X177150057Y-97486904D02*
X177102438Y-97439285D01*
X177102438Y-97439285D02*
X177054819Y-97344047D01*
X177054819Y-97344047D02*
X177054819Y-97105952D01*
X177054819Y-97105952D02*
X177102438Y-97010714D01*
X177102438Y-97010714D02*
X177150057Y-96963095D01*
X177150057Y-96963095D02*
X177245295Y-96915476D01*
X177245295Y-96915476D02*
X177340533Y-96915476D01*
X177340533Y-96915476D02*
X177483390Y-96963095D01*
X177483390Y-96963095D02*
X178054819Y-97534523D01*
X178054819Y-97534523D02*
X178054819Y-96915476D01*
X177483390Y-96344047D02*
X177435771Y-96439285D01*
X177435771Y-96439285D02*
X177388152Y-96486904D01*
X177388152Y-96486904D02*
X177292914Y-96534523D01*
X177292914Y-96534523D02*
X177245295Y-96534523D01*
X177245295Y-96534523D02*
X177150057Y-96486904D01*
X177150057Y-96486904D02*
X177102438Y-96439285D01*
X177102438Y-96439285D02*
X177054819Y-96344047D01*
X177054819Y-96344047D02*
X177054819Y-96153571D01*
X177054819Y-96153571D02*
X177102438Y-96058333D01*
X177102438Y-96058333D02*
X177150057Y-96010714D01*
X177150057Y-96010714D02*
X177245295Y-95963095D01*
X177245295Y-95963095D02*
X177292914Y-95963095D01*
X177292914Y-95963095D02*
X177388152Y-96010714D01*
X177388152Y-96010714D02*
X177435771Y-96058333D01*
X177435771Y-96058333D02*
X177483390Y-96153571D01*
X177483390Y-96153571D02*
X177483390Y-96344047D01*
X177483390Y-96344047D02*
X177531009Y-96439285D01*
X177531009Y-96439285D02*
X177578628Y-96486904D01*
X177578628Y-96486904D02*
X177673866Y-96534523D01*
X177673866Y-96534523D02*
X177864342Y-96534523D01*
X177864342Y-96534523D02*
X177959580Y-96486904D01*
X177959580Y-96486904D02*
X178007200Y-96439285D01*
X178007200Y-96439285D02*
X178054819Y-96344047D01*
X178054819Y-96344047D02*
X178054819Y-96153571D01*
X178054819Y-96153571D02*
X178007200Y-96058333D01*
X178007200Y-96058333D02*
X177959580Y-96010714D01*
X177959580Y-96010714D02*
X177864342Y-95963095D01*
X177864342Y-95963095D02*
X177673866Y-95963095D01*
X177673866Y-95963095D02*
X177578628Y-96010714D01*
X177578628Y-96010714D02*
X177531009Y-96058333D01*
X177531009Y-96058333D02*
X177483390Y-96153571D01*
X146916666Y-53904819D02*
X146916666Y-54619104D01*
X146916666Y-54619104D02*
X146869047Y-54761961D01*
X146869047Y-54761961D02*
X146773809Y-54857200D01*
X146773809Y-54857200D02*
X146630952Y-54904819D01*
X146630952Y-54904819D02*
X146535714Y-54904819D01*
X147392857Y-54904819D02*
X147392857Y-53904819D01*
X147392857Y-53904819D02*
X147773809Y-53904819D01*
X147773809Y-53904819D02*
X147869047Y-53952438D01*
X147869047Y-53952438D02*
X147916666Y-54000057D01*
X147916666Y-54000057D02*
X147964285Y-54095295D01*
X147964285Y-54095295D02*
X147964285Y-54238152D01*
X147964285Y-54238152D02*
X147916666Y-54333390D01*
X147916666Y-54333390D02*
X147869047Y-54381009D01*
X147869047Y-54381009D02*
X147773809Y-54428628D01*
X147773809Y-54428628D02*
X147392857Y-54428628D01*
X148297619Y-53904819D02*
X148916666Y-53904819D01*
X148916666Y-53904819D02*
X148583333Y-54285771D01*
X148583333Y-54285771D02*
X148726190Y-54285771D01*
X148726190Y-54285771D02*
X148821428Y-54333390D01*
X148821428Y-54333390D02*
X148869047Y-54381009D01*
X148869047Y-54381009D02*
X148916666Y-54476247D01*
X148916666Y-54476247D02*
X148916666Y-54714342D01*
X148916666Y-54714342D02*
X148869047Y-54809580D01*
X148869047Y-54809580D02*
X148821428Y-54857200D01*
X148821428Y-54857200D02*
X148726190Y-54904819D01*
X148726190Y-54904819D02*
X148440476Y-54904819D01*
X148440476Y-54904819D02*
X148345238Y-54857200D01*
X148345238Y-54857200D02*
X148297619Y-54809580D01*
X159790419Y-63257142D02*
X159742800Y-63209523D01*
X159742800Y-63209523D02*
X159695180Y-63066666D01*
X159695180Y-63066666D02*
X159695180Y-62971428D01*
X159695180Y-62971428D02*
X159742800Y-62828571D01*
X159742800Y-62828571D02*
X159838038Y-62733333D01*
X159838038Y-62733333D02*
X159933276Y-62685714D01*
X159933276Y-62685714D02*
X160123752Y-62638095D01*
X160123752Y-62638095D02*
X160266609Y-62638095D01*
X160266609Y-62638095D02*
X160457085Y-62685714D01*
X160457085Y-62685714D02*
X160552323Y-62733333D01*
X160552323Y-62733333D02*
X160647561Y-62828571D01*
X160647561Y-62828571D02*
X160695180Y-62971428D01*
X160695180Y-62971428D02*
X160695180Y-63066666D01*
X160695180Y-63066666D02*
X160647561Y-63209523D01*
X160647561Y-63209523D02*
X160599942Y-63257142D01*
X159695180Y-64209523D02*
X159695180Y-63638095D01*
X159695180Y-63923809D02*
X160695180Y-63923809D01*
X160695180Y-63923809D02*
X160552323Y-63828571D01*
X160552323Y-63828571D02*
X160457085Y-63733333D01*
X160457085Y-63733333D02*
X160409466Y-63638095D01*
X160695180Y-65066666D02*
X160695180Y-64876190D01*
X160695180Y-64876190D02*
X160647561Y-64780952D01*
X160647561Y-64780952D02*
X160599942Y-64733333D01*
X160599942Y-64733333D02*
X160457085Y-64638095D01*
X160457085Y-64638095D02*
X160266609Y-64590476D01*
X160266609Y-64590476D02*
X159885657Y-64590476D01*
X159885657Y-64590476D02*
X159790419Y-64638095D01*
X159790419Y-64638095D02*
X159742800Y-64685714D01*
X159742800Y-64685714D02*
X159695180Y-64780952D01*
X159695180Y-64780952D02*
X159695180Y-64971428D01*
X159695180Y-64971428D02*
X159742800Y-65066666D01*
X159742800Y-65066666D02*
X159790419Y-65114285D01*
X159790419Y-65114285D02*
X159885657Y-65161904D01*
X159885657Y-65161904D02*
X160123752Y-65161904D01*
X160123752Y-65161904D02*
X160218990Y-65114285D01*
X160218990Y-65114285D02*
X160266609Y-65066666D01*
X160266609Y-65066666D02*
X160314228Y-64971428D01*
X160314228Y-64971428D02*
X160314228Y-64780952D01*
X160314228Y-64780952D02*
X160266609Y-64685714D01*
X160266609Y-64685714D02*
X160218990Y-64638095D01*
X160218990Y-64638095D02*
X160123752Y-64590476D01*
X131761905Y-122852819D02*
X132333333Y-122852819D01*
X132047619Y-123852819D02*
X132047619Y-122852819D01*
X132666667Y-123852819D02*
X132666667Y-122852819D01*
X132666667Y-122852819D02*
X133047619Y-122852819D01*
X133047619Y-122852819D02*
X133142857Y-122900438D01*
X133142857Y-122900438D02*
X133190476Y-122948057D01*
X133190476Y-122948057D02*
X133238095Y-123043295D01*
X133238095Y-123043295D02*
X133238095Y-123186152D01*
X133238095Y-123186152D02*
X133190476Y-123281390D01*
X133190476Y-123281390D02*
X133142857Y-123329009D01*
X133142857Y-123329009D02*
X133047619Y-123376628D01*
X133047619Y-123376628D02*
X132666667Y-123376628D01*
X133619048Y-122948057D02*
X133666667Y-122900438D01*
X133666667Y-122900438D02*
X133761905Y-122852819D01*
X133761905Y-122852819D02*
X134000000Y-122852819D01*
X134000000Y-122852819D02*
X134095238Y-122900438D01*
X134095238Y-122900438D02*
X134142857Y-122948057D01*
X134142857Y-122948057D02*
X134190476Y-123043295D01*
X134190476Y-123043295D02*
X134190476Y-123138533D01*
X134190476Y-123138533D02*
X134142857Y-123281390D01*
X134142857Y-123281390D02*
X133571429Y-123852819D01*
X133571429Y-123852819D02*
X134190476Y-123852819D01*
X135095238Y-122852819D02*
X134619048Y-122852819D01*
X134619048Y-122852819D02*
X134571429Y-123329009D01*
X134571429Y-123329009D02*
X134619048Y-123281390D01*
X134619048Y-123281390D02*
X134714286Y-123233771D01*
X134714286Y-123233771D02*
X134952381Y-123233771D01*
X134952381Y-123233771D02*
X135047619Y-123281390D01*
X135047619Y-123281390D02*
X135095238Y-123329009D01*
X135095238Y-123329009D02*
X135142857Y-123424247D01*
X135142857Y-123424247D02*
X135142857Y-123662342D01*
X135142857Y-123662342D02*
X135095238Y-123757580D01*
X135095238Y-123757580D02*
X135047619Y-123805200D01*
X135047619Y-123805200D02*
X134952381Y-123852819D01*
X134952381Y-123852819D02*
X134714286Y-123852819D01*
X134714286Y-123852819D02*
X134619048Y-123805200D01*
X134619048Y-123805200D02*
X134571429Y-123757580D01*
X114088095Y-120904819D02*
X114088095Y-121714342D01*
X114088095Y-121714342D02*
X114135714Y-121809580D01*
X114135714Y-121809580D02*
X114183333Y-121857200D01*
X114183333Y-121857200D02*
X114278571Y-121904819D01*
X114278571Y-121904819D02*
X114469047Y-121904819D01*
X114469047Y-121904819D02*
X114564285Y-121857200D01*
X114564285Y-121857200D02*
X114611904Y-121809580D01*
X114611904Y-121809580D02*
X114659523Y-121714342D01*
X114659523Y-121714342D02*
X114659523Y-120904819D01*
X114897619Y-122000057D02*
X115659523Y-122000057D01*
X116230952Y-121381009D02*
X116373809Y-121428628D01*
X116373809Y-121428628D02*
X116421428Y-121476247D01*
X116421428Y-121476247D02*
X116469047Y-121571485D01*
X116469047Y-121571485D02*
X116469047Y-121714342D01*
X116469047Y-121714342D02*
X116421428Y-121809580D01*
X116421428Y-121809580D02*
X116373809Y-121857200D01*
X116373809Y-121857200D02*
X116278571Y-121904819D01*
X116278571Y-121904819D02*
X115897619Y-121904819D01*
X115897619Y-121904819D02*
X115897619Y-120904819D01*
X115897619Y-120904819D02*
X116230952Y-120904819D01*
X116230952Y-120904819D02*
X116326190Y-120952438D01*
X116326190Y-120952438D02*
X116373809Y-121000057D01*
X116373809Y-121000057D02*
X116421428Y-121095295D01*
X116421428Y-121095295D02*
X116421428Y-121190533D01*
X116421428Y-121190533D02*
X116373809Y-121285771D01*
X116373809Y-121285771D02*
X116326190Y-121333390D01*
X116326190Y-121333390D02*
X116230952Y-121381009D01*
X116230952Y-121381009D02*
X115897619Y-121381009D01*
X116754762Y-120904819D02*
X117326190Y-120904819D01*
X117040476Y-121904819D02*
X117040476Y-120904819D01*
X117659524Y-121904819D02*
X117659524Y-120904819D01*
X117659524Y-120904819D02*
X118230952Y-121904819D01*
X118230952Y-121904819D02*
X118230952Y-120904819D01*
X118469048Y-122000057D02*
X119230952Y-122000057D01*
X119469048Y-121381009D02*
X119802381Y-121381009D01*
X119945238Y-121904819D02*
X119469048Y-121904819D01*
X119469048Y-121904819D02*
X119469048Y-120904819D01*
X119469048Y-120904819D02*
X119945238Y-120904819D01*
X120278572Y-120904819D02*
X120945238Y-121904819D01*
X120945238Y-120904819D02*
X120278572Y-121904819D01*
X121326191Y-121904819D02*
X121326191Y-120904819D01*
X121326191Y-120904819D02*
X121707143Y-120904819D01*
X121707143Y-120904819D02*
X121802381Y-120952438D01*
X121802381Y-120952438D02*
X121850000Y-121000057D01*
X121850000Y-121000057D02*
X121897619Y-121095295D01*
X121897619Y-121095295D02*
X121897619Y-121238152D01*
X121897619Y-121238152D02*
X121850000Y-121333390D01*
X121850000Y-121333390D02*
X121802381Y-121381009D01*
X121802381Y-121381009D02*
X121707143Y-121428628D01*
X121707143Y-121428628D02*
X121326191Y-121428628D01*
X122278572Y-121619104D02*
X122754762Y-121619104D01*
X122183334Y-121904819D02*
X122516667Y-120904819D01*
X122516667Y-120904819D02*
X122850000Y-121904819D01*
X123183334Y-121904819D02*
X123183334Y-120904819D01*
X123183334Y-120904819D02*
X123754762Y-121904819D01*
X123754762Y-121904819D02*
X123754762Y-120904819D01*
X124230953Y-121904819D02*
X124230953Y-120904819D01*
X124230953Y-120904819D02*
X124469048Y-120904819D01*
X124469048Y-120904819D02*
X124611905Y-120952438D01*
X124611905Y-120952438D02*
X124707143Y-121047676D01*
X124707143Y-121047676D02*
X124754762Y-121142914D01*
X124754762Y-121142914D02*
X124802381Y-121333390D01*
X124802381Y-121333390D02*
X124802381Y-121476247D01*
X124802381Y-121476247D02*
X124754762Y-121666723D01*
X124754762Y-121666723D02*
X124707143Y-121761961D01*
X124707143Y-121761961D02*
X124611905Y-121857200D01*
X124611905Y-121857200D02*
X124469048Y-121904819D01*
X124469048Y-121904819D02*
X124230953Y-121904819D01*
X125230953Y-121381009D02*
X125564286Y-121381009D01*
X125707143Y-121904819D02*
X125230953Y-121904819D01*
X125230953Y-121904819D02*
X125230953Y-120904819D01*
X125230953Y-120904819D02*
X125707143Y-120904819D01*
X126707143Y-121904819D02*
X126373810Y-121428628D01*
X126135715Y-121904819D02*
X126135715Y-120904819D01*
X126135715Y-120904819D02*
X126516667Y-120904819D01*
X126516667Y-120904819D02*
X126611905Y-120952438D01*
X126611905Y-120952438D02*
X126659524Y-121000057D01*
X126659524Y-121000057D02*
X126707143Y-121095295D01*
X126707143Y-121095295D02*
X126707143Y-121238152D01*
X126707143Y-121238152D02*
X126659524Y-121333390D01*
X126659524Y-121333390D02*
X126611905Y-121381009D01*
X126611905Y-121381009D02*
X126516667Y-121428628D01*
X126516667Y-121428628D02*
X126135715Y-121428628D01*
X127659524Y-121904819D02*
X127088096Y-121904819D01*
X127373810Y-121904819D02*
X127373810Y-120904819D01*
X127373810Y-120904819D02*
X127278572Y-121047676D01*
X127278572Y-121047676D02*
X127183334Y-121142914D01*
X127183334Y-121142914D02*
X127088096Y-121190533D01*
X122954819Y-107688094D02*
X122954819Y-107116666D01*
X123954819Y-107402380D02*
X122954819Y-107402380D01*
X123954819Y-106783332D02*
X122954819Y-106783332D01*
X122954819Y-106783332D02*
X122954819Y-106402380D01*
X122954819Y-106402380D02*
X123002438Y-106307142D01*
X123002438Y-106307142D02*
X123050057Y-106259523D01*
X123050057Y-106259523D02*
X123145295Y-106211904D01*
X123145295Y-106211904D02*
X123288152Y-106211904D01*
X123288152Y-106211904D02*
X123383390Y-106259523D01*
X123383390Y-106259523D02*
X123431009Y-106307142D01*
X123431009Y-106307142D02*
X123478628Y-106402380D01*
X123478628Y-106402380D02*
X123478628Y-106783332D01*
X123050057Y-105830951D02*
X123002438Y-105783332D01*
X123002438Y-105783332D02*
X122954819Y-105688094D01*
X122954819Y-105688094D02*
X122954819Y-105449999D01*
X122954819Y-105449999D02*
X123002438Y-105354761D01*
X123002438Y-105354761D02*
X123050057Y-105307142D01*
X123050057Y-105307142D02*
X123145295Y-105259523D01*
X123145295Y-105259523D02*
X123240533Y-105259523D01*
X123240533Y-105259523D02*
X123383390Y-105307142D01*
X123383390Y-105307142D02*
X123954819Y-105878570D01*
X123954819Y-105878570D02*
X123954819Y-105259523D01*
X123050057Y-104878570D02*
X123002438Y-104830951D01*
X123002438Y-104830951D02*
X122954819Y-104735713D01*
X122954819Y-104735713D02*
X122954819Y-104497618D01*
X122954819Y-104497618D02*
X123002438Y-104402380D01*
X123002438Y-104402380D02*
X123050057Y-104354761D01*
X123050057Y-104354761D02*
X123145295Y-104307142D01*
X123145295Y-104307142D02*
X123240533Y-104307142D01*
X123240533Y-104307142D02*
X123383390Y-104354761D01*
X123383390Y-104354761D02*
X123954819Y-104926189D01*
X123954819Y-104926189D02*
X123954819Y-104307142D01*
X110488095Y-45206819D02*
X111059523Y-45206819D01*
X110773809Y-46206819D02*
X110773809Y-45206819D01*
X111392857Y-46206819D02*
X111392857Y-45206819D01*
X111392857Y-45206819D02*
X111773809Y-45206819D01*
X111773809Y-45206819D02*
X111869047Y-45254438D01*
X111869047Y-45254438D02*
X111916666Y-45302057D01*
X111916666Y-45302057D02*
X111964285Y-45397295D01*
X111964285Y-45397295D02*
X111964285Y-45540152D01*
X111964285Y-45540152D02*
X111916666Y-45635390D01*
X111916666Y-45635390D02*
X111869047Y-45683009D01*
X111869047Y-45683009D02*
X111773809Y-45730628D01*
X111773809Y-45730628D02*
X111392857Y-45730628D01*
X112345238Y-45302057D02*
X112392857Y-45254438D01*
X112392857Y-45254438D02*
X112488095Y-45206819D01*
X112488095Y-45206819D02*
X112726190Y-45206819D01*
X112726190Y-45206819D02*
X112821428Y-45254438D01*
X112821428Y-45254438D02*
X112869047Y-45302057D01*
X112869047Y-45302057D02*
X112916666Y-45397295D01*
X112916666Y-45397295D02*
X112916666Y-45492533D01*
X112916666Y-45492533D02*
X112869047Y-45635390D01*
X112869047Y-45635390D02*
X112297619Y-46206819D01*
X112297619Y-46206819D02*
X112916666Y-46206819D01*
X136988095Y-65324819D02*
X136988095Y-66134342D01*
X136988095Y-66134342D02*
X137035714Y-66229580D01*
X137035714Y-66229580D02*
X137083333Y-66277200D01*
X137083333Y-66277200D02*
X137178571Y-66324819D01*
X137178571Y-66324819D02*
X137369047Y-66324819D01*
X137369047Y-66324819D02*
X137464285Y-66277200D01*
X137464285Y-66277200D02*
X137511904Y-66229580D01*
X137511904Y-66229580D02*
X137559523Y-66134342D01*
X137559523Y-66134342D02*
X137559523Y-65324819D01*
X138464285Y-65658152D02*
X138464285Y-66324819D01*
X138226190Y-65277200D02*
X137988095Y-65991485D01*
X137988095Y-65991485D02*
X138607142Y-65991485D01*
X174288095Y-68804819D02*
X174288095Y-69614342D01*
X174288095Y-69614342D02*
X174335714Y-69709580D01*
X174335714Y-69709580D02*
X174383333Y-69757200D01*
X174383333Y-69757200D02*
X174478571Y-69804819D01*
X174478571Y-69804819D02*
X174669047Y-69804819D01*
X174669047Y-69804819D02*
X174764285Y-69757200D01*
X174764285Y-69757200D02*
X174811904Y-69709580D01*
X174811904Y-69709580D02*
X174859523Y-69614342D01*
X174859523Y-69614342D02*
X174859523Y-68804819D01*
X175288095Y-68900057D02*
X175335714Y-68852438D01*
X175335714Y-68852438D02*
X175430952Y-68804819D01*
X175430952Y-68804819D02*
X175669047Y-68804819D01*
X175669047Y-68804819D02*
X175764285Y-68852438D01*
X175764285Y-68852438D02*
X175811904Y-68900057D01*
X175811904Y-68900057D02*
X175859523Y-68995295D01*
X175859523Y-68995295D02*
X175859523Y-69090533D01*
X175859523Y-69090533D02*
X175811904Y-69233390D01*
X175811904Y-69233390D02*
X175240476Y-69804819D01*
X175240476Y-69804819D02*
X175859523Y-69804819D01*
X159554819Y-102238094D02*
X158554819Y-102238094D01*
X158554819Y-102238094D02*
X158554819Y-101999999D01*
X158554819Y-101999999D02*
X158602438Y-101857142D01*
X158602438Y-101857142D02*
X158697676Y-101761904D01*
X158697676Y-101761904D02*
X158792914Y-101714285D01*
X158792914Y-101714285D02*
X158983390Y-101666666D01*
X158983390Y-101666666D02*
X159126247Y-101666666D01*
X159126247Y-101666666D02*
X159316723Y-101714285D01*
X159316723Y-101714285D02*
X159411961Y-101761904D01*
X159411961Y-101761904D02*
X159507200Y-101857142D01*
X159507200Y-101857142D02*
X159554819Y-101999999D01*
X159554819Y-101999999D02*
X159554819Y-102238094D01*
X158983390Y-101095237D02*
X158935771Y-101190475D01*
X158935771Y-101190475D02*
X158888152Y-101238094D01*
X158888152Y-101238094D02*
X158792914Y-101285713D01*
X158792914Y-101285713D02*
X158745295Y-101285713D01*
X158745295Y-101285713D02*
X158650057Y-101238094D01*
X158650057Y-101238094D02*
X158602438Y-101190475D01*
X158602438Y-101190475D02*
X158554819Y-101095237D01*
X158554819Y-101095237D02*
X158554819Y-100904761D01*
X158554819Y-100904761D02*
X158602438Y-100809523D01*
X158602438Y-100809523D02*
X158650057Y-100761904D01*
X158650057Y-100761904D02*
X158745295Y-100714285D01*
X158745295Y-100714285D02*
X158792914Y-100714285D01*
X158792914Y-100714285D02*
X158888152Y-100761904D01*
X158888152Y-100761904D02*
X158935771Y-100809523D01*
X158935771Y-100809523D02*
X158983390Y-100904761D01*
X158983390Y-100904761D02*
X158983390Y-101095237D01*
X158983390Y-101095237D02*
X159031009Y-101190475D01*
X159031009Y-101190475D02*
X159078628Y-101238094D01*
X159078628Y-101238094D02*
X159173866Y-101285713D01*
X159173866Y-101285713D02*
X159364342Y-101285713D01*
X159364342Y-101285713D02*
X159459580Y-101238094D01*
X159459580Y-101238094D02*
X159507200Y-101190475D01*
X159507200Y-101190475D02*
X159554819Y-101095237D01*
X159554819Y-101095237D02*
X159554819Y-100904761D01*
X159554819Y-100904761D02*
X159507200Y-100809523D01*
X159507200Y-100809523D02*
X159459580Y-100761904D01*
X159459580Y-100761904D02*
X159364342Y-100714285D01*
X159364342Y-100714285D02*
X159173866Y-100714285D01*
X159173866Y-100714285D02*
X159078628Y-100761904D01*
X159078628Y-100761904D02*
X159031009Y-100809523D01*
X159031009Y-100809523D02*
X158983390Y-100904761D01*
X185054819Y-102714285D02*
X184054819Y-102714285D01*
X184054819Y-102714285D02*
X184054819Y-102476190D01*
X184054819Y-102476190D02*
X184102438Y-102333333D01*
X184102438Y-102333333D02*
X184197676Y-102238095D01*
X184197676Y-102238095D02*
X184292914Y-102190476D01*
X184292914Y-102190476D02*
X184483390Y-102142857D01*
X184483390Y-102142857D02*
X184626247Y-102142857D01*
X184626247Y-102142857D02*
X184816723Y-102190476D01*
X184816723Y-102190476D02*
X184911961Y-102238095D01*
X184911961Y-102238095D02*
X185007200Y-102333333D01*
X185007200Y-102333333D02*
X185054819Y-102476190D01*
X185054819Y-102476190D02*
X185054819Y-102714285D01*
X185054819Y-101190476D02*
X185054819Y-101761904D01*
X185054819Y-101476190D02*
X184054819Y-101476190D01*
X184054819Y-101476190D02*
X184197676Y-101571428D01*
X184197676Y-101571428D02*
X184292914Y-101666666D01*
X184292914Y-101666666D02*
X184340533Y-101761904D01*
X184054819Y-100857142D02*
X184054819Y-100190476D01*
X184054819Y-100190476D02*
X185054819Y-100619047D01*
X180783333Y-124004819D02*
X180450000Y-123528628D01*
X180211905Y-124004819D02*
X180211905Y-123004819D01*
X180211905Y-123004819D02*
X180592857Y-123004819D01*
X180592857Y-123004819D02*
X180688095Y-123052438D01*
X180688095Y-123052438D02*
X180735714Y-123100057D01*
X180735714Y-123100057D02*
X180783333Y-123195295D01*
X180783333Y-123195295D02*
X180783333Y-123338152D01*
X180783333Y-123338152D02*
X180735714Y-123433390D01*
X180735714Y-123433390D02*
X180688095Y-123481009D01*
X180688095Y-123481009D02*
X180592857Y-123528628D01*
X180592857Y-123528628D02*
X180211905Y-123528628D01*
X181640476Y-123004819D02*
X181450000Y-123004819D01*
X181450000Y-123004819D02*
X181354762Y-123052438D01*
X181354762Y-123052438D02*
X181307143Y-123100057D01*
X181307143Y-123100057D02*
X181211905Y-123242914D01*
X181211905Y-123242914D02*
X181164286Y-123433390D01*
X181164286Y-123433390D02*
X181164286Y-123814342D01*
X181164286Y-123814342D02*
X181211905Y-123909580D01*
X181211905Y-123909580D02*
X181259524Y-123957200D01*
X181259524Y-123957200D02*
X181354762Y-124004819D01*
X181354762Y-124004819D02*
X181545238Y-124004819D01*
X181545238Y-124004819D02*
X181640476Y-123957200D01*
X181640476Y-123957200D02*
X181688095Y-123909580D01*
X181688095Y-123909580D02*
X181735714Y-123814342D01*
X181735714Y-123814342D02*
X181735714Y-123576247D01*
X181735714Y-123576247D02*
X181688095Y-123481009D01*
X181688095Y-123481009D02*
X181640476Y-123433390D01*
X181640476Y-123433390D02*
X181545238Y-123385771D01*
X181545238Y-123385771D02*
X181354762Y-123385771D01*
X181354762Y-123385771D02*
X181259524Y-123433390D01*
X181259524Y-123433390D02*
X181211905Y-123481009D01*
X181211905Y-123481009D02*
X181164286Y-123576247D01*
D12*
X102631190Y-105159080D02*
X102812618Y-105219556D01*
X102812618Y-105219556D02*
X102873095Y-105280032D01*
X102873095Y-105280032D02*
X102933571Y-105400984D01*
X102933571Y-105400984D02*
X102933571Y-105582413D01*
X102933571Y-105582413D02*
X102873095Y-105703365D01*
X102873095Y-105703365D02*
X102812618Y-105763842D01*
X102812618Y-105763842D02*
X102691666Y-105824318D01*
X102691666Y-105824318D02*
X102207856Y-105824318D01*
X102207856Y-105824318D02*
X102207856Y-104554318D01*
X102207856Y-104554318D02*
X102631190Y-104554318D01*
X102631190Y-104554318D02*
X102752142Y-104614794D01*
X102752142Y-104614794D02*
X102812618Y-104675270D01*
X102812618Y-104675270D02*
X102873095Y-104796222D01*
X102873095Y-104796222D02*
X102873095Y-104917175D01*
X102873095Y-104917175D02*
X102812618Y-105038127D01*
X102812618Y-105038127D02*
X102752142Y-105098603D01*
X102752142Y-105098603D02*
X102631190Y-105159080D01*
X102631190Y-105159080D02*
X102207856Y-105159080D01*
X103356904Y-104554318D02*
X104203571Y-104554318D01*
X104203571Y-104554318D02*
X103356904Y-105824318D01*
X103356904Y-105824318D02*
X104203571Y-105824318D01*
X105352619Y-105824318D02*
X104626904Y-105824318D01*
X104989761Y-105824318D02*
X104989761Y-104554318D01*
X104989761Y-104554318D02*
X104868809Y-104735746D01*
X104868809Y-104735746D02*
X104747857Y-104856699D01*
X104747857Y-104856699D02*
X104626904Y-104917175D01*
D11*
X147457142Y-61609580D02*
X147409523Y-61657200D01*
X147409523Y-61657200D02*
X147266666Y-61704819D01*
X147266666Y-61704819D02*
X147171428Y-61704819D01*
X147171428Y-61704819D02*
X147028571Y-61657200D01*
X147028571Y-61657200D02*
X146933333Y-61561961D01*
X146933333Y-61561961D02*
X146885714Y-61466723D01*
X146885714Y-61466723D02*
X146838095Y-61276247D01*
X146838095Y-61276247D02*
X146838095Y-61133390D01*
X146838095Y-61133390D02*
X146885714Y-60942914D01*
X146885714Y-60942914D02*
X146933333Y-60847676D01*
X146933333Y-60847676D02*
X147028571Y-60752438D01*
X147028571Y-60752438D02*
X147171428Y-60704819D01*
X147171428Y-60704819D02*
X147266666Y-60704819D01*
X147266666Y-60704819D02*
X147409523Y-60752438D01*
X147409523Y-60752438D02*
X147457142Y-60800057D01*
X147838095Y-60800057D02*
X147885714Y-60752438D01*
X147885714Y-60752438D02*
X147980952Y-60704819D01*
X147980952Y-60704819D02*
X148219047Y-60704819D01*
X148219047Y-60704819D02*
X148314285Y-60752438D01*
X148314285Y-60752438D02*
X148361904Y-60800057D01*
X148361904Y-60800057D02*
X148409523Y-60895295D01*
X148409523Y-60895295D02*
X148409523Y-60990533D01*
X148409523Y-60990533D02*
X148361904Y-61133390D01*
X148361904Y-61133390D02*
X147790476Y-61704819D01*
X147790476Y-61704819D02*
X148409523Y-61704819D01*
X149028571Y-60704819D02*
X149123809Y-60704819D01*
X149123809Y-60704819D02*
X149219047Y-60752438D01*
X149219047Y-60752438D02*
X149266666Y-60800057D01*
X149266666Y-60800057D02*
X149314285Y-60895295D01*
X149314285Y-60895295D02*
X149361904Y-61085771D01*
X149361904Y-61085771D02*
X149361904Y-61323866D01*
X149361904Y-61323866D02*
X149314285Y-61514342D01*
X149314285Y-61514342D02*
X149266666Y-61609580D01*
X149266666Y-61609580D02*
X149219047Y-61657200D01*
X149219047Y-61657200D02*
X149123809Y-61704819D01*
X149123809Y-61704819D02*
X149028571Y-61704819D01*
X149028571Y-61704819D02*
X148933333Y-61657200D01*
X148933333Y-61657200D02*
X148885714Y-61609580D01*
X148885714Y-61609580D02*
X148838095Y-61514342D01*
X148838095Y-61514342D02*
X148790476Y-61323866D01*
X148790476Y-61323866D02*
X148790476Y-61085771D01*
X148790476Y-61085771D02*
X148838095Y-60895295D01*
X148838095Y-60895295D02*
X148885714Y-60800057D01*
X148885714Y-60800057D02*
X148933333Y-60752438D01*
X148933333Y-60752438D02*
X149028571Y-60704819D01*
X189304819Y-75166666D02*
X188828628Y-75499999D01*
X189304819Y-75738094D02*
X188304819Y-75738094D01*
X188304819Y-75738094D02*
X188304819Y-75357142D01*
X188304819Y-75357142D02*
X188352438Y-75261904D01*
X188352438Y-75261904D02*
X188400057Y-75214285D01*
X188400057Y-75214285D02*
X188495295Y-75166666D01*
X188495295Y-75166666D02*
X188638152Y-75166666D01*
X188638152Y-75166666D02*
X188733390Y-75214285D01*
X188733390Y-75214285D02*
X188781009Y-75261904D01*
X188781009Y-75261904D02*
X188828628Y-75357142D01*
X188828628Y-75357142D02*
X188828628Y-75738094D01*
X188304819Y-74833332D02*
X188304819Y-74166666D01*
X188304819Y-74166666D02*
X189304819Y-74595237D01*
X191154819Y-52766666D02*
X190678628Y-53099999D01*
X191154819Y-53338094D02*
X190154819Y-53338094D01*
X190154819Y-53338094D02*
X190154819Y-52957142D01*
X190154819Y-52957142D02*
X190202438Y-52861904D01*
X190202438Y-52861904D02*
X190250057Y-52814285D01*
X190250057Y-52814285D02*
X190345295Y-52766666D01*
X190345295Y-52766666D02*
X190488152Y-52766666D01*
X190488152Y-52766666D02*
X190583390Y-52814285D01*
X190583390Y-52814285D02*
X190631009Y-52861904D01*
X190631009Y-52861904D02*
X190678628Y-52957142D01*
X190678628Y-52957142D02*
X190678628Y-53338094D01*
X190154819Y-51861904D02*
X190154819Y-52338094D01*
X190154819Y-52338094D02*
X190631009Y-52385713D01*
X190631009Y-52385713D02*
X190583390Y-52338094D01*
X190583390Y-52338094D02*
X190535771Y-52242856D01*
X190535771Y-52242856D02*
X190535771Y-52004761D01*
X190535771Y-52004761D02*
X190583390Y-51909523D01*
X190583390Y-51909523D02*
X190631009Y-51861904D01*
X190631009Y-51861904D02*
X190726247Y-51814285D01*
X190726247Y-51814285D02*
X190964342Y-51814285D01*
X190964342Y-51814285D02*
X191059580Y-51861904D01*
X191059580Y-51861904D02*
X191107200Y-51909523D01*
X191107200Y-51909523D02*
X191154819Y-52004761D01*
X191154819Y-52004761D02*
X191154819Y-52242856D01*
X191154819Y-52242856D02*
X191107200Y-52338094D01*
X191107200Y-52338094D02*
X191059580Y-52385713D01*
X121004819Y-71583333D02*
X121719104Y-71583333D01*
X121719104Y-71583333D02*
X121861961Y-71630952D01*
X121861961Y-71630952D02*
X121957200Y-71726190D01*
X121957200Y-71726190D02*
X122004819Y-71869047D01*
X122004819Y-71869047D02*
X122004819Y-71964285D01*
X122004819Y-71107142D02*
X121004819Y-71107142D01*
X121004819Y-71107142D02*
X121004819Y-70726190D01*
X121004819Y-70726190D02*
X121052438Y-70630952D01*
X121052438Y-70630952D02*
X121100057Y-70583333D01*
X121100057Y-70583333D02*
X121195295Y-70535714D01*
X121195295Y-70535714D02*
X121338152Y-70535714D01*
X121338152Y-70535714D02*
X121433390Y-70583333D01*
X121433390Y-70583333D02*
X121481009Y-70630952D01*
X121481009Y-70630952D02*
X121528628Y-70726190D01*
X121528628Y-70726190D02*
X121528628Y-71107142D01*
X122004819Y-69583333D02*
X122004819Y-70154761D01*
X122004819Y-69869047D02*
X121004819Y-69869047D01*
X121004819Y-69869047D02*
X121147676Y-69964285D01*
X121147676Y-69964285D02*
X121242914Y-70059523D01*
X121242914Y-70059523D02*
X121290533Y-70154761D01*
X172054819Y-130392857D02*
X171578628Y-130726190D01*
X172054819Y-130964285D02*
X171054819Y-130964285D01*
X171054819Y-130964285D02*
X171054819Y-130583333D01*
X171054819Y-130583333D02*
X171102438Y-130488095D01*
X171102438Y-130488095D02*
X171150057Y-130440476D01*
X171150057Y-130440476D02*
X171245295Y-130392857D01*
X171245295Y-130392857D02*
X171388152Y-130392857D01*
X171388152Y-130392857D02*
X171483390Y-130440476D01*
X171483390Y-130440476D02*
X171531009Y-130488095D01*
X171531009Y-130488095D02*
X171578628Y-130583333D01*
X171578628Y-130583333D02*
X171578628Y-130964285D01*
X171054819Y-130059523D02*
X171054819Y-129440476D01*
X171054819Y-129440476D02*
X171435771Y-129773809D01*
X171435771Y-129773809D02*
X171435771Y-129630952D01*
X171435771Y-129630952D02*
X171483390Y-129535714D01*
X171483390Y-129535714D02*
X171531009Y-129488095D01*
X171531009Y-129488095D02*
X171626247Y-129440476D01*
X171626247Y-129440476D02*
X171864342Y-129440476D01*
X171864342Y-129440476D02*
X171959580Y-129488095D01*
X171959580Y-129488095D02*
X172007200Y-129535714D01*
X172007200Y-129535714D02*
X172054819Y-129630952D01*
X172054819Y-129630952D02*
X172054819Y-129916666D01*
X172054819Y-129916666D02*
X172007200Y-130011904D01*
X172007200Y-130011904D02*
X171959580Y-130059523D01*
X171054819Y-128583333D02*
X171054819Y-128773809D01*
X171054819Y-128773809D02*
X171102438Y-128869047D01*
X171102438Y-128869047D02*
X171150057Y-128916666D01*
X171150057Y-128916666D02*
X171292914Y-129011904D01*
X171292914Y-129011904D02*
X171483390Y-129059523D01*
X171483390Y-129059523D02*
X171864342Y-129059523D01*
X171864342Y-129059523D02*
X171959580Y-129011904D01*
X171959580Y-129011904D02*
X172007200Y-128964285D01*
X172007200Y-128964285D02*
X172054819Y-128869047D01*
X172054819Y-128869047D02*
X172054819Y-128678571D01*
X172054819Y-128678571D02*
X172007200Y-128583333D01*
X172007200Y-128583333D02*
X171959580Y-128535714D01*
X171959580Y-128535714D02*
X171864342Y-128488095D01*
X171864342Y-128488095D02*
X171626247Y-128488095D01*
X171626247Y-128488095D02*
X171531009Y-128535714D01*
X171531009Y-128535714D02*
X171483390Y-128583333D01*
X171483390Y-128583333D02*
X171435771Y-128678571D01*
X171435771Y-128678571D02*
X171435771Y-128869047D01*
X171435771Y-128869047D02*
X171483390Y-128964285D01*
X171483390Y-128964285D02*
X171531009Y-129011904D01*
X171531009Y-129011904D02*
X171626247Y-129059523D01*
X173554819Y-102714285D02*
X172554819Y-102714285D01*
X172554819Y-102714285D02*
X172554819Y-102476190D01*
X172554819Y-102476190D02*
X172602438Y-102333333D01*
X172602438Y-102333333D02*
X172697676Y-102238095D01*
X172697676Y-102238095D02*
X172792914Y-102190476D01*
X172792914Y-102190476D02*
X172983390Y-102142857D01*
X172983390Y-102142857D02*
X173126247Y-102142857D01*
X173126247Y-102142857D02*
X173316723Y-102190476D01*
X173316723Y-102190476D02*
X173411961Y-102238095D01*
X173411961Y-102238095D02*
X173507200Y-102333333D01*
X173507200Y-102333333D02*
X173554819Y-102476190D01*
X173554819Y-102476190D02*
X173554819Y-102714285D01*
X173554819Y-101190476D02*
X173554819Y-101761904D01*
X173554819Y-101476190D02*
X172554819Y-101476190D01*
X172554819Y-101476190D02*
X172697676Y-101571428D01*
X172697676Y-101571428D02*
X172792914Y-101666666D01*
X172792914Y-101666666D02*
X172840533Y-101761904D01*
X172650057Y-100809523D02*
X172602438Y-100761904D01*
X172602438Y-100761904D02*
X172554819Y-100666666D01*
X172554819Y-100666666D02*
X172554819Y-100428571D01*
X172554819Y-100428571D02*
X172602438Y-100333333D01*
X172602438Y-100333333D02*
X172650057Y-100285714D01*
X172650057Y-100285714D02*
X172745295Y-100238095D01*
X172745295Y-100238095D02*
X172840533Y-100238095D01*
X172840533Y-100238095D02*
X172983390Y-100285714D01*
X172983390Y-100285714D02*
X173554819Y-100857142D01*
X173554819Y-100857142D02*
X173554819Y-100238095D01*
X188554819Y-102689285D02*
X187554819Y-102689285D01*
X187554819Y-102689285D02*
X187554819Y-102451190D01*
X187554819Y-102451190D02*
X187602438Y-102308333D01*
X187602438Y-102308333D02*
X187697676Y-102213095D01*
X187697676Y-102213095D02*
X187792914Y-102165476D01*
X187792914Y-102165476D02*
X187983390Y-102117857D01*
X187983390Y-102117857D02*
X188126247Y-102117857D01*
X188126247Y-102117857D02*
X188316723Y-102165476D01*
X188316723Y-102165476D02*
X188411961Y-102213095D01*
X188411961Y-102213095D02*
X188507200Y-102308333D01*
X188507200Y-102308333D02*
X188554819Y-102451190D01*
X188554819Y-102451190D02*
X188554819Y-102689285D01*
X188554819Y-101165476D02*
X188554819Y-101736904D01*
X188554819Y-101451190D02*
X187554819Y-101451190D01*
X187554819Y-101451190D02*
X187697676Y-101546428D01*
X187697676Y-101546428D02*
X187792914Y-101641666D01*
X187792914Y-101641666D02*
X187840533Y-101736904D01*
X187554819Y-100308333D02*
X187554819Y-100498809D01*
X187554819Y-100498809D02*
X187602438Y-100594047D01*
X187602438Y-100594047D02*
X187650057Y-100641666D01*
X187650057Y-100641666D02*
X187792914Y-100736904D01*
X187792914Y-100736904D02*
X187983390Y-100784523D01*
X187983390Y-100784523D02*
X188364342Y-100784523D01*
X188364342Y-100784523D02*
X188459580Y-100736904D01*
X188459580Y-100736904D02*
X188507200Y-100689285D01*
X188507200Y-100689285D02*
X188554819Y-100594047D01*
X188554819Y-100594047D02*
X188554819Y-100403571D01*
X188554819Y-100403571D02*
X188507200Y-100308333D01*
X188507200Y-100308333D02*
X188459580Y-100260714D01*
X188459580Y-100260714D02*
X188364342Y-100213095D01*
X188364342Y-100213095D02*
X188126247Y-100213095D01*
X188126247Y-100213095D02*
X188031009Y-100260714D01*
X188031009Y-100260714D02*
X187983390Y-100308333D01*
X187983390Y-100308333D02*
X187935771Y-100403571D01*
X187935771Y-100403571D02*
X187935771Y-100594047D01*
X187935771Y-100594047D02*
X187983390Y-100689285D01*
X187983390Y-100689285D02*
X188031009Y-100736904D01*
X188031009Y-100736904D02*
X188126247Y-100784523D01*
X188554819Y-97867857D02*
X188078628Y-98201190D01*
X188554819Y-98439285D02*
X187554819Y-98439285D01*
X187554819Y-98439285D02*
X187554819Y-98058333D01*
X187554819Y-98058333D02*
X187602438Y-97963095D01*
X187602438Y-97963095D02*
X187650057Y-97915476D01*
X187650057Y-97915476D02*
X187745295Y-97867857D01*
X187745295Y-97867857D02*
X187888152Y-97867857D01*
X187888152Y-97867857D02*
X187983390Y-97915476D01*
X187983390Y-97915476D02*
X188031009Y-97963095D01*
X188031009Y-97963095D02*
X188078628Y-98058333D01*
X188078628Y-98058333D02*
X188078628Y-98439285D01*
X187650057Y-97486904D02*
X187602438Y-97439285D01*
X187602438Y-97439285D02*
X187554819Y-97344047D01*
X187554819Y-97344047D02*
X187554819Y-97105952D01*
X187554819Y-97105952D02*
X187602438Y-97010714D01*
X187602438Y-97010714D02*
X187650057Y-96963095D01*
X187650057Y-96963095D02*
X187745295Y-96915476D01*
X187745295Y-96915476D02*
X187840533Y-96915476D01*
X187840533Y-96915476D02*
X187983390Y-96963095D01*
X187983390Y-96963095D02*
X188554819Y-97534523D01*
X188554819Y-97534523D02*
X188554819Y-96915476D01*
X187554819Y-96010714D02*
X187554819Y-96486904D01*
X187554819Y-96486904D02*
X188031009Y-96534523D01*
X188031009Y-96534523D02*
X187983390Y-96486904D01*
X187983390Y-96486904D02*
X187935771Y-96391666D01*
X187935771Y-96391666D02*
X187935771Y-96153571D01*
X187935771Y-96153571D02*
X187983390Y-96058333D01*
X187983390Y-96058333D02*
X188031009Y-96010714D01*
X188031009Y-96010714D02*
X188126247Y-95963095D01*
X188126247Y-95963095D02*
X188364342Y-95963095D01*
X188364342Y-95963095D02*
X188459580Y-96010714D01*
X188459580Y-96010714D02*
X188507200Y-96058333D01*
X188507200Y-96058333D02*
X188554819Y-96153571D01*
X188554819Y-96153571D02*
X188554819Y-96391666D01*
X188554819Y-96391666D02*
X188507200Y-96486904D01*
X188507200Y-96486904D02*
X188459580Y-96534523D01*
X151374819Y-122154285D02*
X152184342Y-122154285D01*
X152184342Y-122154285D02*
X152279580Y-122106666D01*
X152279580Y-122106666D02*
X152327200Y-122059047D01*
X152327200Y-122059047D02*
X152374819Y-121963809D01*
X152374819Y-121963809D02*
X152374819Y-121773333D01*
X152374819Y-121773333D02*
X152327200Y-121678095D01*
X152327200Y-121678095D02*
X152279580Y-121630476D01*
X152279580Y-121630476D02*
X152184342Y-121582857D01*
X152184342Y-121582857D02*
X151374819Y-121582857D01*
X152470057Y-121344762D02*
X152470057Y-120582857D01*
X152374819Y-119868571D02*
X152374819Y-120344761D01*
X152374819Y-120344761D02*
X151374819Y-120344761D01*
X151851009Y-119535237D02*
X151851009Y-119201904D01*
X152374819Y-119059047D02*
X152374819Y-119535237D01*
X152374819Y-119535237D02*
X151374819Y-119535237D01*
X151374819Y-119535237D02*
X151374819Y-119059047D01*
X152374819Y-118630475D02*
X151374819Y-118630475D01*
X151374819Y-118630475D02*
X151374819Y-118392380D01*
X151374819Y-118392380D02*
X151422438Y-118249523D01*
X151422438Y-118249523D02*
X151517676Y-118154285D01*
X151517676Y-118154285D02*
X151612914Y-118106666D01*
X151612914Y-118106666D02*
X151803390Y-118059047D01*
X151803390Y-118059047D02*
X151946247Y-118059047D01*
X151946247Y-118059047D02*
X152136723Y-118106666D01*
X152136723Y-118106666D02*
X152231961Y-118154285D01*
X152231961Y-118154285D02*
X152327200Y-118249523D01*
X152327200Y-118249523D02*
X152374819Y-118392380D01*
X152374819Y-118392380D02*
X152374819Y-118630475D01*
X152470057Y-117868571D02*
X152470057Y-117106666D01*
X151851009Y-116868570D02*
X151851009Y-116535237D01*
X152374819Y-116392380D02*
X152374819Y-116868570D01*
X152374819Y-116868570D02*
X151374819Y-116868570D01*
X151374819Y-116868570D02*
X151374819Y-116392380D01*
X151374819Y-116059046D02*
X152374819Y-115392380D01*
X151374819Y-115392380D02*
X152374819Y-116059046D01*
X152374819Y-115011427D02*
X151374819Y-115011427D01*
X151374819Y-115011427D02*
X151374819Y-114630475D01*
X151374819Y-114630475D02*
X151422438Y-114535237D01*
X151422438Y-114535237D02*
X151470057Y-114487618D01*
X151470057Y-114487618D02*
X151565295Y-114439999D01*
X151565295Y-114439999D02*
X151708152Y-114439999D01*
X151708152Y-114439999D02*
X151803390Y-114487618D01*
X151803390Y-114487618D02*
X151851009Y-114535237D01*
X151851009Y-114535237D02*
X151898628Y-114630475D01*
X151898628Y-114630475D02*
X151898628Y-115011427D01*
X152089104Y-114059046D02*
X152089104Y-113582856D01*
X152374819Y-114154284D02*
X151374819Y-113820951D01*
X151374819Y-113820951D02*
X152374819Y-113487618D01*
X152374819Y-113154284D02*
X151374819Y-113154284D01*
X151374819Y-113154284D02*
X152374819Y-112582856D01*
X152374819Y-112582856D02*
X151374819Y-112582856D01*
X152374819Y-112106665D02*
X151374819Y-112106665D01*
X151374819Y-112106665D02*
X151374819Y-111868570D01*
X151374819Y-111868570D02*
X151422438Y-111725713D01*
X151422438Y-111725713D02*
X151517676Y-111630475D01*
X151517676Y-111630475D02*
X151612914Y-111582856D01*
X151612914Y-111582856D02*
X151803390Y-111535237D01*
X151803390Y-111535237D02*
X151946247Y-111535237D01*
X151946247Y-111535237D02*
X152136723Y-111582856D01*
X152136723Y-111582856D02*
X152231961Y-111630475D01*
X152231961Y-111630475D02*
X152327200Y-111725713D01*
X152327200Y-111725713D02*
X152374819Y-111868570D01*
X152374819Y-111868570D02*
X152374819Y-112106665D01*
X151851009Y-111106665D02*
X151851009Y-110773332D01*
X152374819Y-110630475D02*
X152374819Y-111106665D01*
X152374819Y-111106665D02*
X151374819Y-111106665D01*
X151374819Y-111106665D02*
X151374819Y-110630475D01*
X152374819Y-109630475D02*
X151898628Y-109963808D01*
X152374819Y-110201903D02*
X151374819Y-110201903D01*
X151374819Y-110201903D02*
X151374819Y-109820951D01*
X151374819Y-109820951D02*
X151422438Y-109725713D01*
X151422438Y-109725713D02*
X151470057Y-109678094D01*
X151470057Y-109678094D02*
X151565295Y-109630475D01*
X151565295Y-109630475D02*
X151708152Y-109630475D01*
X151708152Y-109630475D02*
X151803390Y-109678094D01*
X151803390Y-109678094D02*
X151851009Y-109725713D01*
X151851009Y-109725713D02*
X151898628Y-109820951D01*
X151898628Y-109820951D02*
X151898628Y-110201903D01*
X152374819Y-108678094D02*
X152374819Y-109249522D01*
X152374819Y-108963808D02*
X151374819Y-108963808D01*
X151374819Y-108963808D02*
X151517676Y-109059046D01*
X151517676Y-109059046D02*
X151612914Y-109154284D01*
X151612914Y-109154284D02*
X151660533Y-109249522D01*
X141783333Y-109604819D02*
X141450000Y-109128628D01*
X141211905Y-109604819D02*
X141211905Y-108604819D01*
X141211905Y-108604819D02*
X141592857Y-108604819D01*
X141592857Y-108604819D02*
X141688095Y-108652438D01*
X141688095Y-108652438D02*
X141735714Y-108700057D01*
X141735714Y-108700057D02*
X141783333Y-108795295D01*
X141783333Y-108795295D02*
X141783333Y-108938152D01*
X141783333Y-108938152D02*
X141735714Y-109033390D01*
X141735714Y-109033390D02*
X141688095Y-109081009D01*
X141688095Y-109081009D02*
X141592857Y-109128628D01*
X141592857Y-109128628D02*
X141211905Y-109128628D01*
X142116667Y-108604819D02*
X142735714Y-108604819D01*
X142735714Y-108604819D02*
X142402381Y-108985771D01*
X142402381Y-108985771D02*
X142545238Y-108985771D01*
X142545238Y-108985771D02*
X142640476Y-109033390D01*
X142640476Y-109033390D02*
X142688095Y-109081009D01*
X142688095Y-109081009D02*
X142735714Y-109176247D01*
X142735714Y-109176247D02*
X142735714Y-109414342D01*
X142735714Y-109414342D02*
X142688095Y-109509580D01*
X142688095Y-109509580D02*
X142640476Y-109557200D01*
X142640476Y-109557200D02*
X142545238Y-109604819D01*
X142545238Y-109604819D02*
X142259524Y-109604819D01*
X142259524Y-109604819D02*
X142164286Y-109557200D01*
X142164286Y-109557200D02*
X142116667Y-109509580D01*
X122750952Y-87361619D02*
X122274762Y-87361619D01*
X122274762Y-87361619D02*
X122274762Y-86361619D01*
X123084286Y-86837809D02*
X123417619Y-86837809D01*
X123560476Y-87361619D02*
X123084286Y-87361619D01*
X123084286Y-87361619D02*
X123084286Y-86361619D01*
X123084286Y-86361619D02*
X123560476Y-86361619D01*
X123989048Y-87361619D02*
X123989048Y-86361619D01*
X123989048Y-86361619D02*
X124227143Y-86361619D01*
X124227143Y-86361619D02*
X124370000Y-86409238D01*
X124370000Y-86409238D02*
X124465238Y-86504476D01*
X124465238Y-86504476D02*
X124512857Y-86599714D01*
X124512857Y-86599714D02*
X124560476Y-86790190D01*
X124560476Y-86790190D02*
X124560476Y-86933047D01*
X124560476Y-86933047D02*
X124512857Y-87123523D01*
X124512857Y-87123523D02*
X124465238Y-87218761D01*
X124465238Y-87218761D02*
X124370000Y-87314000D01*
X124370000Y-87314000D02*
X124227143Y-87361619D01*
X124227143Y-87361619D02*
X123989048Y-87361619D01*
X125512857Y-87361619D02*
X124941429Y-87361619D01*
X125227143Y-87361619D02*
X125227143Y-86361619D01*
X125227143Y-86361619D02*
X125131905Y-86504476D01*
X125131905Y-86504476D02*
X125036667Y-86599714D01*
X125036667Y-86599714D02*
X124941429Y-86647333D01*
X116250000Y-69831486D02*
X116250000Y-70069581D01*
X116011905Y-69974343D02*
X116250000Y-70069581D01*
X116250000Y-70069581D02*
X116488095Y-69974343D01*
X116107143Y-70260057D02*
X116250000Y-70069581D01*
X116250000Y-70069581D02*
X116392857Y-70260057D01*
X116250000Y-69831486D02*
X116250000Y-70069581D01*
X116011905Y-69974343D02*
X116250000Y-70069581D01*
X116250000Y-70069581D02*
X116488095Y-69974343D01*
X116107143Y-70260057D02*
X116250000Y-70069581D01*
X116250000Y-70069581D02*
X116392857Y-70260057D01*
X172054819Y-126392857D02*
X171578628Y-126726190D01*
X172054819Y-126964285D02*
X171054819Y-126964285D01*
X171054819Y-126964285D02*
X171054819Y-126583333D01*
X171054819Y-126583333D02*
X171102438Y-126488095D01*
X171102438Y-126488095D02*
X171150057Y-126440476D01*
X171150057Y-126440476D02*
X171245295Y-126392857D01*
X171245295Y-126392857D02*
X171388152Y-126392857D01*
X171388152Y-126392857D02*
X171483390Y-126440476D01*
X171483390Y-126440476D02*
X171531009Y-126488095D01*
X171531009Y-126488095D02*
X171578628Y-126583333D01*
X171578628Y-126583333D02*
X171578628Y-126964285D01*
X171054819Y-126059523D02*
X171054819Y-125440476D01*
X171054819Y-125440476D02*
X171435771Y-125773809D01*
X171435771Y-125773809D02*
X171435771Y-125630952D01*
X171435771Y-125630952D02*
X171483390Y-125535714D01*
X171483390Y-125535714D02*
X171531009Y-125488095D01*
X171531009Y-125488095D02*
X171626247Y-125440476D01*
X171626247Y-125440476D02*
X171864342Y-125440476D01*
X171864342Y-125440476D02*
X171959580Y-125488095D01*
X171959580Y-125488095D02*
X172007200Y-125535714D01*
X172007200Y-125535714D02*
X172054819Y-125630952D01*
X172054819Y-125630952D02*
X172054819Y-125916666D01*
X172054819Y-125916666D02*
X172007200Y-126011904D01*
X172007200Y-126011904D02*
X171959580Y-126059523D01*
X171388152Y-124583333D02*
X172054819Y-124583333D01*
X171007200Y-124821428D02*
X171721485Y-125059523D01*
X171721485Y-125059523D02*
X171721485Y-124440476D01*
X138854819Y-57416666D02*
X138378628Y-57749999D01*
X138854819Y-57988094D02*
X137854819Y-57988094D01*
X137854819Y-57988094D02*
X137854819Y-57607142D01*
X137854819Y-57607142D02*
X137902438Y-57511904D01*
X137902438Y-57511904D02*
X137950057Y-57464285D01*
X137950057Y-57464285D02*
X138045295Y-57416666D01*
X138045295Y-57416666D02*
X138188152Y-57416666D01*
X138188152Y-57416666D02*
X138283390Y-57464285D01*
X138283390Y-57464285D02*
X138331009Y-57511904D01*
X138331009Y-57511904D02*
X138378628Y-57607142D01*
X138378628Y-57607142D02*
X138378628Y-57988094D01*
X138283390Y-56845237D02*
X138235771Y-56940475D01*
X138235771Y-56940475D02*
X138188152Y-56988094D01*
X138188152Y-56988094D02*
X138092914Y-57035713D01*
X138092914Y-57035713D02*
X138045295Y-57035713D01*
X138045295Y-57035713D02*
X137950057Y-56988094D01*
X137950057Y-56988094D02*
X137902438Y-56940475D01*
X137902438Y-56940475D02*
X137854819Y-56845237D01*
X137854819Y-56845237D02*
X137854819Y-56654761D01*
X137854819Y-56654761D02*
X137902438Y-56559523D01*
X137902438Y-56559523D02*
X137950057Y-56511904D01*
X137950057Y-56511904D02*
X138045295Y-56464285D01*
X138045295Y-56464285D02*
X138092914Y-56464285D01*
X138092914Y-56464285D02*
X138188152Y-56511904D01*
X138188152Y-56511904D02*
X138235771Y-56559523D01*
X138235771Y-56559523D02*
X138283390Y-56654761D01*
X138283390Y-56654761D02*
X138283390Y-56845237D01*
X138283390Y-56845237D02*
X138331009Y-56940475D01*
X138331009Y-56940475D02*
X138378628Y-56988094D01*
X138378628Y-56988094D02*
X138473866Y-57035713D01*
X138473866Y-57035713D02*
X138664342Y-57035713D01*
X138664342Y-57035713D02*
X138759580Y-56988094D01*
X138759580Y-56988094D02*
X138807200Y-56940475D01*
X138807200Y-56940475D02*
X138854819Y-56845237D01*
X138854819Y-56845237D02*
X138854819Y-56654761D01*
X138854819Y-56654761D02*
X138807200Y-56559523D01*
X138807200Y-56559523D02*
X138759580Y-56511904D01*
X138759580Y-56511904D02*
X138664342Y-56464285D01*
X138664342Y-56464285D02*
X138473866Y-56464285D01*
X138473866Y-56464285D02*
X138378628Y-56511904D01*
X138378628Y-56511904D02*
X138331009Y-56559523D01*
X138331009Y-56559523D02*
X138283390Y-56654761D01*
X159504819Y-98192857D02*
X159028628Y-98526190D01*
X159504819Y-98764285D02*
X158504819Y-98764285D01*
X158504819Y-98764285D02*
X158504819Y-98383333D01*
X158504819Y-98383333D02*
X158552438Y-98288095D01*
X158552438Y-98288095D02*
X158600057Y-98240476D01*
X158600057Y-98240476D02*
X158695295Y-98192857D01*
X158695295Y-98192857D02*
X158838152Y-98192857D01*
X158838152Y-98192857D02*
X158933390Y-98240476D01*
X158933390Y-98240476D02*
X158981009Y-98288095D01*
X158981009Y-98288095D02*
X159028628Y-98383333D01*
X159028628Y-98383333D02*
X159028628Y-98764285D01*
X159504819Y-97240476D02*
X159504819Y-97811904D01*
X159504819Y-97526190D02*
X158504819Y-97526190D01*
X158504819Y-97526190D02*
X158647676Y-97621428D01*
X158647676Y-97621428D02*
X158742914Y-97716666D01*
X158742914Y-97716666D02*
X158790533Y-97811904D01*
X158504819Y-96383333D02*
X158504819Y-96573809D01*
X158504819Y-96573809D02*
X158552438Y-96669047D01*
X158552438Y-96669047D02*
X158600057Y-96716666D01*
X158600057Y-96716666D02*
X158742914Y-96811904D01*
X158742914Y-96811904D02*
X158933390Y-96859523D01*
X158933390Y-96859523D02*
X159314342Y-96859523D01*
X159314342Y-96859523D02*
X159409580Y-96811904D01*
X159409580Y-96811904D02*
X159457200Y-96764285D01*
X159457200Y-96764285D02*
X159504819Y-96669047D01*
X159504819Y-96669047D02*
X159504819Y-96478571D01*
X159504819Y-96478571D02*
X159457200Y-96383333D01*
X159457200Y-96383333D02*
X159409580Y-96335714D01*
X159409580Y-96335714D02*
X159314342Y-96288095D01*
X159314342Y-96288095D02*
X159076247Y-96288095D01*
X159076247Y-96288095D02*
X158981009Y-96335714D01*
X158981009Y-96335714D02*
X158933390Y-96383333D01*
X158933390Y-96383333D02*
X158885771Y-96478571D01*
X158885771Y-96478571D02*
X158885771Y-96669047D01*
X158885771Y-96669047D02*
X158933390Y-96764285D01*
X158933390Y-96764285D02*
X158981009Y-96811904D01*
X158981009Y-96811904D02*
X159076247Y-96859523D01*
X156839819Y-65936904D02*
X157649342Y-65936904D01*
X157649342Y-65936904D02*
X157744580Y-65889285D01*
X157744580Y-65889285D02*
X157792200Y-65841666D01*
X157792200Y-65841666D02*
X157839819Y-65746428D01*
X157839819Y-65746428D02*
X157839819Y-65555952D01*
X157839819Y-65555952D02*
X157792200Y-65460714D01*
X157792200Y-65460714D02*
X157744580Y-65413095D01*
X157744580Y-65413095D02*
X157649342Y-65365476D01*
X157649342Y-65365476D02*
X156839819Y-65365476D01*
X156839819Y-64413095D02*
X156839819Y-64889285D01*
X156839819Y-64889285D02*
X157316009Y-64936904D01*
X157316009Y-64936904D02*
X157268390Y-64889285D01*
X157268390Y-64889285D02*
X157220771Y-64794047D01*
X157220771Y-64794047D02*
X157220771Y-64555952D01*
X157220771Y-64555952D02*
X157268390Y-64460714D01*
X157268390Y-64460714D02*
X157316009Y-64413095D01*
X157316009Y-64413095D02*
X157411247Y-64365476D01*
X157411247Y-64365476D02*
X157649342Y-64365476D01*
X157649342Y-64365476D02*
X157744580Y-64413095D01*
X157744580Y-64413095D02*
X157792200Y-64460714D01*
X157792200Y-64460714D02*
X157839819Y-64555952D01*
X157839819Y-64555952D02*
X157839819Y-64794047D01*
X157839819Y-64794047D02*
X157792200Y-64889285D01*
X157792200Y-64889285D02*
X157744580Y-64936904D01*
X102929338Y-60974990D02*
X102929338Y-61689866D01*
X102929338Y-61689866D02*
X102881680Y-61832842D01*
X102881680Y-61832842D02*
X102786363Y-61928159D01*
X102786363Y-61928159D02*
X102643388Y-61975817D01*
X102643388Y-61975817D02*
X102548071Y-61975817D01*
X103930165Y-61975817D02*
X103358264Y-61975817D01*
X103644215Y-61975817D02*
X103644215Y-60974990D01*
X103644215Y-60974990D02*
X103548898Y-61117965D01*
X103548898Y-61117965D02*
X103453581Y-61213282D01*
X103453581Y-61213282D02*
X103358264Y-61260941D01*
D10*
X108933609Y-57583333D02*
X108933609Y-57916666D01*
X109457419Y-57916666D02*
X108457419Y-57916666D01*
X108457419Y-57916666D02*
X108457419Y-57440476D01*
X109457419Y-56535714D02*
X109457419Y-57107142D01*
X109457419Y-56821428D02*
X108457419Y-56821428D01*
X108457419Y-56821428D02*
X108600276Y-56916666D01*
X108600276Y-56916666D02*
X108695514Y-57011904D01*
X108695514Y-57011904D02*
X108743133Y-57107142D01*
D11*
X94550057Y-118075238D02*
X94502438Y-118170476D01*
X94502438Y-118170476D02*
X94407200Y-118265714D01*
X94407200Y-118265714D02*
X94264342Y-118408571D01*
X94264342Y-118408571D02*
X94216723Y-118503809D01*
X94216723Y-118503809D02*
X94216723Y-118599047D01*
X94454819Y-118551428D02*
X94407200Y-118646666D01*
X94407200Y-118646666D02*
X94311961Y-118741904D01*
X94311961Y-118741904D02*
X94121485Y-118789523D01*
X94121485Y-118789523D02*
X93788152Y-118789523D01*
X93788152Y-118789523D02*
X93597676Y-118741904D01*
X93597676Y-118741904D02*
X93502438Y-118646666D01*
X93502438Y-118646666D02*
X93454819Y-118551428D01*
X93454819Y-118551428D02*
X93454819Y-118360952D01*
X93454819Y-118360952D02*
X93502438Y-118265714D01*
X93502438Y-118265714D02*
X93597676Y-118170476D01*
X93597676Y-118170476D02*
X93788152Y-118122857D01*
X93788152Y-118122857D02*
X94121485Y-118122857D01*
X94121485Y-118122857D02*
X94311961Y-118170476D01*
X94311961Y-118170476D02*
X94407200Y-118265714D01*
X94407200Y-118265714D02*
X94454819Y-118360952D01*
X94454819Y-118360952D02*
X94454819Y-118551428D01*
X93454819Y-117789523D02*
X93454819Y-117170476D01*
X93454819Y-117170476D02*
X93835771Y-117503809D01*
X93835771Y-117503809D02*
X93835771Y-117360952D01*
X93835771Y-117360952D02*
X93883390Y-117265714D01*
X93883390Y-117265714D02*
X93931009Y-117218095D01*
X93931009Y-117218095D02*
X94026247Y-117170476D01*
X94026247Y-117170476D02*
X94264342Y-117170476D01*
X94264342Y-117170476D02*
X94359580Y-117218095D01*
X94359580Y-117218095D02*
X94407200Y-117265714D01*
X94407200Y-117265714D02*
X94454819Y-117360952D01*
X94454819Y-117360952D02*
X94454819Y-117646666D01*
X94454819Y-117646666D02*
X94407200Y-117741904D01*
X94407200Y-117741904D02*
X94359580Y-117789523D01*
X125454819Y-107688094D02*
X125454819Y-107116666D01*
X126454819Y-107402380D02*
X125454819Y-107402380D01*
X126454819Y-106783332D02*
X125454819Y-106783332D01*
X125454819Y-106783332D02*
X125454819Y-106402380D01*
X125454819Y-106402380D02*
X125502438Y-106307142D01*
X125502438Y-106307142D02*
X125550057Y-106259523D01*
X125550057Y-106259523D02*
X125645295Y-106211904D01*
X125645295Y-106211904D02*
X125788152Y-106211904D01*
X125788152Y-106211904D02*
X125883390Y-106259523D01*
X125883390Y-106259523D02*
X125931009Y-106307142D01*
X125931009Y-106307142D02*
X125978628Y-106402380D01*
X125978628Y-106402380D02*
X125978628Y-106783332D01*
X125550057Y-105830951D02*
X125502438Y-105783332D01*
X125502438Y-105783332D02*
X125454819Y-105688094D01*
X125454819Y-105688094D02*
X125454819Y-105449999D01*
X125454819Y-105449999D02*
X125502438Y-105354761D01*
X125502438Y-105354761D02*
X125550057Y-105307142D01*
X125550057Y-105307142D02*
X125645295Y-105259523D01*
X125645295Y-105259523D02*
X125740533Y-105259523D01*
X125740533Y-105259523D02*
X125883390Y-105307142D01*
X125883390Y-105307142D02*
X126454819Y-105878570D01*
X126454819Y-105878570D02*
X126454819Y-105259523D01*
X126454819Y-104307142D02*
X126454819Y-104878570D01*
X126454819Y-104592856D02*
X125454819Y-104592856D01*
X125454819Y-104592856D02*
X125597676Y-104688094D01*
X125597676Y-104688094D02*
X125692914Y-104783332D01*
X125692914Y-104783332D02*
X125740533Y-104878570D01*
X185054819Y-97892857D02*
X184578628Y-98226190D01*
X185054819Y-98464285D02*
X184054819Y-98464285D01*
X184054819Y-98464285D02*
X184054819Y-98083333D01*
X184054819Y-98083333D02*
X184102438Y-97988095D01*
X184102438Y-97988095D02*
X184150057Y-97940476D01*
X184150057Y-97940476D02*
X184245295Y-97892857D01*
X184245295Y-97892857D02*
X184388152Y-97892857D01*
X184388152Y-97892857D02*
X184483390Y-97940476D01*
X184483390Y-97940476D02*
X184531009Y-97988095D01*
X184531009Y-97988095D02*
X184578628Y-98083333D01*
X184578628Y-98083333D02*
X184578628Y-98464285D01*
X184150057Y-97511904D02*
X184102438Y-97464285D01*
X184102438Y-97464285D02*
X184054819Y-97369047D01*
X184054819Y-97369047D02*
X184054819Y-97130952D01*
X184054819Y-97130952D02*
X184102438Y-97035714D01*
X184102438Y-97035714D02*
X184150057Y-96988095D01*
X184150057Y-96988095D02*
X184245295Y-96940476D01*
X184245295Y-96940476D02*
X184340533Y-96940476D01*
X184340533Y-96940476D02*
X184483390Y-96988095D01*
X184483390Y-96988095D02*
X185054819Y-97559523D01*
X185054819Y-97559523D02*
X185054819Y-96940476D01*
X184054819Y-96083333D02*
X184054819Y-96273809D01*
X184054819Y-96273809D02*
X184102438Y-96369047D01*
X184102438Y-96369047D02*
X184150057Y-96416666D01*
X184150057Y-96416666D02*
X184292914Y-96511904D01*
X184292914Y-96511904D02*
X184483390Y-96559523D01*
X184483390Y-96559523D02*
X184864342Y-96559523D01*
X184864342Y-96559523D02*
X184959580Y-96511904D01*
X184959580Y-96511904D02*
X185007200Y-96464285D01*
X185007200Y-96464285D02*
X185054819Y-96369047D01*
X185054819Y-96369047D02*
X185054819Y-96178571D01*
X185054819Y-96178571D02*
X185007200Y-96083333D01*
X185007200Y-96083333D02*
X184959580Y-96035714D01*
X184959580Y-96035714D02*
X184864342Y-95988095D01*
X184864342Y-95988095D02*
X184626247Y-95988095D01*
X184626247Y-95988095D02*
X184531009Y-96035714D01*
X184531009Y-96035714D02*
X184483390Y-96083333D01*
X184483390Y-96083333D02*
X184435771Y-96178571D01*
X184435771Y-96178571D02*
X184435771Y-96369047D01*
X184435771Y-96369047D02*
X184483390Y-96464285D01*
X184483390Y-96464285D02*
X184531009Y-96511904D01*
X184531009Y-96511904D02*
X184626247Y-96559523D01*
X99814819Y-65892857D02*
X99338628Y-66226190D01*
X99814819Y-66464285D02*
X98814819Y-66464285D01*
X98814819Y-66464285D02*
X98814819Y-66083333D01*
X98814819Y-66083333D02*
X98862438Y-65988095D01*
X98862438Y-65988095D02*
X98910057Y-65940476D01*
X98910057Y-65940476D02*
X99005295Y-65892857D01*
X99005295Y-65892857D02*
X99148152Y-65892857D01*
X99148152Y-65892857D02*
X99243390Y-65940476D01*
X99243390Y-65940476D02*
X99291009Y-65988095D01*
X99291009Y-65988095D02*
X99338628Y-66083333D01*
X99338628Y-66083333D02*
X99338628Y-66464285D01*
X99814819Y-64940476D02*
X99814819Y-65511904D01*
X99814819Y-65226190D02*
X98814819Y-65226190D01*
X98814819Y-65226190D02*
X98957676Y-65321428D01*
X98957676Y-65321428D02*
X99052914Y-65416666D01*
X99052914Y-65416666D02*
X99100533Y-65511904D01*
X98910057Y-64559523D02*
X98862438Y-64511904D01*
X98862438Y-64511904D02*
X98814819Y-64416666D01*
X98814819Y-64416666D02*
X98814819Y-64178571D01*
X98814819Y-64178571D02*
X98862438Y-64083333D01*
X98862438Y-64083333D02*
X98910057Y-64035714D01*
X98910057Y-64035714D02*
X99005295Y-63988095D01*
X99005295Y-63988095D02*
X99100533Y-63988095D01*
X99100533Y-63988095D02*
X99243390Y-64035714D01*
X99243390Y-64035714D02*
X99814819Y-64607142D01*
X99814819Y-64607142D02*
X99814819Y-63988095D01*
X111488095Y-68206819D02*
X112059523Y-68206819D01*
X111773809Y-69206819D02*
X111773809Y-68206819D01*
X112392857Y-69206819D02*
X112392857Y-68206819D01*
X112392857Y-68206819D02*
X112773809Y-68206819D01*
X112773809Y-68206819D02*
X112869047Y-68254438D01*
X112869047Y-68254438D02*
X112916666Y-68302057D01*
X112916666Y-68302057D02*
X112964285Y-68397295D01*
X112964285Y-68397295D02*
X112964285Y-68540152D01*
X112964285Y-68540152D02*
X112916666Y-68635390D01*
X112916666Y-68635390D02*
X112869047Y-68683009D01*
X112869047Y-68683009D02*
X112773809Y-68730628D01*
X112773809Y-68730628D02*
X112392857Y-68730628D01*
X113916666Y-69206819D02*
X113345238Y-69206819D01*
X113630952Y-69206819D02*
X113630952Y-68206819D01*
X113630952Y-68206819D02*
X113535714Y-68349676D01*
X113535714Y-68349676D02*
X113440476Y-68444914D01*
X113440476Y-68444914D02*
X113345238Y-68492533D01*
%TO.C,R32*%
D13*
X159265000Y-46522936D02*
X159265000Y-46977064D01*
X160735000Y-46522936D02*
X160735000Y-46977064D01*
%TO.C,D2*%
X126930000Y-47750000D02*
X127950000Y-47750000D01*
X132370000Y-49220000D02*
X132370000Y-46280000D01*
X132490000Y-49220000D02*
X132490000Y-46280000D01*
X132610000Y-49220000D02*
X132610000Y-46280000D01*
X134410000Y-47750000D02*
X133390000Y-47750000D01*
X127950000Y-46280000D02*
X133390000Y-46280000D01*
X133390000Y-49220000D01*
X127950000Y-49220000D01*
X127950000Y-46280000D01*
%TO.C,D1*%
D14*
X100435000Y-69562500D02*
X105065000Y-69562500D01*
X100435000Y-70750000D02*
X98685000Y-70750000D01*
X100435000Y-70750000D02*
X100435000Y-69562500D01*
X100435000Y-71937500D02*
X100435000Y-70750000D01*
X105065000Y-69562500D02*
X105065000Y-70750000D01*
X105065000Y-70750000D02*
X105065000Y-71937500D01*
X105065000Y-71937500D02*
X100435000Y-71937500D01*
X106815000Y-70750000D02*
X105065000Y-70750000D01*
D15*
X109825000Y-70750000D02*
G75*
G02*
X109625000Y-70750000I-100000J0D01*
G01*
X109625000Y-70750000D02*
G75*
G02*
X109825000Y-70750000I100000J0D01*
G01*
%TO.C,R30*%
D13*
X99272936Y-120265000D02*
X99727064Y-120265000D01*
X99272936Y-121735000D02*
X99727064Y-121735000D01*
%TO.C,R29*%
X99022936Y-117265000D02*
X99477064Y-117265000D01*
X99022936Y-118735000D02*
X99477064Y-118735000D01*
%TO.C,D9*%
X163290000Y-100500000D02*
X163290000Y-103360000D01*
X163290000Y-103360000D02*
X165210000Y-103360000D01*
X165210000Y-103360000D02*
X165210000Y-100500000D01*
%TO.C,TP7*%
X190050000Y-58300000D02*
G75*
G02*
X188150000Y-58300000I-950000J0D01*
G01*
X188150000Y-58300000D02*
G75*
G02*
X190050000Y-58300000I950000J0D01*
G01*
%TO.C,R37*%
X189022936Y-121865000D02*
X189477064Y-121865000D01*
X189022936Y-123335000D02*
X189477064Y-123335000D01*
%TO.C,D10*%
X166790000Y-100500000D02*
X166790000Y-103360000D01*
X166790000Y-103360000D02*
X168710000Y-103360000D01*
X168710000Y-103360000D02*
X168710000Y-100500000D01*
%TO.C,TP3*%
X96700000Y-61750000D02*
G75*
G02*
X94300000Y-61750000I-1200000J0D01*
G01*
X94300000Y-61750000D02*
G75*
G02*
X96700000Y-61750000I1200000J0D01*
G01*
%TO.C,TP18*%
X134450000Y-109250000D02*
G75*
G02*
X132550000Y-109250000I-950000J0D01*
G01*
X132550000Y-109250000D02*
G75*
G02*
X134450000Y-109250000I950000J0D01*
G01*
%TO.C,R31*%
X189977064Y-70015000D02*
X189522936Y-70015000D01*
X189977064Y-71485000D02*
X189522936Y-71485000D01*
%TO.C,TP23*%
X121950000Y-109250000D02*
G75*
G02*
X120050000Y-109250000I-950000J0D01*
G01*
X120050000Y-109250000D02*
G75*
G02*
X121950000Y-109250000I950000J0D01*
G01*
%TO.C,TP16*%
X189950000Y-64500000D02*
G75*
G02*
X188050000Y-64500000I-950000J0D01*
G01*
X188050000Y-64500000D02*
G75*
G02*
X189950000Y-64500000I950000J0D01*
G01*
%TO.C,R33*%
X159265000Y-50977064D02*
X159265000Y-50522936D01*
X160735000Y-50977064D02*
X160735000Y-50522936D01*
%TO.C,TP24*%
X119250000Y-109200000D02*
G75*
G02*
X117350000Y-109200000I-950000J0D01*
G01*
X117350000Y-109200000D02*
G75*
G02*
X119250000Y-109200000I950000J0D01*
G01*
%TO.C,C9*%
D16*
X143470100Y-47750000D02*
X144740100Y-47750000D01*
X144105100Y-47115000D02*
X144105100Y-48385000D01*
X150632900Y-47750000D02*
G75*
G02*
X144867100Y-47750000I-2882900J0D01*
G01*
X144867100Y-47750000D02*
G75*
G02*
X150632900Y-47750000I2882900J0D01*
G01*
%TO.C,C8*%
D10*
X130050000Y-51650000D02*
X130050000Y-52850000D01*
X130650000Y-52250000D02*
X129450000Y-52250000D01*
X125500000Y-50750000D02*
X134500000Y-50750000D01*
X134500000Y-68750000D01*
X125500000Y-68750000D01*
X125500000Y-50750000D01*
%TO.C,J7*%
D14*
X135070000Y-123720000D02*
X135070000Y-144290000D01*
X135070000Y-123720000D02*
X150430000Y-123720000D01*
X150430000Y-123720000D02*
X150430000Y-144290000D01*
X150430000Y-144290000D02*
X135070000Y-144290000D01*
D15*
X138405000Y-123020000D02*
G75*
G02*
X138205000Y-123020000I-100000J0D01*
G01*
X138205000Y-123020000D02*
G75*
G02*
X138405000Y-123020000I100000J0D01*
G01*
%TO.C,C1*%
D16*
X103250000Y-77470100D02*
X103250000Y-78740100D01*
X103885000Y-78105100D02*
X102615000Y-78105100D01*
X106132900Y-81750000D02*
G75*
G02*
X100367100Y-81750000I-2882900J0D01*
G01*
X100367100Y-81750000D02*
G75*
G02*
X106132900Y-81750000I2882900J0D01*
G01*
%TO.C,R19*%
D13*
X170515000Y-97022936D02*
X170515000Y-97477064D01*
X171985000Y-97022936D02*
X171985000Y-97477064D01*
%TO.C,R18*%
X167015000Y-97022936D02*
X167015000Y-97477064D01*
X168485000Y-97022936D02*
X168485000Y-97477064D01*
%TO.C,J9*%
D14*
X174570000Y-123860000D02*
X174570000Y-144430000D01*
X174570000Y-123860000D02*
X189930000Y-123860000D01*
X189930000Y-123860000D02*
X189930000Y-144430000D01*
X189930000Y-144430000D02*
X174570000Y-144430000D01*
D15*
X177905000Y-123160000D02*
G75*
G02*
X177705000Y-123160000I-100000J0D01*
G01*
X177705000Y-123160000D02*
G75*
G02*
X177905000Y-123160000I100000J0D01*
G01*
%TO.C,TP15*%
D13*
X189950000Y-48500000D02*
G75*
G02*
X188050000Y-48500000I-950000J0D01*
G01*
X188050000Y-48500000D02*
G75*
G02*
X189950000Y-48500000I950000J0D01*
G01*
%TO.C,R17*%
X163515000Y-97022936D02*
X163515000Y-97477064D01*
X164985000Y-97022936D02*
X164985000Y-97477064D01*
%TO.C,JP2*%
X119850000Y-46750000D02*
X122650000Y-46750000D01*
X119850000Y-48750000D02*
X119850000Y-46750000D01*
X122650000Y-46750000D02*
X122650000Y-48750000D01*
X122650000Y-48750000D02*
X119850000Y-48750000D01*
%TO.C,D18*%
X181790000Y-100500000D02*
X181790000Y-103360000D01*
X181790000Y-103360000D02*
X183710000Y-103360000D01*
X183710000Y-103360000D02*
X183710000Y-100500000D01*
%TO.C,TP5*%
X137950000Y-53250000D02*
G75*
G02*
X135550000Y-53250000I-1200000J0D01*
G01*
X135550000Y-53250000D02*
G75*
G02*
X137950000Y-53250000I1200000J0D01*
G01*
%TO.C,TP20*%
X129450000Y-109250000D02*
G75*
G02*
X127550000Y-109250000I-950000J0D01*
G01*
X127550000Y-109250000D02*
G75*
G02*
X129450000Y-109250000I950000J0D01*
G01*
%TO.C,C15*%
D16*
X152076200Y-61447300D02*
G75*
G02*
X151923800Y-61447300I-76200J0D01*
G01*
X151923800Y-61447300D02*
G75*
G02*
X152076200Y-61447300I76200J0D01*
G01*
%TO.C,R1*%
D13*
X104515000Y-86522936D02*
X104515000Y-86977064D01*
X105985000Y-86522936D02*
X105985000Y-86977064D01*
%TO.C,Q4*%
D16*
X152956494Y-49464500D02*
X157083506Y-49464500D01*
X152855833Y-49414936D02*
G75*
G02*
X157750500Y-47750000I2164167J1664936D01*
G01*
X157750500Y-47750001D02*
G75*
G02*
X157184164Y-49414940I-2730500J1D01*
G01*
X150638500Y-47750000D02*
G75*
G02*
X150384500Y-47750000I-127000J0D01*
G01*
X150384500Y-47750000D02*
G75*
G02*
X150638500Y-47750000I127000J0D01*
G01*
%TO.C,J8*%
D14*
X155070000Y-123720000D02*
X155070000Y-144290000D01*
X155070000Y-123720000D02*
X170430000Y-123720000D01*
X170430000Y-123720000D02*
X170430000Y-144290000D01*
X170430000Y-144290000D02*
X155070000Y-144290000D01*
D15*
X158405000Y-123020000D02*
G75*
G02*
X158205000Y-123020000I-100000J0D01*
G01*
X158205000Y-123020000D02*
G75*
G02*
X158405000Y-123020000I100000J0D01*
G01*
%TO.C,TP4*%
D13*
X106950000Y-47750000D02*
G75*
G02*
X104550000Y-47750000I-1200000J0D01*
G01*
X104550000Y-47750000D02*
G75*
G02*
X106950000Y-47750000I1200000J0D01*
G01*
%TO.C,TP6*%
X190050000Y-55800000D02*
G75*
G02*
X188150000Y-55800000I-950000J0D01*
G01*
X188150000Y-55800000D02*
G75*
G02*
X190050000Y-55800000I950000J0D01*
G01*
%TO.C,U1*%
X116845000Y-57415000D02*
X116845000Y-68085000D01*
X116845000Y-68085000D02*
X118625000Y-68085000D01*
X118615000Y-57415000D02*
X116845000Y-57415000D01*
X118625000Y-57415000D02*
X118625000Y-58815000D01*
X118625000Y-58815000D02*
X120865000Y-58815000D01*
X118625000Y-66695000D02*
X118625000Y-68085000D01*
X120865000Y-58815000D02*
X120865000Y-66695000D01*
X120865000Y-66695000D02*
X118625000Y-66695000D01*
%TO.C,R27*%
X182015000Y-97477064D02*
X182015000Y-97022936D01*
X183485000Y-97477064D02*
X183485000Y-97022936D01*
%TO.C,D19*%
X178290000Y-100475000D02*
X178290000Y-103335000D01*
X178290000Y-103335000D02*
X180210000Y-103335000D01*
X180210000Y-103335000D02*
X180210000Y-100475000D01*
%TO.C,R15*%
X159265000Y-68522936D02*
X159265000Y-68977064D01*
X160735000Y-68522936D02*
X160735000Y-68977064D01*
%TO.C,R2*%
X96015000Y-86977064D02*
X96015000Y-86522936D01*
X97485000Y-86977064D02*
X97485000Y-86522936D01*
%TO.C,R13*%
X157515000Y-73227064D02*
X157515000Y-72772936D01*
X158985000Y-73227064D02*
X158985000Y-72772936D01*
%TO.C,J2*%
D14*
X93570000Y-123720000D02*
X93570000Y-144290000D01*
X93570000Y-123720000D02*
X108930000Y-123720000D01*
X108930000Y-123720000D02*
X108930000Y-144290000D01*
X108930000Y-144290000D02*
X93570000Y-144290000D01*
D15*
X96905000Y-123020000D02*
G75*
G02*
X96705000Y-123020000I-100000J0D01*
G01*
X96705000Y-123020000D02*
G75*
G02*
X96905000Y-123020000I100000J0D01*
G01*
%TO.C,R20*%
D13*
X174015000Y-97022936D02*
X174015000Y-97477064D01*
X175485000Y-97022936D02*
X175485000Y-97477064D01*
%TO.C,D11*%
X170290000Y-100500000D02*
X170290000Y-103360000D01*
X170290000Y-103360000D02*
X172210000Y-103360000D01*
X172210000Y-103360000D02*
X172210000Y-100500000D01*
%TO.C,R4*%
X178522936Y-108265000D02*
X178977064Y-108265000D01*
X178522936Y-109735000D02*
X178977064Y-109735000D01*
%TO.C,TP17*%
X189950000Y-67000000D02*
G75*
G02*
X188050000Y-67000000I-950000J0D01*
G01*
X188050000Y-67000000D02*
G75*
G02*
X189950000Y-67000000I950000J0D01*
G01*
%TO.C,D3*%
X141250000Y-49090000D02*
X141250000Y-50110000D01*
X141250000Y-56570000D02*
X141250000Y-55550000D01*
X142720000Y-50890000D02*
X139780000Y-50890000D01*
X142720000Y-51010000D02*
X139780000Y-51010000D01*
X142720000Y-51130000D02*
X139780000Y-51130000D01*
X139780000Y-50110000D02*
X142720000Y-50110000D01*
X142720000Y-55550000D01*
X139780000Y-55550000D01*
X139780000Y-50110000D01*
%TO.C,C3*%
D16*
X116970100Y-53750000D02*
X118240100Y-53750000D01*
X117605100Y-53115000D02*
X117605100Y-54385000D01*
X124132900Y-53750000D02*
G75*
G02*
X118367100Y-53750000I-2882900J0D01*
G01*
X118367100Y-53750000D02*
G75*
G02*
X124132900Y-53750000I2882900J0D01*
G01*
%TO.C,R35*%
D13*
X185022936Y-121865000D02*
X185477064Y-121865000D01*
X185022936Y-123335000D02*
X185477064Y-123335000D01*
%TO.C,Q2*%
D15*
X102440000Y-63405000D02*
X102440000Y-66600000D01*
X112980000Y-63405000D02*
X102440000Y-63405000D01*
X112980000Y-68095000D02*
X112980000Y-63405000D01*
%TO.C,M1*%
D13*
X151650000Y-61220000D02*
X151650000Y-55470000D01*
X151700000Y-50920000D02*
X157650000Y-50920000D01*
X151700000Y-54120000D02*
X151700000Y-50920000D01*
X156540000Y-54790000D02*
X157550000Y-54790000D01*
X156540000Y-59870000D02*
X156540000Y-54790000D01*
X157550000Y-59870000D02*
X156540000Y-59870000D01*
X157650000Y-50920000D02*
X157650000Y-61220000D01*
X157650000Y-61220000D02*
X151650000Y-61220000D01*
%TO.C,R14*%
X159265000Y-77272936D02*
X159265000Y-77727064D01*
X160735000Y-77272936D02*
X160735000Y-77727064D01*
%TO.C,D4*%
X99330000Y-73330000D02*
X99330000Y-77170000D01*
X99330000Y-77170000D02*
X107170000Y-77170000D01*
X105790000Y-77170000D02*
X105790000Y-73330000D01*
X105910000Y-77170000D02*
X105910000Y-73330000D01*
X106030000Y-77170000D02*
X106030000Y-73330000D01*
X107170000Y-73330000D02*
X99330000Y-73330000D01*
X107170000Y-77170000D02*
X107170000Y-73330000D01*
%TO.C,TP19*%
X131950000Y-109250000D02*
G75*
G02*
X130050000Y-109250000I-950000J0D01*
G01*
X130050000Y-109250000D02*
G75*
G02*
X131950000Y-109250000I950000J0D01*
G01*
%TO.C,J3*%
D14*
X114070000Y-123720000D02*
X114070000Y-144290000D01*
X114070000Y-123720000D02*
X129430000Y-123720000D01*
X129430000Y-123720000D02*
X129430000Y-144290000D01*
X129430000Y-144290000D02*
X114070000Y-144290000D01*
D15*
X117405000Y-123020000D02*
G75*
G02*
X117205000Y-123020000I-100000J0D01*
G01*
X117205000Y-123020000D02*
G75*
G02*
X117405000Y-123020000I100000J0D01*
G01*
%TO.C,R28*%
D13*
X178515000Y-97452064D02*
X178515000Y-96997936D01*
X179985000Y-97452064D02*
X179985000Y-96997936D01*
%TO.C,JP3*%
X146350000Y-55250000D02*
X149150000Y-55250000D01*
X146350000Y-57250000D02*
X146350000Y-55250000D01*
X149150000Y-55250000D02*
X149150000Y-57250000D01*
X149150000Y-57250000D02*
X146350000Y-57250000D01*
%TO.C,TP25*%
X134450000Y-121750000D02*
G75*
G02*
X132550000Y-121750000I-950000J0D01*
G01*
X132550000Y-121750000D02*
G75*
G02*
X134450000Y-121750000I950000J0D01*
G01*
%TO.C,U_BTN_EXPANDER1*%
X114420000Y-112790000D02*
X114420000Y-114440000D01*
X114420000Y-116440000D02*
X114420000Y-118090000D01*
X114420000Y-118090000D02*
X150100000Y-118090000D01*
X150100000Y-112790000D02*
X114420000Y-112790000D01*
X150100000Y-118090000D02*
X150100000Y-112790000D01*
X114420000Y-114440000D02*
G75*
G02*
X114420000Y-116440000I0J-1000000D01*
G01*
%TO.C,TP22*%
X124450000Y-109250000D02*
G75*
G02*
X122550000Y-109250000I-950000J0D01*
G01*
X122550000Y-109250000D02*
G75*
G02*
X124450000Y-109250000I950000J0D01*
G01*
%TO.C,TP2*%
X112950000Y-47750000D02*
G75*
G02*
X110550000Y-47750000I-1200000J0D01*
G01*
X110550000Y-47750000D02*
G75*
G02*
X112950000Y-47750000I1200000J0D01*
G01*
%TO.C,U4*%
X136370000Y-66870000D02*
X137750000Y-66870000D01*
X136370000Y-68250000D02*
X136370000Y-66870000D01*
X136370000Y-69520000D02*
X136370000Y-102650000D01*
X136370000Y-69520000D02*
X139250000Y-69520000D01*
X136370000Y-102650000D02*
X156750000Y-102650000D01*
D10*
X139250000Y-69520000D02*
X139250000Y-66750000D01*
X156750000Y-66750000D02*
X139250000Y-66750000D01*
D13*
X156750000Y-66935000D02*
X156750000Y-102750000D01*
%TO.C,U2*%
X161370000Y-45370000D02*
X162750000Y-45370000D01*
X161370000Y-46750000D02*
X161370000Y-45370000D01*
X161370000Y-48020000D02*
X161370000Y-93850000D01*
X161370000Y-48020000D02*
X164020000Y-48020000D01*
X161370000Y-93850000D02*
X187250000Y-93850000D01*
X164020000Y-45370000D02*
X187250000Y-45370000D01*
X164020000Y-48020000D02*
X164020000Y-45370000D01*
X187250000Y-45370000D02*
X187250000Y-93850000D01*
D10*
X165500000Y-45750000D02*
X183750000Y-45750000D01*
X183750000Y-50000000D01*
X165500000Y-50000000D01*
X165500000Y-45750000D01*
%TO.C,D8*%
D13*
X159790000Y-100500000D02*
X159790000Y-103360000D01*
X159790000Y-103360000D02*
X161710000Y-103360000D01*
X161710000Y-103360000D02*
X161710000Y-100500000D01*
%TO.C,D17*%
X185290000Y-100500000D02*
X185290000Y-103360000D01*
X185290000Y-103360000D02*
X187210000Y-103360000D01*
X187210000Y-103360000D02*
X187210000Y-100500000D01*
%TO.C,R6*%
X180522936Y-121015000D02*
X180977064Y-121015000D01*
X180522936Y-122485000D02*
X180977064Y-122485000D01*
%TO.C,BZ1*%
D10*
X103750000Y-94250000D02*
X103750000Y-94250000D01*
X103750000Y-116250000D02*
X103750000Y-116250000D01*
X103750000Y-94250000D02*
G75*
G02*
X103750000Y-116250000I0J-11000000D01*
G01*
X103750000Y-116250000D02*
G75*
G02*
X103750000Y-94250000I0J11000000D01*
G01*
%TO.C,C20*%
D16*
X145523500Y-59750000D02*
G75*
G02*
X145371100Y-59750000I-76200J0D01*
G01*
X145371100Y-59750000D02*
G75*
G02*
X145523500Y-59750000I76200J0D01*
G01*
%TO.C,R7*%
D13*
X189765000Y-75227064D02*
X189765000Y-74772936D01*
X191235000Y-75227064D02*
X191235000Y-74772936D01*
%TO.C,R5*%
X188165000Y-52827064D02*
X188165000Y-52372936D01*
X189635000Y-52827064D02*
X189635000Y-52372936D01*
%TO.C,JP1*%
X118750000Y-69350000D02*
X120750000Y-69350000D01*
X118750000Y-72150000D02*
X118750000Y-69350000D01*
X120750000Y-69350000D02*
X120750000Y-72150000D01*
X120750000Y-72150000D02*
X118750000Y-72150000D01*
%TO.C,R36*%
X172515000Y-129977064D02*
X172515000Y-129522936D01*
X173985000Y-129977064D02*
X173985000Y-129522936D01*
%TO.C,D12*%
X173790000Y-100500000D02*
X173790000Y-103360000D01*
X173790000Y-103360000D02*
X175710000Y-103360000D01*
X175710000Y-103360000D02*
X175710000Y-100500000D01*
%TO.C,D16*%
X188790000Y-100475000D02*
X188790000Y-103335000D01*
X188790000Y-103335000D02*
X190710000Y-103335000D01*
X190710000Y-103335000D02*
X190710000Y-100475000D01*
%TO.C,R25*%
X189015000Y-97452064D02*
X189015000Y-96997936D01*
X190485000Y-97452064D02*
X190485000Y-96997936D01*
%TO.C,U_LED_EXPANDER1*%
X152920000Y-112790000D02*
X152920000Y-114440000D01*
X152920000Y-116440000D02*
X152920000Y-118090000D01*
X152920000Y-118090000D02*
X188600000Y-118090000D01*
X188600000Y-112790000D02*
X152920000Y-112790000D01*
X188600000Y-118090000D02*
X188600000Y-112790000D01*
X152920000Y-114440000D02*
G75*
G02*
X152920000Y-116440000I0J-1000000D01*
G01*
%TO.C,R3*%
X142177064Y-106765000D02*
X141722936Y-106765000D01*
X142177064Y-108235000D02*
X141722936Y-108235000D01*
%TO.C,LED1*%
D16*
X114218000Y-74283000D02*
X114218000Y-99530600D01*
X114218000Y-99530600D02*
X133522000Y-99530600D01*
X133522000Y-74283000D02*
X114218000Y-74283000D01*
X133522000Y-99530600D02*
X133522000Y-74283000D01*
X114205300Y-76750000D02*
G75*
G02*
X114052900Y-76750000I-76200J0D01*
G01*
X114052900Y-76750000D02*
G75*
G02*
X114205300Y-76750000I76200J0D01*
G01*
%TO.C,R34*%
D13*
X172515000Y-125977064D02*
X172515000Y-125522936D01*
X173985000Y-125977064D02*
X173985000Y-125522936D01*
%TO.C,R8*%
X136015000Y-57022936D02*
X136015000Y-57477064D01*
X137485000Y-57022936D02*
X137485000Y-57477064D01*
%TO.C,R16*%
X160015000Y-97022936D02*
X160015000Y-97477064D01*
X161485000Y-97022936D02*
X161485000Y-97477064D01*
%TO.C,U5*%
D14*
X154045000Y-63100000D02*
X154045000Y-65400000D01*
X156455000Y-63100000D02*
X156455000Y-65400000D01*
D15*
X156100000Y-61725000D02*
G75*
G02*
X155900000Y-61725000I-100000J0D01*
G01*
X155900000Y-61725000D02*
G75*
G02*
X156100000Y-61725000I100000J0D01*
G01*
%TO.C,J1*%
D14*
X92050000Y-50250000D02*
X106450000Y-50250000D01*
X92050000Y-59250000D02*
X92050000Y-50250000D01*
X100200000Y-59250000D02*
X92050000Y-59250000D01*
X106450000Y-50250000D02*
X106450000Y-52100000D01*
X106450000Y-57300000D02*
X106450000Y-59250000D01*
X106450000Y-59250000D02*
X105300000Y-59250000D01*
D17*
X107950000Y-54750000D02*
G75*
G02*
X107550000Y-54750000I-200000J0D01*
G01*
X107550000Y-54750000D02*
G75*
G02*
X107950000Y-54750000I200000J0D01*
G01*
%TO.C,F1*%
D10*
X109750000Y-52500000D02*
X112750000Y-52500000D01*
X112750000Y-62500000D01*
X109750000Y-62500000D01*
X109750000Y-52500000D01*
%TO.C,Q3*%
D16*
X96964500Y-120043506D02*
X96964500Y-115916494D01*
X95250001Y-115249500D02*
G75*
G02*
X96914940Y-115815836I-1J-2730500D01*
G01*
X96914936Y-120144167D02*
G75*
G02*
X95250000Y-115249500I-1664936J2164167D01*
G01*
X95377000Y-122488500D02*
G75*
G02*
X95123000Y-122488500I-127000J0D01*
G01*
X95123000Y-122488500D02*
G75*
G02*
X95377000Y-122488500I127000J0D01*
G01*
%TO.C,TP21*%
D13*
X126950000Y-109250000D02*
G75*
G02*
X125050000Y-109250000I-950000J0D01*
G01*
X125050000Y-109250000D02*
G75*
G02*
X126950000Y-109250000I950000J0D01*
G01*
%TO.C,R26*%
X185515000Y-97477064D02*
X185515000Y-97022936D01*
X186985000Y-97477064D02*
X186985000Y-97022936D01*
%TO.C,R12*%
X96975000Y-65022936D02*
X96975000Y-65477064D01*
X98445000Y-65022936D02*
X98445000Y-65477064D01*
%TO.C,TP1*%
X113950000Y-70750000D02*
G75*
G02*
X111550000Y-70750000I-1200000J0D01*
G01*
X111550000Y-70750000D02*
G75*
G02*
X113950000Y-70750000I1200000J0D01*
G01*
%TD*%
M02*
