%TF.GenerationSoftware,KiCad,Pcbnew,10.0.4*%
%TF.CreationDate,2026-07-30T17:06:17-07:00*%
%TF.ProjectId,FluxCapacitor,466c7578-4361-4706-9163-69746f722e6b,rev?*%
%TF.SameCoordinates,Original*%
%TF.FileFunction,Legend,Bot*%
%TF.FilePolarity,Positive*%
%FSLAX46Y46*%
G04 Gerber Fmt 4.6, Leading zero omitted, Abs format (unit mm)*
G04 Created by KiCad (PCBNEW 10.0.4) date 2026-07-30 17:06:17*
%MOMM*%
%LPD*%
G01*
G04 APERTURE LIST*
%ADD10C,0.100000*%
%ADD11C,0.000000*%
G04 APERTURE END LIST*
D10*
X178962782Y-65948609D02*
X179296115Y-65948609D01*
X179296115Y-66472419D02*
X179296115Y-65472419D01*
X179296115Y-65472419D02*
X178819925Y-65472419D01*
X178248496Y-65472419D02*
X178058020Y-65472419D01*
X178058020Y-65472419D02*
X177962782Y-65520038D01*
X177962782Y-65520038D02*
X177867544Y-65615276D01*
X177867544Y-65615276D02*
X177819925Y-65805752D01*
X177819925Y-65805752D02*
X177819925Y-66139085D01*
X177819925Y-66139085D02*
X177867544Y-66329561D01*
X177867544Y-66329561D02*
X177962782Y-66424800D01*
X177962782Y-66424800D02*
X178058020Y-66472419D01*
X178058020Y-66472419D02*
X178248496Y-66472419D01*
X178248496Y-66472419D02*
X178343734Y-66424800D01*
X178343734Y-66424800D02*
X178438972Y-66329561D01*
X178438972Y-66329561D02*
X178486591Y-66139085D01*
X178486591Y-66139085D02*
X178486591Y-65805752D01*
X178486591Y-65805752D02*
X178438972Y-65615276D01*
X178438972Y-65615276D02*
X178343734Y-65520038D01*
X178343734Y-65520038D02*
X178248496Y-65472419D01*
X176819925Y-66472419D02*
X177153258Y-65996228D01*
X177391353Y-66472419D02*
X177391353Y-65472419D01*
X177391353Y-65472419D02*
X177010401Y-65472419D01*
X177010401Y-65472419D02*
X176915163Y-65520038D01*
X176915163Y-65520038D02*
X176867544Y-65567657D01*
X176867544Y-65567657D02*
X176819925Y-65662895D01*
X176819925Y-65662895D02*
X176819925Y-65805752D01*
X176819925Y-65805752D02*
X176867544Y-65900990D01*
X176867544Y-65900990D02*
X176915163Y-65948609D01*
X176915163Y-65948609D02*
X177010401Y-65996228D01*
X177010401Y-65996228D02*
X177391353Y-65996228D01*
X175629448Y-66472419D02*
X175629448Y-65472419D01*
X175629448Y-65948609D02*
X175058020Y-65948609D01*
X175058020Y-66472419D02*
X175058020Y-65472419D01*
X174581829Y-65948609D02*
X174248496Y-65948609D01*
X174105639Y-66472419D02*
X174581829Y-66472419D01*
X174581829Y-66472419D02*
X174581829Y-65472419D01*
X174581829Y-65472419D02*
X174105639Y-65472419D01*
X173677067Y-65948609D02*
X173343734Y-65948609D01*
X173200877Y-66472419D02*
X173677067Y-66472419D01*
X173677067Y-66472419D02*
X173677067Y-65472419D01*
X173677067Y-65472419D02*
X173200877Y-65472419D01*
X172296115Y-66472419D02*
X172772305Y-66472419D01*
X172772305Y-66472419D02*
X172772305Y-65472419D01*
X171962781Y-65472419D02*
X171962781Y-66281942D01*
X171962781Y-66281942D02*
X171915162Y-66377180D01*
X171915162Y-66377180D02*
X171867543Y-66424800D01*
X171867543Y-66424800D02*
X171772305Y-66472419D01*
X171772305Y-66472419D02*
X171581829Y-66472419D01*
X171581829Y-66472419D02*
X171486591Y-66424800D01*
X171486591Y-66424800D02*
X171438972Y-66377180D01*
X171438972Y-66377180D02*
X171391353Y-66281942D01*
X171391353Y-66281942D02*
X171391353Y-65472419D01*
X171010400Y-65472419D02*
X170343734Y-66472419D01*
X170343734Y-65472419D02*
X171010400Y-66472419D01*
X169962781Y-65948609D02*
X169629448Y-65948609D01*
X169486591Y-66472419D02*
X169962781Y-66472419D01*
X169962781Y-66472419D02*
X169962781Y-65472419D01*
X169962781Y-65472419D02*
X169486591Y-65472419D01*
X181524687Y-68272419D02*
X181858020Y-67796228D01*
X182096115Y-68272419D02*
X182096115Y-67272419D01*
X182096115Y-67272419D02*
X181715163Y-67272419D01*
X181715163Y-67272419D02*
X181619925Y-67320038D01*
X181619925Y-67320038D02*
X181572306Y-67367657D01*
X181572306Y-67367657D02*
X181524687Y-67462895D01*
X181524687Y-67462895D02*
X181524687Y-67605752D01*
X181524687Y-67605752D02*
X181572306Y-67700990D01*
X181572306Y-67700990D02*
X181619925Y-67748609D01*
X181619925Y-67748609D02*
X181715163Y-67796228D01*
X181715163Y-67796228D02*
X182096115Y-67796228D01*
X181096115Y-67748609D02*
X180762782Y-67748609D01*
X180619925Y-68272419D02*
X181096115Y-68272419D01*
X181096115Y-68272419D02*
X181096115Y-67272419D01*
X181096115Y-67272419D02*
X180619925Y-67272419D01*
X180334210Y-67272419D02*
X180000877Y-68272419D01*
X180000877Y-68272419D02*
X179667544Y-67272419D01*
X178381829Y-67272419D02*
X178286591Y-67272419D01*
X178286591Y-67272419D02*
X178191353Y-67320038D01*
X178191353Y-67320038D02*
X178143734Y-67367657D01*
X178143734Y-67367657D02*
X178096115Y-67462895D01*
X178096115Y-67462895D02*
X178048496Y-67653371D01*
X178048496Y-67653371D02*
X178048496Y-67891466D01*
X178048496Y-67891466D02*
X178096115Y-68081942D01*
X178096115Y-68081942D02*
X178143734Y-68177180D01*
X178143734Y-68177180D02*
X178191353Y-68224800D01*
X178191353Y-68224800D02*
X178286591Y-68272419D01*
X178286591Y-68272419D02*
X178381829Y-68272419D01*
X178381829Y-68272419D02*
X178477067Y-68224800D01*
X178477067Y-68224800D02*
X178524686Y-68177180D01*
X178524686Y-68177180D02*
X178572305Y-68081942D01*
X178572305Y-68081942D02*
X178619924Y-67891466D01*
X178619924Y-67891466D02*
X178619924Y-67653371D01*
X178619924Y-67653371D02*
X178572305Y-67462895D01*
X178572305Y-67462895D02*
X178524686Y-67367657D01*
X178524686Y-67367657D02*
X178477067Y-67320038D01*
X178477067Y-67320038D02*
X178381829Y-67272419D01*
X176858019Y-67891466D02*
X176096115Y-67891466D01*
X174572305Y-67272419D02*
X174572305Y-67986704D01*
X174572305Y-67986704D02*
X174619924Y-68129561D01*
X174619924Y-68129561D02*
X174715162Y-68224800D01*
X174715162Y-68224800D02*
X174858019Y-68272419D01*
X174858019Y-68272419D02*
X174953257Y-68272419D01*
X174096114Y-67272419D02*
X174096114Y-68081942D01*
X174096114Y-68081942D02*
X174048495Y-68177180D01*
X174048495Y-68177180D02*
X174000876Y-68224800D01*
X174000876Y-68224800D02*
X173905638Y-68272419D01*
X173905638Y-68272419D02*
X173715162Y-68272419D01*
X173715162Y-68272419D02*
X173619924Y-68224800D01*
X173619924Y-68224800D02*
X173572305Y-68177180D01*
X173572305Y-68177180D02*
X173524686Y-68081942D01*
X173524686Y-68081942D02*
X173524686Y-67272419D01*
X172572305Y-68272419D02*
X173048495Y-68272419D01*
X173048495Y-68272419D02*
X173048495Y-67272419D01*
X172048495Y-67796228D02*
X172048495Y-68272419D01*
X172381828Y-67272419D02*
X172048495Y-67796228D01*
X172048495Y-67796228D02*
X171715162Y-67272419D01*
X170667542Y-67367657D02*
X170619923Y-67320038D01*
X170619923Y-67320038D02*
X170524685Y-67272419D01*
X170524685Y-67272419D02*
X170286590Y-67272419D01*
X170286590Y-67272419D02*
X170191352Y-67320038D01*
X170191352Y-67320038D02*
X170143733Y-67367657D01*
X170143733Y-67367657D02*
X170096114Y-67462895D01*
X170096114Y-67462895D02*
X170096114Y-67558133D01*
X170096114Y-67558133D02*
X170143733Y-67700990D01*
X170143733Y-67700990D02*
X170715161Y-68272419D01*
X170715161Y-68272419D02*
X170096114Y-68272419D01*
X169477066Y-67272419D02*
X169381828Y-67272419D01*
X169381828Y-67272419D02*
X169286590Y-67320038D01*
X169286590Y-67320038D02*
X169238971Y-67367657D01*
X169238971Y-67367657D02*
X169191352Y-67462895D01*
X169191352Y-67462895D02*
X169143733Y-67653371D01*
X169143733Y-67653371D02*
X169143733Y-67891466D01*
X169143733Y-67891466D02*
X169191352Y-68081942D01*
X169191352Y-68081942D02*
X169238971Y-68177180D01*
X169238971Y-68177180D02*
X169286590Y-68224800D01*
X169286590Y-68224800D02*
X169381828Y-68272419D01*
X169381828Y-68272419D02*
X169477066Y-68272419D01*
X169477066Y-68272419D02*
X169572304Y-68224800D01*
X169572304Y-68224800D02*
X169619923Y-68177180D01*
X169619923Y-68177180D02*
X169667542Y-68081942D01*
X169667542Y-68081942D02*
X169715161Y-67891466D01*
X169715161Y-67891466D02*
X169715161Y-67653371D01*
X169715161Y-67653371D02*
X169667542Y-67462895D01*
X169667542Y-67462895D02*
X169619923Y-67367657D01*
X169619923Y-67367657D02*
X169572304Y-67320038D01*
X169572304Y-67320038D02*
X169477066Y-67272419D01*
X168762780Y-67367657D02*
X168715161Y-67320038D01*
X168715161Y-67320038D02*
X168619923Y-67272419D01*
X168619923Y-67272419D02*
X168381828Y-67272419D01*
X168381828Y-67272419D02*
X168286590Y-67320038D01*
X168286590Y-67320038D02*
X168238971Y-67367657D01*
X168238971Y-67367657D02*
X168191352Y-67462895D01*
X168191352Y-67462895D02*
X168191352Y-67558133D01*
X168191352Y-67558133D02*
X168238971Y-67700990D01*
X168238971Y-67700990D02*
X168810399Y-68272419D01*
X168810399Y-68272419D02*
X168191352Y-68272419D01*
X167334209Y-67272419D02*
X167524685Y-67272419D01*
X167524685Y-67272419D02*
X167619923Y-67320038D01*
X167619923Y-67320038D02*
X167667542Y-67367657D01*
X167667542Y-67367657D02*
X167762780Y-67510514D01*
X167762780Y-67510514D02*
X167810399Y-67700990D01*
X167810399Y-67700990D02*
X167810399Y-68081942D01*
X167810399Y-68081942D02*
X167762780Y-68177180D01*
X167762780Y-68177180D02*
X167715161Y-68224800D01*
X167715161Y-68224800D02*
X167619923Y-68272419D01*
X167619923Y-68272419D02*
X167429447Y-68272419D01*
X167429447Y-68272419D02*
X167334209Y-68224800D01*
X167334209Y-68224800D02*
X167286590Y-68177180D01*
X167286590Y-68177180D02*
X167238971Y-68081942D01*
X167238971Y-68081942D02*
X167238971Y-67843847D01*
X167238971Y-67843847D02*
X167286590Y-67748609D01*
X167286590Y-67748609D02*
X167334209Y-67700990D01*
X167334209Y-67700990D02*
X167429447Y-67653371D01*
X167429447Y-67653371D02*
X167619923Y-67653371D01*
X167619923Y-67653371D02*
X167715161Y-67700990D01*
X167715161Y-67700990D02*
X167762780Y-67748609D01*
X167762780Y-67748609D02*
X167810399Y-67843847D01*
X183896115Y-64772419D02*
X183896115Y-63772419D01*
X183896115Y-63772419D02*
X183562782Y-64486704D01*
X183562782Y-64486704D02*
X183229449Y-63772419D01*
X183229449Y-63772419D02*
X183229449Y-64772419D01*
X182800877Y-64486704D02*
X182324687Y-64486704D01*
X182896115Y-64772419D02*
X182562782Y-63772419D01*
X182562782Y-63772419D02*
X182229449Y-64772419D01*
X181896115Y-64772419D02*
X181896115Y-63772419D01*
X181896115Y-63772419D02*
X181658020Y-63772419D01*
X181658020Y-63772419D02*
X181515163Y-63820038D01*
X181515163Y-63820038D02*
X181419925Y-63915276D01*
X181419925Y-63915276D02*
X181372306Y-64010514D01*
X181372306Y-64010514D02*
X181324687Y-64200990D01*
X181324687Y-64200990D02*
X181324687Y-64343847D01*
X181324687Y-64343847D02*
X181372306Y-64534323D01*
X181372306Y-64534323D02*
X181419925Y-64629561D01*
X181419925Y-64629561D02*
X181515163Y-64724800D01*
X181515163Y-64724800D02*
X181658020Y-64772419D01*
X181658020Y-64772419D02*
X181896115Y-64772419D01*
X180896115Y-64248609D02*
X180562782Y-64248609D01*
X180419925Y-64772419D02*
X180896115Y-64772419D01*
X180896115Y-64772419D02*
X180896115Y-63772419D01*
X180896115Y-63772419D02*
X180419925Y-63772419D01*
X178896115Y-64248609D02*
X178753258Y-64296228D01*
X178753258Y-64296228D02*
X178705639Y-64343847D01*
X178705639Y-64343847D02*
X178658020Y-64439085D01*
X178658020Y-64439085D02*
X178658020Y-64581942D01*
X178658020Y-64581942D02*
X178705639Y-64677180D01*
X178705639Y-64677180D02*
X178753258Y-64724800D01*
X178753258Y-64724800D02*
X178848496Y-64772419D01*
X178848496Y-64772419D02*
X179229448Y-64772419D01*
X179229448Y-64772419D02*
X179229448Y-63772419D01*
X179229448Y-63772419D02*
X178896115Y-63772419D01*
X178896115Y-63772419D02*
X178800877Y-63820038D01*
X178800877Y-63820038D02*
X178753258Y-63867657D01*
X178753258Y-63867657D02*
X178705639Y-63962895D01*
X178705639Y-63962895D02*
X178705639Y-64058133D01*
X178705639Y-64058133D02*
X178753258Y-64153371D01*
X178753258Y-64153371D02*
X178800877Y-64200990D01*
X178800877Y-64200990D02*
X178896115Y-64248609D01*
X178896115Y-64248609D02*
X179229448Y-64248609D01*
X178038972Y-64296228D02*
X178038972Y-64772419D01*
X178372305Y-63772419D02*
X178038972Y-64296228D01*
X178038972Y-64296228D02*
X177705639Y-63772419D01*
X176324686Y-63772419D02*
X176324686Y-64486704D01*
X176324686Y-64486704D02*
X176372305Y-64629561D01*
X176372305Y-64629561D02*
X176467543Y-64724800D01*
X176467543Y-64724800D02*
X176610400Y-64772419D01*
X176610400Y-64772419D02*
X176705638Y-64772419D01*
X175658019Y-63772419D02*
X175467543Y-63772419D01*
X175467543Y-63772419D02*
X175372305Y-63820038D01*
X175372305Y-63820038D02*
X175277067Y-63915276D01*
X175277067Y-63915276D02*
X175229448Y-64105752D01*
X175229448Y-64105752D02*
X175229448Y-64439085D01*
X175229448Y-64439085D02*
X175277067Y-64629561D01*
X175277067Y-64629561D02*
X175372305Y-64724800D01*
X175372305Y-64724800D02*
X175467543Y-64772419D01*
X175467543Y-64772419D02*
X175658019Y-64772419D01*
X175658019Y-64772419D02*
X175753257Y-64724800D01*
X175753257Y-64724800D02*
X175848495Y-64629561D01*
X175848495Y-64629561D02*
X175896114Y-64439085D01*
X175896114Y-64439085D02*
X175896114Y-64105752D01*
X175896114Y-64105752D02*
X175848495Y-63915276D01*
X175848495Y-63915276D02*
X175753257Y-63820038D01*
X175753257Y-63820038D02*
X175658019Y-63772419D01*
X174848495Y-64724800D02*
X174705638Y-64772419D01*
X174705638Y-64772419D02*
X174467543Y-64772419D01*
X174467543Y-64772419D02*
X174372305Y-64724800D01*
X174372305Y-64724800D02*
X174324686Y-64677180D01*
X174324686Y-64677180D02*
X174277067Y-64581942D01*
X174277067Y-64581942D02*
X174277067Y-64486704D01*
X174277067Y-64486704D02*
X174324686Y-64391466D01*
X174324686Y-64391466D02*
X174372305Y-64343847D01*
X174372305Y-64343847D02*
X174467543Y-64296228D01*
X174467543Y-64296228D02*
X174658019Y-64248609D01*
X174658019Y-64248609D02*
X174753257Y-64200990D01*
X174753257Y-64200990D02*
X174800876Y-64153371D01*
X174800876Y-64153371D02*
X174848495Y-64058133D01*
X174848495Y-64058133D02*
X174848495Y-63962895D01*
X174848495Y-63962895D02*
X174800876Y-63867657D01*
X174800876Y-63867657D02*
X174753257Y-63820038D01*
X174753257Y-63820038D02*
X174658019Y-63772419D01*
X174658019Y-63772419D02*
X174419924Y-63772419D01*
X174419924Y-63772419D02*
X174277067Y-63820038D01*
X173848495Y-64772419D02*
X173848495Y-63772419D01*
X173848495Y-64248609D02*
X173277067Y-64248609D01*
X173277067Y-64772419D02*
X173277067Y-63772419D01*
X172800876Y-63772419D02*
X172800876Y-64581942D01*
X172800876Y-64581942D02*
X172753257Y-64677180D01*
X172753257Y-64677180D02*
X172705638Y-64724800D01*
X172705638Y-64724800D02*
X172610400Y-64772419D01*
X172610400Y-64772419D02*
X172419924Y-64772419D01*
X172419924Y-64772419D02*
X172324686Y-64724800D01*
X172324686Y-64724800D02*
X172277067Y-64677180D01*
X172277067Y-64677180D02*
X172229448Y-64581942D01*
X172229448Y-64581942D02*
X172229448Y-63772419D01*
X171800876Y-64486704D02*
X171324686Y-64486704D01*
X171896114Y-64772419D02*
X171562781Y-63772419D01*
X171562781Y-63772419D02*
X171229448Y-64772419D01*
X170181828Y-64724800D02*
X170038971Y-64772419D01*
X170038971Y-64772419D02*
X169800876Y-64772419D01*
X169800876Y-64772419D02*
X169705638Y-64724800D01*
X169705638Y-64724800D02*
X169658019Y-64677180D01*
X169658019Y-64677180D02*
X169610400Y-64581942D01*
X169610400Y-64581942D02*
X169610400Y-64486704D01*
X169610400Y-64486704D02*
X169658019Y-64391466D01*
X169658019Y-64391466D02*
X169705638Y-64343847D01*
X169705638Y-64343847D02*
X169800876Y-64296228D01*
X169800876Y-64296228D02*
X169991352Y-64248609D01*
X169991352Y-64248609D02*
X170086590Y-64200990D01*
X170086590Y-64200990D02*
X170134209Y-64153371D01*
X170134209Y-64153371D02*
X170181828Y-64058133D01*
X170181828Y-64058133D02*
X170181828Y-63962895D01*
X170181828Y-63962895D02*
X170134209Y-63867657D01*
X170134209Y-63867657D02*
X170086590Y-63820038D01*
X170086590Y-63820038D02*
X169991352Y-63772419D01*
X169991352Y-63772419D02*
X169753257Y-63772419D01*
X169753257Y-63772419D02*
X169610400Y-63820038D01*
X169181828Y-64772419D02*
X169181828Y-63772419D01*
X169181828Y-63772419D02*
X168848495Y-64486704D01*
X168848495Y-64486704D02*
X168515162Y-63772419D01*
X168515162Y-63772419D02*
X168515162Y-64772419D01*
X168086590Y-64486704D02*
X167610400Y-64486704D01*
X168181828Y-64772419D02*
X167848495Y-63772419D01*
X167848495Y-63772419D02*
X167515162Y-64772419D01*
X166705638Y-64772419D02*
X167181828Y-64772419D01*
X167181828Y-64772419D02*
X167181828Y-63772419D01*
X165896114Y-64772419D02*
X166372304Y-64772419D01*
X166372304Y-64772419D02*
X166372304Y-63772419D01*
X184462782Y-46048609D02*
X184796115Y-46048609D01*
X184796115Y-46572419D02*
X184796115Y-45572419D01*
X184796115Y-45572419D02*
X184319925Y-45572419D01*
X183462782Y-46572419D02*
X183938972Y-46572419D01*
X183938972Y-46572419D02*
X183938972Y-45572419D01*
X183129448Y-45572419D02*
X183129448Y-46381942D01*
X183129448Y-46381942D02*
X183081829Y-46477180D01*
X183081829Y-46477180D02*
X183034210Y-46524800D01*
X183034210Y-46524800D02*
X182938972Y-46572419D01*
X182938972Y-46572419D02*
X182748496Y-46572419D01*
X182748496Y-46572419D02*
X182653258Y-46524800D01*
X182653258Y-46524800D02*
X182605639Y-46477180D01*
X182605639Y-46477180D02*
X182558020Y-46381942D01*
X182558020Y-46381942D02*
X182558020Y-45572419D01*
X182177067Y-45572419D02*
X181510401Y-46572419D01*
X181510401Y-45572419D02*
X182177067Y-46572419D01*
X179796115Y-46477180D02*
X179843734Y-46524800D01*
X179843734Y-46524800D02*
X179986591Y-46572419D01*
X179986591Y-46572419D02*
X180081829Y-46572419D01*
X180081829Y-46572419D02*
X180224686Y-46524800D01*
X180224686Y-46524800D02*
X180319924Y-46429561D01*
X180319924Y-46429561D02*
X180367543Y-46334323D01*
X180367543Y-46334323D02*
X180415162Y-46143847D01*
X180415162Y-46143847D02*
X180415162Y-46000990D01*
X180415162Y-46000990D02*
X180367543Y-45810514D01*
X180367543Y-45810514D02*
X180319924Y-45715276D01*
X180319924Y-45715276D02*
X180224686Y-45620038D01*
X180224686Y-45620038D02*
X180081829Y-45572419D01*
X180081829Y-45572419D02*
X179986591Y-45572419D01*
X179986591Y-45572419D02*
X179843734Y-45620038D01*
X179843734Y-45620038D02*
X179796115Y-45667657D01*
X179415162Y-46286704D02*
X178938972Y-46286704D01*
X179510400Y-46572419D02*
X179177067Y-45572419D01*
X179177067Y-45572419D02*
X178843734Y-46572419D01*
X178510400Y-46572419D02*
X178510400Y-45572419D01*
X178510400Y-45572419D02*
X178129448Y-45572419D01*
X178129448Y-45572419D02*
X178034210Y-45620038D01*
X178034210Y-45620038D02*
X177986591Y-45667657D01*
X177986591Y-45667657D02*
X177938972Y-45762895D01*
X177938972Y-45762895D02*
X177938972Y-45905752D01*
X177938972Y-45905752D02*
X177986591Y-46000990D01*
X177986591Y-46000990D02*
X178034210Y-46048609D01*
X178034210Y-46048609D02*
X178129448Y-46096228D01*
X178129448Y-46096228D02*
X178510400Y-46096228D01*
X177558019Y-46286704D02*
X177081829Y-46286704D01*
X177653257Y-46572419D02*
X177319924Y-45572419D01*
X177319924Y-45572419D02*
X176986591Y-46572419D01*
X176081829Y-46477180D02*
X176129448Y-46524800D01*
X176129448Y-46524800D02*
X176272305Y-46572419D01*
X176272305Y-46572419D02*
X176367543Y-46572419D01*
X176367543Y-46572419D02*
X176510400Y-46524800D01*
X176510400Y-46524800D02*
X176605638Y-46429561D01*
X176605638Y-46429561D02*
X176653257Y-46334323D01*
X176653257Y-46334323D02*
X176700876Y-46143847D01*
X176700876Y-46143847D02*
X176700876Y-46000990D01*
X176700876Y-46000990D02*
X176653257Y-45810514D01*
X176653257Y-45810514D02*
X176605638Y-45715276D01*
X176605638Y-45715276D02*
X176510400Y-45620038D01*
X176510400Y-45620038D02*
X176367543Y-45572419D01*
X176367543Y-45572419D02*
X176272305Y-45572419D01*
X176272305Y-45572419D02*
X176129448Y-45620038D01*
X176129448Y-45620038D02*
X176081829Y-45667657D01*
X175653257Y-46572419D02*
X175653257Y-45572419D01*
X175319924Y-45572419D02*
X174748496Y-45572419D01*
X175034210Y-46572419D02*
X175034210Y-45572419D01*
X174224686Y-45572419D02*
X174034210Y-45572419D01*
X174034210Y-45572419D02*
X173938972Y-45620038D01*
X173938972Y-45620038D02*
X173843734Y-45715276D01*
X173843734Y-45715276D02*
X173796115Y-45905752D01*
X173796115Y-45905752D02*
X173796115Y-46239085D01*
X173796115Y-46239085D02*
X173843734Y-46429561D01*
X173843734Y-46429561D02*
X173938972Y-46524800D01*
X173938972Y-46524800D02*
X174034210Y-46572419D01*
X174034210Y-46572419D02*
X174224686Y-46572419D01*
X174224686Y-46572419D02*
X174319924Y-46524800D01*
X174319924Y-46524800D02*
X174415162Y-46429561D01*
X174415162Y-46429561D02*
X174462781Y-46239085D01*
X174462781Y-46239085D02*
X174462781Y-45905752D01*
X174462781Y-45905752D02*
X174415162Y-45715276D01*
X174415162Y-45715276D02*
X174319924Y-45620038D01*
X174319924Y-45620038D02*
X174224686Y-45572419D01*
X172796115Y-46572419D02*
X173129448Y-46096228D01*
X173367543Y-46572419D02*
X173367543Y-45572419D01*
X173367543Y-45572419D02*
X172986591Y-45572419D01*
X172986591Y-45572419D02*
X172891353Y-45620038D01*
X172891353Y-45620038D02*
X172843734Y-45667657D01*
X172843734Y-45667657D02*
X172796115Y-45762895D01*
X172796115Y-45762895D02*
X172796115Y-45905752D01*
X172796115Y-45905752D02*
X172843734Y-46000990D01*
X172843734Y-46000990D02*
X172891353Y-46048609D01*
X172891353Y-46048609D02*
X172986591Y-46096228D01*
X172986591Y-46096228D02*
X173367543Y-46096228D01*
X171605638Y-46572419D02*
X171605638Y-45572419D01*
X171605638Y-45572419D02*
X171272305Y-46286704D01*
X171272305Y-46286704D02*
X170938972Y-45572419D01*
X170938972Y-45572419D02*
X170938972Y-46572419D01*
X170510400Y-46286704D02*
X170034210Y-46286704D01*
X170605638Y-46572419D02*
X170272305Y-45572419D01*
X170272305Y-45572419D02*
X169938972Y-46572419D01*
X169605638Y-46572419D02*
X169605638Y-45572419D01*
X169129448Y-46572419D02*
X169129448Y-45572419D01*
X169129448Y-45572419D02*
X168558020Y-46572419D01*
X168558020Y-46572419D02*
X168558020Y-45572419D01*
X167748496Y-46048609D02*
X167605639Y-46096228D01*
X167605639Y-46096228D02*
X167558020Y-46143847D01*
X167558020Y-46143847D02*
X167510401Y-46239085D01*
X167510401Y-46239085D02*
X167510401Y-46381942D01*
X167510401Y-46381942D02*
X167558020Y-46477180D01*
X167558020Y-46477180D02*
X167605639Y-46524800D01*
X167605639Y-46524800D02*
X167700877Y-46572419D01*
X167700877Y-46572419D02*
X168081829Y-46572419D01*
X168081829Y-46572419D02*
X168081829Y-45572419D01*
X168081829Y-45572419D02*
X167748496Y-45572419D01*
X167748496Y-45572419D02*
X167653258Y-45620038D01*
X167653258Y-45620038D02*
X167605639Y-45667657D01*
X167605639Y-45667657D02*
X167558020Y-45762895D01*
X167558020Y-45762895D02*
X167558020Y-45858133D01*
X167558020Y-45858133D02*
X167605639Y-45953371D01*
X167605639Y-45953371D02*
X167653258Y-46000990D01*
X167653258Y-46000990D02*
X167748496Y-46048609D01*
X167748496Y-46048609D02*
X168081829Y-46048609D01*
X166891353Y-45572419D02*
X166700877Y-45572419D01*
X166700877Y-45572419D02*
X166605639Y-45620038D01*
X166605639Y-45620038D02*
X166510401Y-45715276D01*
X166510401Y-45715276D02*
X166462782Y-45905752D01*
X166462782Y-45905752D02*
X166462782Y-46239085D01*
X166462782Y-46239085D02*
X166510401Y-46429561D01*
X166510401Y-46429561D02*
X166605639Y-46524800D01*
X166605639Y-46524800D02*
X166700877Y-46572419D01*
X166700877Y-46572419D02*
X166891353Y-46572419D01*
X166891353Y-46572419D02*
X166986591Y-46524800D01*
X166986591Y-46524800D02*
X167081829Y-46429561D01*
X167081829Y-46429561D02*
X167129448Y-46239085D01*
X167129448Y-46239085D02*
X167129448Y-45905752D01*
X167129448Y-45905752D02*
X167081829Y-45715276D01*
X167081829Y-45715276D02*
X166986591Y-45620038D01*
X166986591Y-45620038D02*
X166891353Y-45572419D01*
X166081829Y-46286704D02*
X165605639Y-46286704D01*
X166177067Y-46572419D02*
X165843734Y-45572419D01*
X165843734Y-45572419D02*
X165510401Y-46572419D01*
X164605639Y-46572419D02*
X164938972Y-46096228D01*
X165177067Y-46572419D02*
X165177067Y-45572419D01*
X165177067Y-45572419D02*
X164796115Y-45572419D01*
X164796115Y-45572419D02*
X164700877Y-45620038D01*
X164700877Y-45620038D02*
X164653258Y-45667657D01*
X164653258Y-45667657D02*
X164605639Y-45762895D01*
X164605639Y-45762895D02*
X164605639Y-45905752D01*
X164605639Y-45905752D02*
X164653258Y-46000990D01*
X164653258Y-46000990D02*
X164700877Y-46048609D01*
X164700877Y-46048609D02*
X164796115Y-46096228D01*
X164796115Y-46096228D02*
X165177067Y-46096228D01*
X164177067Y-46572419D02*
X164177067Y-45572419D01*
X164177067Y-45572419D02*
X163938972Y-45572419D01*
X163938972Y-45572419D02*
X163796115Y-45620038D01*
X163796115Y-45620038D02*
X163700877Y-45715276D01*
X163700877Y-45715276D02*
X163653258Y-45810514D01*
X163653258Y-45810514D02*
X163605639Y-46000990D01*
X163605639Y-46000990D02*
X163605639Y-46143847D01*
X163605639Y-46143847D02*
X163653258Y-46334323D01*
X163653258Y-46334323D02*
X163700877Y-46429561D01*
X163700877Y-46429561D02*
X163796115Y-46524800D01*
X163796115Y-46524800D02*
X163938972Y-46572419D01*
X163938972Y-46572419D02*
X164177067Y-46572419D01*
D11*
%TO.C,G\u002A\u002A\u002A*%
G36*
X174373612Y-54813562D02*
G01*
X174665866Y-54943590D01*
X174869531Y-55184450D01*
X174946000Y-55497915D01*
X174941035Y-55580925D01*
X174898151Y-55726636D01*
X174793338Y-55892619D01*
X174605134Y-56109708D01*
X174312079Y-56408739D01*
X173678158Y-57038429D01*
X173731442Y-57611740D01*
X173745547Y-57968019D01*
X173672322Y-58467743D01*
X173469177Y-58891614D01*
X173124267Y-59272021D01*
X172685419Y-59579326D01*
X172180772Y-59759369D01*
X171661093Y-59773498D01*
X171136000Y-59620030D01*
X171069934Y-59589345D01*
X170675096Y-59355106D01*
X170387334Y-59061057D01*
X170151955Y-58653478D01*
X169983152Y-58127568D01*
X169979482Y-57641825D01*
X170470045Y-57641825D01*
X170477825Y-57956116D01*
X170557073Y-58400187D01*
X170745012Y-58754082D01*
X171068059Y-59059723D01*
X171252669Y-59156628D01*
X171586819Y-59248277D01*
X171951000Y-59285862D01*
X172267435Y-59256612D01*
X172378730Y-59216896D01*
X172663617Y-59040176D01*
X172935250Y-58788577D01*
X173131317Y-58515550D01*
X173139087Y-58500022D01*
X173219123Y-58265798D01*
X173264501Y-57998700D01*
X173268505Y-57763093D01*
X173224418Y-57623341D01*
X173199652Y-57623605D01*
X173073222Y-57701075D01*
X172871710Y-57864174D01*
X172625347Y-58089386D01*
X172304343Y-58376517D01*
X172033923Y-58554511D01*
X171808933Y-58607585D01*
X171601434Y-58541910D01*
X171383487Y-58363657D01*
X171347503Y-58326813D01*
X171189249Y-58118763D01*
X171151426Y-57968125D01*
X171671540Y-57968125D01*
X171711412Y-58034690D01*
X171832867Y-58103144D01*
X171854409Y-58094334D01*
X171984671Y-57994827D01*
X172207234Y-57798562D01*
X172503184Y-57523009D01*
X172853604Y-57185637D01*
X173239581Y-56803916D01*
X173459800Y-56583049D01*
X173831799Y-56206743D01*
X174102565Y-55925026D01*
X174285206Y-55721592D01*
X174392829Y-55580136D01*
X174438543Y-55484352D01*
X174435456Y-55417937D01*
X174396676Y-55364583D01*
X174304669Y-55276216D01*
X174240427Y-55224478D01*
X174228178Y-55234722D01*
X174121706Y-55336839D01*
X173920438Y-55534531D01*
X173641790Y-55810573D01*
X173303174Y-56147736D01*
X172922006Y-56528792D01*
X172829016Y-56622119D01*
X172376714Y-57083641D01*
X172041778Y-57440987D01*
X171817246Y-57702174D01*
X171696154Y-57875215D01*
X171671540Y-57968125D01*
X171151426Y-57968125D01*
X171138658Y-57917272D01*
X171202466Y-57695015D01*
X171387409Y-57424670D01*
X171700223Y-57078912D01*
X172264447Y-56494478D01*
X171839744Y-56494478D01*
X171386858Y-56566048D01*
X170985535Y-56791321D01*
X170643688Y-57173826D01*
X170616644Y-57214518D01*
X170511071Y-57419372D01*
X170470045Y-57641825D01*
X169979482Y-57641825D01*
X169979227Y-57608125D01*
X170143367Y-57105626D01*
X170475123Y-56622877D01*
X170706012Y-56393029D01*
X171108725Y-56137086D01*
X171574770Y-56015312D01*
X172136680Y-56015820D01*
X172711267Y-56069223D01*
X173332686Y-55435184D01*
X173528555Y-55238091D01*
X173767830Y-55014168D01*
X173945649Y-54881262D01*
X174093340Y-54817534D01*
X174242234Y-54801144D01*
X174373612Y-54813562D01*
G37*
G36*
X176253151Y-54807084D02*
G01*
X176397632Y-54850673D01*
X176560599Y-54955327D01*
X176773383Y-55142884D01*
X177067313Y-55435184D01*
X177688732Y-56069223D01*
X178263319Y-56015820D01*
X178622894Y-56001701D01*
X179121849Y-56075186D01*
X179544998Y-56278283D01*
X179924876Y-56622877D01*
X180232181Y-57061725D01*
X180412224Y-57566372D01*
X180426353Y-58086051D01*
X180272885Y-58611144D01*
X180242200Y-58677210D01*
X180007961Y-59072048D01*
X179713912Y-59359810D01*
X179306333Y-59595189D01*
X178780423Y-59763992D01*
X178260980Y-59767917D01*
X177758481Y-59603777D01*
X177275732Y-59272021D01*
X177047628Y-59043133D01*
X176790686Y-58640037D01*
X176668277Y-58173701D01*
X176668382Y-57963624D01*
X177147333Y-57963624D01*
X177220976Y-58371735D01*
X177451348Y-58766368D01*
X177826681Y-59103456D01*
X177867373Y-59130500D01*
X178072227Y-59236073D01*
X178294680Y-59277099D01*
X178608971Y-59269319D01*
X178784973Y-59249749D01*
X179247418Y-59106492D01*
X179593730Y-58840505D01*
X179819963Y-58455731D01*
X179922174Y-57956116D01*
X179926468Y-57889506D01*
X179926632Y-57597204D01*
X179875160Y-57383390D01*
X179756311Y-57173826D01*
X179733988Y-57142206D01*
X179514233Y-56892624D01*
X179270631Y-56686993D01*
X178955893Y-56540413D01*
X178560255Y-56494478D01*
X178135552Y-56494478D01*
X178699776Y-57078912D01*
X178760469Y-57142294D01*
X179051725Y-57473729D01*
X179216222Y-57734260D01*
X179260694Y-57951209D01*
X179191879Y-58151901D01*
X179016512Y-58363657D01*
X178824818Y-58525324D01*
X178614964Y-58605782D01*
X178391094Y-58566211D01*
X178125127Y-58400652D01*
X177788980Y-58103144D01*
X177688037Y-58007188D01*
X177458026Y-57796390D01*
X177286124Y-57649984D01*
X177203642Y-57595144D01*
X177187995Y-57609708D01*
X177158881Y-57740718D01*
X177147333Y-57963624D01*
X176668382Y-57963624D01*
X176668557Y-57611740D01*
X176721841Y-57038429D01*
X176087920Y-56408739D01*
X175911863Y-56231655D01*
X175679356Y-55981681D01*
X175539850Y-55796624D01*
X175471885Y-55645647D01*
X175454000Y-55497915D01*
X175460994Y-55451155D01*
X175957312Y-55451155D01*
X175977007Y-55530014D01*
X176051656Y-55645685D01*
X176194343Y-55814628D01*
X176418147Y-56053301D01*
X176736153Y-56378163D01*
X177161442Y-56805671D01*
X177612760Y-57252633D01*
X177985564Y-57607041D01*
X178267904Y-57853434D01*
X178471929Y-58000510D01*
X178609789Y-58056970D01*
X178693635Y-58031513D01*
X178735615Y-57932839D01*
X178729740Y-57909658D01*
X178637357Y-57775076D01*
X178447030Y-57548704D01*
X178175774Y-57249516D01*
X177840601Y-56896485D01*
X177458526Y-56508587D01*
X177166502Y-56217661D01*
X176807983Y-55864012D01*
X176541348Y-55609090D01*
X176350138Y-55439814D01*
X176217895Y-55343101D01*
X176128160Y-55305870D01*
X176064474Y-55315039D01*
X176010380Y-55357525D01*
X175979490Y-55392651D01*
X175957312Y-55451155D01*
X175460994Y-55451155D01*
X175484256Y-55295643D01*
X175661818Y-55008963D01*
X175834038Y-54879313D01*
X176157765Y-54801144D01*
X176253151Y-54807084D01*
G37*
G36*
X175514107Y-48869130D02*
G01*
X176031670Y-49042779D01*
X176498920Y-49370977D01*
X176811945Y-49756738D01*
X177009716Y-50224412D01*
X177076129Y-50723638D01*
X177015283Y-51222507D01*
X176831275Y-51689108D01*
X176528203Y-52091535D01*
X176110166Y-52397877D01*
X176044198Y-52433532D01*
X175963152Y-52496059D01*
X175913808Y-52590904D01*
X175888301Y-52752321D01*
X175878764Y-53014563D01*
X175877333Y-53411885D01*
X175873588Y-53685875D01*
X175856885Y-54039871D01*
X175829865Y-54311154D01*
X175795902Y-54456432D01*
X175663162Y-54594936D01*
X175457235Y-54715138D01*
X175374311Y-54742602D01*
X175073774Y-54753401D01*
X174795254Y-54651406D01*
X174604097Y-54456432D01*
X174579734Y-54369866D01*
X174550280Y-54131792D01*
X174530132Y-53798034D01*
X174522666Y-53411885D01*
X174522354Y-53158881D01*
X174517085Y-52845502D01*
X174499064Y-52646966D01*
X174460425Y-52529019D01*
X174393303Y-52457408D01*
X174289833Y-52397877D01*
X173968902Y-52181270D01*
X173627267Y-51784829D01*
X173412126Y-51295402D01*
X173347028Y-50809506D01*
X173787749Y-50809506D01*
X173880649Y-51244887D01*
X174116703Y-51632992D01*
X174192931Y-51716155D01*
X174349758Y-51863948D01*
X174446770Y-51922478D01*
X174462724Y-51905757D01*
X174476691Y-51841048D01*
X174959869Y-51841048D01*
X174965417Y-52483594D01*
X174988333Y-54250811D01*
X175200000Y-54250811D01*
X175411666Y-54250811D01*
X175434582Y-52483594D01*
X175439408Y-51897802D01*
X175435774Y-51354011D01*
X175421685Y-50962472D01*
X175396784Y-50714088D01*
X175360715Y-50599761D01*
X175302458Y-50540374D01*
X175200000Y-50483144D01*
X175196205Y-50483175D01*
X175113665Y-50506427D01*
X175051333Y-50585770D01*
X175006998Y-50740053D01*
X174978449Y-50988128D01*
X174963477Y-51348842D01*
X174959869Y-51841048D01*
X174476691Y-51841048D01*
X174493442Y-51763438D01*
X174514715Y-51507218D01*
X174522666Y-51175236D01*
X174523678Y-50963997D01*
X174534639Y-50668214D01*
X174564889Y-50477616D01*
X174623271Y-50350185D01*
X174718623Y-50243903D01*
X174832126Y-50158691D01*
X175129118Y-50062168D01*
X175436418Y-50094774D01*
X175693241Y-50255768D01*
X175722668Y-50288436D01*
X175803137Y-50410517D01*
X175850047Y-50572200D01*
X175871934Y-50816668D01*
X175877333Y-51187101D01*
X175878858Y-51333689D01*
X175893152Y-51635163D01*
X175919265Y-51844241D01*
X175953229Y-51922478D01*
X176054420Y-51877607D01*
X176215064Y-51717878D01*
X176380953Y-51487689D01*
X176518527Y-51234940D01*
X176594232Y-51007527D01*
X176611133Y-50856268D01*
X176561661Y-50394310D01*
X176375622Y-49969689D01*
X176074886Y-49621208D01*
X175681321Y-49387671D01*
X175511012Y-49334815D01*
X175054670Y-49306142D01*
X174615399Y-49443367D01*
X174203530Y-49743999D01*
X174024027Y-49957632D01*
X173836157Y-50367028D01*
X173787749Y-50809506D01*
X173347028Y-50809506D01*
X173337333Y-50737144D01*
X173386701Y-50281433D01*
X173578261Y-49775590D01*
X173898808Y-49358980D01*
X174331959Y-49051634D01*
X174861333Y-48873586D01*
X174968408Y-48856766D01*
X175514107Y-48869130D01*
G37*
G36*
X176129896Y-46934167D02*
G01*
X177020614Y-46936489D01*
X177876902Y-46940543D01*
X178681923Y-46946335D01*
X179418842Y-46953873D01*
X180070825Y-46963163D01*
X180621035Y-46974211D01*
X181052637Y-46987024D01*
X181348798Y-47001608D01*
X181492680Y-47017969D01*
X181676352Y-47092088D01*
X182005755Y-47310403D01*
X182322501Y-47606026D01*
X182578686Y-47931528D01*
X182726406Y-48239478D01*
X182743491Y-48374603D01*
X182760160Y-48668456D01*
X182774876Y-49098970D01*
X182787641Y-49649147D01*
X182798454Y-50301987D01*
X182807315Y-51040492D01*
X182814223Y-51847661D01*
X182819180Y-52706497D01*
X182822185Y-53600000D01*
X182823238Y-54511170D01*
X182822338Y-55423010D01*
X182819487Y-56318519D01*
X182814684Y-57180699D01*
X182807929Y-57992550D01*
X182799222Y-58737074D01*
X182788563Y-59397271D01*
X182775952Y-59956142D01*
X182761388Y-60396689D01*
X182744873Y-60701911D01*
X182726406Y-60854811D01*
X182653538Y-61034693D01*
X182435032Y-61358860D01*
X182136784Y-61672140D01*
X181806699Y-61927103D01*
X181492680Y-62076320D01*
X181352529Y-62093385D01*
X181056822Y-62109320D01*
X180625053Y-62123384D01*
X180074187Y-62135579D01*
X179421190Y-62145903D01*
X178683028Y-62154356D01*
X177876667Y-62160939D01*
X177019072Y-62165652D01*
X176127210Y-62168495D01*
X175218047Y-62169467D01*
X174308548Y-62168569D01*
X173415679Y-62165800D01*
X172556406Y-62161161D01*
X171747696Y-62154652D01*
X171006512Y-62146273D01*
X170349823Y-62136023D01*
X169794593Y-62123902D01*
X169357789Y-62109912D01*
X169056376Y-62094051D01*
X168907319Y-62076320D01*
X168723647Y-62002201D01*
X168394244Y-61783886D01*
X168077498Y-61488263D01*
X167821313Y-61162761D01*
X167673593Y-60854811D01*
X167656508Y-60719686D01*
X167651981Y-60639888D01*
X167639839Y-60425833D01*
X167625123Y-59995319D01*
X167612358Y-59445142D01*
X167601545Y-58792302D01*
X167592684Y-58053797D01*
X167585776Y-57246628D01*
X167580819Y-56387792D01*
X167577814Y-55494289D01*
X167576761Y-54583119D01*
X167577661Y-53671279D01*
X167580512Y-52775770D01*
X167585315Y-51913590D01*
X167592070Y-51101739D01*
X167600777Y-50357215D01*
X167611436Y-49697018D01*
X167624047Y-49138147D01*
X167638611Y-48697600D01*
X167651208Y-48464787D01*
X168553666Y-48464787D01*
X168553666Y-54552337D01*
X168553666Y-60639888D01*
X168830461Y-60916683D01*
X169107256Y-61193478D01*
X175200000Y-61193478D01*
X181292743Y-61193478D01*
X181569538Y-60916683D01*
X181846333Y-60639888D01*
X181846333Y-54547145D01*
X181846333Y-48454401D01*
X181569568Y-48177606D01*
X181292803Y-47900811D01*
X175304234Y-47884138D01*
X174562533Y-47882620D01*
X173600527Y-47882331D01*
X172695928Y-47883950D01*
X171862727Y-47887355D01*
X171114913Y-47892423D01*
X170466478Y-47899029D01*
X169931412Y-47907051D01*
X169523706Y-47916365D01*
X169257349Y-47926849D01*
X169146333Y-47938379D01*
X169133706Y-47944021D01*
X168955509Y-48062509D01*
X168765333Y-48237040D01*
X168553666Y-48464787D01*
X167651208Y-48464787D01*
X167655126Y-48392378D01*
X167673593Y-48239478D01*
X167763172Y-48031835D01*
X167982613Y-47718118D01*
X168271227Y-47413342D01*
X168581858Y-47165568D01*
X168867347Y-47022858D01*
X168874419Y-47021085D01*
X169032753Y-47004783D01*
X169341844Y-46990142D01*
X169784856Y-46977168D01*
X170344955Y-46965867D01*
X171005304Y-46956246D01*
X171749069Y-46948312D01*
X172559415Y-46942071D01*
X173419505Y-46937529D01*
X174312506Y-46934693D01*
X175221581Y-46933571D01*
X176129896Y-46934167D01*
G37*
%TD*%
M02*
